AmiriLatin-Regular.sfdir
StartChar: exclam
Encoding: 33 33 1
Width: 482
Flags: HW
LayerCount: 2
Fore
SplineSet
130 90 m 128
 130 120 141.17 145.5 163.5 166.5 c 128
 185.83 187.5 212 198 242 198 c 128
 272 198 297.5 187.5 318.5 166.5 c 128
 339.5 145.5 350 120 350 90 c 128
 350 60 339.5 33.83 318.5 11.5 c 128
 297.5 -10.83 272 -22 242 -22 c 128
 212 -22 185.83 -10.83 163.5 11.5 c 128
 141.17 33.83 130 60 130 90 c 128
250 1284 m 0
 278.67 1284 300.5 1272.17 315.5 1248.5 c 128
 330.5 1224.83 338 1198 338 1168 c 0
 338 1151.33 335.5 1113.5 330.5 1054.5 c 128
 325.5 995.5 316.67 895.17 304 753.5 c 128
 291.33 611.83 279.33 475.33 268 344 c 1
 260 328 249.33 319.33 236 318 c 1
 223.33 323.33 214.67 330.67 210 340 c 1
 170 800 150 1076 150 1168 c 0
 150 1198 159.17 1224.83 177.5 1248.5 c 128
 195.83 1272.17 220 1284 250 1284 c 0
EndSplineSet
Substitution2: "'smcp' Lowercase to Small Capitals lookup 2-1" exclam.sc
EndChar
StartChar: quotedbl
Encoding: 34 34 2
Width: 560
Flags: HW
LayerCount: 2
Fore
SplineSet
422 1398 m 0
 442.666666667 1398 460 1389.33333333 474 1372 c 1
 474 1342.66666667 470.833333333 1283.5 464.5 1194.5 c 128
 458.166666667 1105.5 452 1035.33333333 446 984 c 1
 438 968 424.666666667 955.333333333 406 946 c 1
 398 946 392 950 388 958 c 1
 341.333333333 1118 318 1218 318 1258 c 0
 318 1289.33333333 328 1320.5 348 1351.5 c 128
 368 1382.5 392.666666667 1398 422 1398 c 0
182 1398 m 0
 202.666666667 1398 220 1389.33333333 234 1372 c 1
 234 1342.66666667 230.833333333 1283.5 224.5 1194.5 c 128
 218.166666667 1105.5 212 1035.33333333 206 984 c 1
 198 968 184.666666667 955.333333333 166 946 c 1
 158 946 152 950 148 958 c 1
 101.333333333 1118 78 1218 78 1258 c 0
 78 1289.33333333 88 1320.5 108 1351.5 c 128
 128 1382.5 152.666666667 1398 182 1398 c 0
EndSplineSet
EndChar
StartChar: numbersign
Encoding: 35 35 3
Width: 468
UnlinkRmOvrlpSave: 1
Flags: HW
LayerCount: 2
Fore
SplineSet
404 360 m 1
 83 360 l 2
 79 360 77 365 77 372 c 128
 77 379 78 387 81 395 c 128
 84 403 87 407 91 408 c 1
 410 408 l 2
 414 408 416 404 417 397 c 128
 418 390 417 383 414 375 c 128
 411 367 408 362 404 360 c 1
376 174 m 1
 55 174 l 1
 51 175 50 178 50 185 c 128
 50 192 51 200 54 208 c 128
 57 216 61 221 65 222 c 1
 383 222 l 2
 387 222 390 218 390 211 c 128
 390 204 390 196 387 188 c 128
 384 180 380 176 376 174 c 1
365 516 m 1
 294 75 l 2
 293 72 291 70 287 67 c 128
 283 64 278 62 271 62 c 0
 268 62 266 62 264 63 c 128
 262 64 261 64 261 65 c 2
 260 66 l 1
 331 506 l 1
 332 509 333 511 333 512 c 128
 333 513 334 513 335 515 c 128
 336 517 338 518 341 518 c 128
 344 518 347 519 352 519 c 0
 358 519 362 518 365 516 c 1
208 516 m 1
 136 75 l 2
 135 72 133 70 129 67 c 128
 125 64 121 62 114 62 c 0
 111 62 109 62 107 63 c 128
 105 64 104 64 104 65 c 2
 103 66 l 1
 173 506 l 1
 174 509 175 511 175 512 c 128
 175 513 177 513 178 515 c 128
 179 517 181 518 184 518 c 128
 187 518 190 519 195 519 c 0
 201 519 205 518 208 516 c 1
EndSplineSet
EndChar
StartChar: dollar
Encoding: 36 36 4
Width: 996
Flags: HW
LayerCount: 2
Fore
SplineSet
584 1366 m 1
 630.67 1366 654 1361.33 654 1352 c 1
 640 1265 l 1
 655.33 1261.67 680.33 1255.33 715 1246 c 128
 749.67 1236.67 779.33 1229.33 804 1224 c 1
 809.33 1200.67 813.83 1173.83 817.5 1143.5 c 128
 821.17 1113.17 823.5 1089.17 824.5 1071.5 c 128
 825.5 1053.83 826.33 1030 827 1000 c 128
 827.67 970 828 954 828 952 c 1
 819.33 946.67 807.33 944 792 944 c 0
 780 944 770.67 947.33 764 954 c 1
 759.33 990.67 744.5 1030.17 719.5 1072.5 c 128
 694.5 1114.83 663 1148.67 625 1174 c 1
 548 711 l 1
 549.33 710.33 551.67 709 555 707 c 128
 558.33 705 560.67 703.33 562 702 c 0
 572 695.33 588.67 685 612 671 c 128
 635.33 657 654 645.67 668 637 c 128
 682 628.33 700.17 616.17 722.5 600.5 c 128
 744.83 584.83 763 570.67 777 558 c 128
 791 545.33 806.33 529.83 823 511.5 c 128
 839.67 493.17 852.67 475.33 862 458 c 128
 871.33 440.67 879.33 421.17 886 399.5 c 128
 892.67 377.83 896 355.33 896 332 c 0
 896 264 876.67 202.67 838 148 c 128
 799.33 93.33 749.67 51.67 689 23 c 128
 628.33 -5.67 563.33 -20 494 -20 c 0
 472 -20 450 -19 428 -17 c 1
 414 -104 l 1
 400 -104 384.83 -102.5 368.5 -99.5 c 128
 352.17 -96.5 344 -92 344 -86 c 1
 357 -8 l 1
 343.67 -6 274 8.67 148 36 c 1
 137.33 88 127 146.83 117 212.5 c 128
 107 278.17 102 317.33 102 330 c 1
 106 334 113.5 337.67 124.5 341 c 128
 135.5 344.33 144.67 346 152 346 c 0
 163.33 346 170.67 342.67 174 336 c 1
 178 318 183.17 299.83 189.5 281.5 c 128
 195.83 263.17 206 239.5 220 210.5 c 128
 234 181.5 254 154.67 280 130 c 128
 306 105.33 336 86 370 72 c 1
 452 568 l 1
 421.33 586 396.67 600.83 378 612.5 c 128
 359.33 624.17 336 640 308 660 c 128
 280 680 257.33 699 240 717 c 128
 222.67 735 205.33 755.67 188 779 c 128
 170.67 802.33 158 827.5 150 854.5 c 128
 142 881.5 138 910 138 940 c 0
 138 1005.33 156 1064.33 192 1117 c 128
 228 1169.67 274.5 1209.67 331.5 1237 c 128
 388.5 1264.33 449.33 1278 514 1278 c 0
 528 1278 546.33 1277.33 569 1276 c 1
 584 1366 l 1
519 530 m 1
 440 52 l 1
 456 49.33 475.33 48 498 48 c 0
 561.33 48 615.5 68.67 660.5 110 c 128
 705.5 151.33 728 208 728 280 c 0
 728 295.33 726.67 310 724 324 c 128
 721.33 338 718.5 350.33 715.5 361 c 128
 712.5 371.67 706.67 382.83 698 394.5 c 128
 689.33 406.17 682.83 415.33 678.5 422 c 128
 674.17 428.67 665.33 437.17 652 447.5 c 128
 638.67 457.83 629.33 465 624 469 c 128
 618.67 473 607.33 480.17 590 490.5 c 128
 572.67 500.83 561.5 507.33 556.5 510 c 128
 549 514 549 514 519 530 c 1
482 751 m 1
 557 1205 l 1
 540.33 1209.67 522 1212 502 1212 c 0
 462 1212 427.67 1205.5 399 1192.5 c 128
 370.33 1179.5 348.5 1162 333.5 1140 c 128
 318.5 1118 307.83 1095.5 301.5 1072.5 c 128
 295.17 1049.5 292 1025.33 292 1000 c 0
 292 970.67 296.83 943.83 306.5 919.5 c 128
 316.17 895.17 331 872.67 351 852 c 128
 371 831.33 390.33 814 409 800 c 128
 427.67 786 452 769.67 482 751 c 1
EndSplineSet
EndChar
StartChar: percent
Encoding: 37 37 5
Width: 651
Flags: HW
LayerCount: 2
Fore
SplineSet
182 606 m 0
 164 606 148 600 135 587 c 128
 122 574 114 560 109 542 c 128
 104 524 102 505 102 484 c 0
 102 449 111 417 129 387 c 128
 147 357 167 342 191 342 c 0
 204 342 217 346 227 353 c 128
 237 360 245 370 250 382 c 128
 255 394 259 407 261 421 c 128
 263 435 265 450 265 465 c 0
 265 487 262 510 255 531 c 128
 248 552 239 569 226 584 c 128
 213 599 198 606 182 606 c 0
186 630 m 0
 228 630 262 615 289 584 c 128
 316 553 329 516 329 473 c 0
 329 447 323 421 312 398 c 128
 301 375 284 355 262 340 c 128
 240 325 214 317 186 317 c 0
 145 317 110 333 82 363 c 128
 54 393 39 430 39 473 c 0
 39 517 52 554 80 584 c 128
 108 614 143 630 186 630 c 0
464 282 m 0
 446 282 430 276 417 263 c 128
 404 250 396 236 391 218 c 128
 386 200 383 181 383 160 c 0
 383 125 392 93 410 63 c 128
 428 33 450 18 474 18 c 0
 487 18 499 22 509 29 c 128
 519 36 526 46 531 58 c 128
 536 70 540 83 542 97 c 128
 544 111 546 126 546 141 c 0
 546 163 542 185 536 206 c 128
 530 227 521 245 508 260 c 128
 495 275 480 282 464 282 c 0
468 306 m 0
 510 306 543 291 570 260 c 128
 597 229 610 192 610 148 c 0
 610 107 597 71 571 40 c 128
 545 9 510 -7 467 -7 c 0
 426 -7 391 9 363 39 c 128
 335 69 320 105 320 148 c 0
 320 192 334 230 362 260 c 128
 390 290 425 306 468 306 c 0
584 609 m 1
 112 0 l 2
 110 -3 106 -5 99 -8 c 128
 92 -11 86 -12 80 -12 c 0
 72 -12 66 -8 62 -1 c 1
 533 609 l 1
 540 617 546 621 553 621 c 0
 560 621 564 620 568 620 c 128
 572 620 574 619 575 619 c 128
 576 619 578 617 580 615 c 128
 582 613 583 610 584 609 c 1
EndSplineSet
EndChar
StartChar: ampersand
Encoding: 38 38 6
Width: 1366
Flags: HW
LayerCount: 2
Fore
SplineSet
812 190 m 1
 773.333333333 229.333333333 726.666666667 285.5 672 358.5 c 128
 617.333333333 431.5 572.333333333 494.666666667 537 548 c 2
 484 628 l 1
 454.666666667 608 433.166666667 593 419.5 583 c 128
 405.833333333 573 388 558.166666667 366 538.5 c 128
 344 518.833333333 328 500.666666667 318 484 c 128
 308 467.333333333 298.833333333 446.833333333 290.5 422.5 c 128
 282.166666667 398.166666667 278 372 278 344 c 0
 278 256 305.333333333 190 360 146 c 128
 414.666666667 102 482 80 562 80 c 0
 603.333333333 80 647.5 90 694.5 110 c 128
 741.5 130 780.666666667 156.666666667 812 190 c 1
626 1240 m 0
 582 1240 544.666666667 1225.66666667 514 1197 c 128
 483.333333333 1168.33333333 468 1131.33333333 468 1086 c 0
 468 1000.66666667 502.666666667 895.333333333 572 770 c 1
 618 796.666666667 654 821.166666667 680 843.5 c 128
 706 865.833333333 727.5 895.166666667 744.5 931.5 c 128
 761.5 967.833333333 770 1010.66666667 770 1060 c 0
 770 1108 756.666666667 1150 730 1186 c 128
 703.333333333 1222 668.666666667 1240 626 1240 c 0
616 1312 m 0
 705.333333333 1312 776 1292.5 828 1253.5 c 128
 880 1214.5 906 1159.33333333 906 1088 c 0
 906 1044.66666667 898.166666667 1004.33333333 882.5 967 c 128
 866.833333333 929.666666667 843.5 895.166666667 812.5 863.5 c 128
 781.5 831.833333333 750.833333333 804.5 720.5 781.5 c 128
 690.166666667 758.5 652.666666667 733.333333333 608 706 c 1
 686 574.666666667 784.666666667 442 904 308 c 1
 937.333333333 358.666666667 964.666666667 407.166666667 986 453.5 c 128
 1007.33333333 499.833333333 1018 529.333333333 1018 542 c 0
 1018 554 1012 562.5 1000 567.5 c 128
 988 572.5 973.166666667 575.5 955.5 576.5 c 128
 937.833333333 577.5 928.666666667 578 928 578 c 0
 924.666666667 584 923.166666667 592.166666667 923.5 602.5 c 128
 923.833333333 612.833333333 926 620 930 624 c 1
 1088 624 l 2
 1108.66666667 624 1130 624.5 1152 625.5 c 128
 1174 626.5 1199.83333333 628 1229.5 630 c 128
 1259.16666667 632 1285.33333333 633.333333333 1308 634 c 1
 1310.66666667 632 1311.83333333 622.166666667 1311.5 604.5 c 128
 1311.16666667 586.833333333 1309.33333333 578 1306 578 c 0
 1288.66666667 578 1264 574 1232 566 c 128
 1200 558 1178.66666667 550.666666667 1168 544 c 0
 1166 542.666666667 1156.33333333 527.5 1139 498.5 c 128
 1121.66666667 469.5 1096.33333333 430.5 1063 381.5 c 128
 1029.66666667 332.5 995.333333333 287.333333333 960 246 c 1
 990.666666667 214 1012 191.833333333 1024 179.5 c 128
 1036 167.166666667 1051.83333333 152.166666667 1071.5 134.5 c 128
 1091.16666667 116.833333333 1107.33333333 105 1120 99 c 128
 1132.66666667 93 1144.66666667 90 1156 90 c 0
 1174.66666667 90 1195 101.166666667 1217 123.5 c 128
 1239 145.833333333 1253.33333333 165.333333333 1260 182 c 1
 1270.66666667 182 1281 177.833333333 1291 169.5 c 128
 1301 161.166666667 1306 153.333333333 1306 146 c 1
 1302.66666667 138 1299 130.333333333 1295 123 c 128
 1291 115.666666667 1282.66666667 103.833333333 1270 87.5 c 128
 1257.33333333 71.1666666667 1243.66666667 57.1666666667 1229 45.5 c 128
 1214.33333333 33.8333333333 1194.33333333 23.3333333333 1169 14 c 128
 1143.66666667 4.66666666667 1116.66666667 0 1088 0 c 0
 1066 0 1043 5 1019 15 c 128
 995 25 973.833333333 37 955.5 51 c 128
 937.166666667 65 920.333333333 79 905 93 c 128
 889.666666667 107 878 119 870 129 c 2
 858 144 l 1
 807.333333333 99.3333333333 749.833333333 63.1666666667 685.5 35.5 c 128
 621.166666667 7.83333333333 557.333333333 -6 494 -6 c 0
 376 -6 281.833333333 22.6666666667 211.5 80 c 128
 141.166666667 137.333333333 106 216 106 316 c 0
 106 362 114.833333333 404.5 132.5 443.5 c 128
 150.166666667 482.5 176.166666667 517.666666667 210.5 549 c 128
 244.833333333 580.333333333 279.166666667 607.166666667 313.5 629.5 c 128
 347.833333333 651.833333333 389.333333333 675.333333333 438 700 c 1
 413.333333333 742.666666667 394.333333333 776.833333333 381 802.5 c 128
 367.666666667 828.166666667 354.5 863.166666667 341.5 907.5 c 128
 328.5 951.833333333 322 995.333333333 322 1038 c 0
 322 1114.66666667 350.166666667 1179.5 406.5 1232.5 c 128
 462.833333333 1285.5 532.666666667 1312 616 1312 c 0
EndSplineSet
Substitution2: "'smcp' Lowercase to Small Capitals lookup 2-1" ampersand.sc
EndChar
StartChar: quotesingle
Encoding: 39 39 7
Width: 320
Flags: HW
LayerCount: 2
Fore
SplineSet
182 1398 m 0
 202.666666667 1398 220 1389.33333333 234 1372 c 1
 234 1342.66666667 230.833333333 1283.5 224.5 1194.5 c 128
 218.166666667 1105.5 212 1035.33333333 206 984 c 1
 198 968 184.666666667 955.333333333 166 946 c 1
 158 946 152 950 148 958 c 1
 101.333333333 1118 78 1218 78 1258 c 0
 78 1289.33333333 88 1320.5 108 1351.5 c 128
 128 1382.5 152.666666667 1398 182 1398 c 0
EndSplineSet
Substitution2: "'smcp' Lowercase to Small Capitals lookup 2-1" quotesingle.sc
EndChar
StartChar: parenleft
Encoding: 40 40 8
Width: 255
Flags: W
VStem: 36 71<120 437>
LayerCount: 2
Fore
SplineSet
107 278 m 0
 107 125 158 -46 250 -127 c 1
 251 -127 238 -142 231 -146 c 1
 117 -56 36 89 36 278 c 0
 36 468 117 612 231 702 c 1
 238 698 251 683 250 683 c 1
 158 602 107 432 107 278 c 0
EndSplineSet
Substitution2: "'smcp' Lowercase to Small Capitals lookup 2-1" parenleft.sc
EndChar
StartChar: parenright
Encoding: 41 41 9
Width: 255
Flags: W
VStem: 148 71<120 437>
LayerCount: 2
Fore
SplineSet
220 278 m 0
 220 89 138 -56 24 -146 c 1
 17 -142 5 -127 6 -127 c 1
 98 -46 148 125 148 278 c 0
 148 432 98 602 6 683 c 1
 5 683 17 698 24 702 c 1
 138 612 220 468 220 278 c 0
EndSplineSet
Substitution2: "'smcp' Lowercase to Small Capitals lookup 2-1" parenright.sc
EndChar
StartChar: asterisk
Encoding: 42 42 10
Width: 432
Flags: HW
LayerCount: 2
Fore
SplineSet
294 599 m 0
 303 609 313 615 323 617 c 128
 333 619 341 617 349 610 c 1
 357 602 360 593 359 583 c 128
 358 573 352 564 343 556 c 0
 331 545 315 534 294 523 c 128
 273 512 258 501 249 493 c 0
 249 492 248 491 247 490 c 128
 246 489 246 487 245 485 c 128
 244 483 244 480 244 479 c 0
 245 475 247 472 253 470 c 0
 264 465 280 461 302 457 c 128
 324 453 343 447 358 440 c 0
 370 435 378 428 384 419 c 128
 390 410 390 402 386 393 c 0
 381 383 374 377 364 375 c 128
 354 373 344 375 333 381 c 0
 319 389 302 401 285 418 c 128
 268 435 254 445 244 451 c 0
 243 451 242 451 241 452 c 128
 240 452 239 453 236 454 c 128
 233 455 231 455 230 454 c 1
 229 453 228 452 227 451 c 128
 226 450 225 449 225 448 c 128
 225 447 225 447 225 445 c 128
 225 443 224 442 224 441 c 0
 223 429 223 413 226 391 c 128
 229 369 230 349 228 333 c 1
 226 320 223 310 216 302 c 128
 209 294 201 291 191 292 c 0
 180 293 172 298 167 307 c 128
 162 316 161 327 164 339 c 1
 167 355 173 374 184 396 c 128
 195 418 202 434 204 446 c 1
 205 452 204 456 201 459 c 1
 199 462 194 463 188 462 c 0
 177 460 161 454 141 444 c 128
 121 434 102 428 85 424 c 0
 73 421 62 422 52 426 c 128
 42 430 36 436 35 446 c 1
 33 456 35 465 42 473 c 128
 49 481 60 485 72 487 c 0
 88 489 108 488 132 485 c 128
 156 482 173 480 185 482 c 1
 191 484 195 487 196 490 c 0
 198 494 197 499 194 504 c 0
 188 514 177 528 162 544 c 128
 147 560 134 576 126 590 c 0
 120 600 117 611 118 622 c 128
 119 633 124 640 132 645 c 0
 142 650 151 650 160 646 c 128
 169 642 176 633 182 622 c 0
 189 607 194 589 198 565 c 128
 202 541 207 524 212 513 c 0
 215 506 219 503 222 502 c 0
 226 501 230 503 235 508 c 0
 243 517 253 531 263 551 c 128
 273 571 283 587 294 599 c 0
EndSplineSet
EndChar
StartChar: plus
Encoding: 43 43 11
Width: 529
Flags: W
HStem: 213 55<35 236 291 495>
VStem: 236 55<7 213 268 470>
LayerCount: 2
Fore
SplineSet
236 463 m 1
 252 469 271 474 278 474 c 0
 288 474 291 468 291 468 c 1
 291 268 l 25
 369 268 412 268 490 268 c 16
 494 268 499 264 499 256 c 0
 499 240 491 221 483 213 c 1
 291 213 l 25
 291 213 291 91 291 16 c 1
 279 7 259 5 249 5 c 0
 242 5 236 10 236 14 c 2
 236 213 l 25
 36 213 l 1
 36 213 30 213 30 223 c 0
 30 227 35 260 45 268 c 1
 236 268 l 9
 236 268 236 444 236 463 c 1
EndSplineSet
EndChar
StartChar: comma
Encoding: 44 44 12
Width: 196
Flags: HW
LayerCount: 2
Fore
SplineSet
104 120 m 0
 113 120 121 118 129 113 c 1
 141 93 146 70 146 45 c 0
 146 18 134 -15 108 -55 c 128
 82 -95 56 -122 31 -136 c 1
 28 -136 24 -133 21 -128 c 128
 18 -123 17 -118 17 -115 c 1
 24 -109 30 -104 35 -100 c 128
 40 -96 46 -89 54 -80 c 128
 62 -71 68 -59 72 -47 c 128
 76 -35 78 -22 78 -7 c 0
 78 3 73 16 62 31 c 128
 51 46 46 59 46 72 c 0
 46 83 51 95 62 105 c 128
 73 115 87 120 104 120 c 0
EndSplineSet
Substitution2: "'smcp' Lowercase to Small Capitals lookup 2-1" comma.sc
Substitution2: "'c2sc' Capitals to Small Capitals in Latin lookup 0 subtable" comma.sc
EndChar
StartChar: hyphen
Encoding: 45 45 13
Width: 368
Flags: HW
LayerCount: 2
Fore
SplineSet
69 255 m 1
 204 262 284 266 305 267 c 0
 310 267 312 264 312 258 c 0
 312 241 307 223 299 205 c 1
 286 204 207 200 63 194 c 0
 58 194 57 198 57 205 c 0
 57 220 61 237 69 255 c 1
EndSplineSet
EndChar
StartChar: period
Encoding: 46 46 936
Width: 414
Flags: W
LayerCount: 2
Fore
SplineSet
96 90 m 128,-1,1
 96 135 96 135 129.5 166.5 c 128,-1,2
 163 198 163 198 208 198 c 128,-1,3
 253 198 253 198 284.5 166.5 c 128,-1,4
 316 135 316 135 316 90 c 128,-1,5
 316 45 316 45 284.5 11.5 c 128,-1,6
 253 -22 253 -22 208 -22 c 128,-1,7
 163 -22 163 -22 129.5 11.5 c 128,-1,0
 96 45 96 45 96 90 c 128,-1,1
EndSplineSet
Substitution2: "'smcp' Lowercase to Small Capitals lookup 2-1" period.sc
Substitution2: "'c2sc' Capitals to Small Capitals in Latin lookup 0 subtable" period.sc
EndChar
StartChar: slash
Encoding: 47 47 14
Width: 403
Flags: HW
LayerCount: 2
Fore
SplineSet
360 743 m 0
 367 743 371 740 373 734 c 1
 85 -12 l 2
 83 -17 79 -22 72 -27 c 128
 65 -32 57 -34 47 -34 c 0
 43 -34 39 -33 36 -32 c 128
 33 -31 32 -30 31 -29 c 2
 29 -27 l 1
 321 729 l 2
 321 730 323 732 326 734 c 128
 329 736 334 738 340 740 c 128
 346 742 353 743 360 743 c 0
EndSplineSet
Substitution2: "'smcp' Lowercase to Small Capitals lookup 2-1" slash.sc
EndChar
StartChar: zero
Encoding: 48 48 15
Width: 532
Flags: HW
LayerCount: 2
Fore
SplineSet
271 590 m 0
 244 590 221 577 201 552 c 128
 181 527 166 494 155 452 c 128
 144 410 139 363 139 312 c 0
 139 261 144 215 154 173 c 128
 164 131 179 96 198 71 c 128
 217 46 239 33 262 33 c 0
 290 33 314 47 334 73 c 128
 354 99 369 134 378 176 c 128
 387 218 393 265 393 317 c 0
 393 368 387 415 377 456 c 128
 367 497 353 530 334 554 c 128
 315 578 294 590 271 590 c 0
266 626 m 0
 310 626 348 612 381 583 c 128
 414 554 438 516 454 469 c 128
 470 422 479 370 479 312 c 0
 479 255 470 202 454 155 c 128
 438 108 413 70 380 41 c 128
 347 12 310 -3 266 -3 c 0
 223 -3 185 12 152 41 c 128
 119 70 95 108 78 155 c 128
 61 202 53 255 53 312 c 128
 53 369 61 421 77 468 c 128
 93 515 118 554 151 583 c 128
 184 612 222 626 266 626 c 0
EndSplineSet
Substitution2: "'pnum' Proportional Numbers lookup 12-1" zero.prop
Substitution2: "'zero' Slashed Zero lookup 11-1" zero.slash
Substitution2: "'onum' Oldstyle Figures lookup 3-1" zero.onum
Substitution2: "'ordn' Ordinals lookup 0-1" zero.ordn
EndChar
StartChar: one
Encoding: 49 49 16
Width: 532
Flags: W
HStem: -3 28<170 235 324 388> 607 20G<313 319>
VStem: 241 77<32 545>
LayerCount: 2
Fore
SplineSet
241 113 m 2
 241 508 l 2
 241 536 235 545 221 545 c 0
 206 545 168 531 152 525 c 1
 147 529 143 535 143 542 c 0
 143 544 142 547 145 548 c 0
 225 584 311 627 314 627 c 2
 316 627 l 2
 322 627 325 616 326 611 c 1
 326 611 318 577 318 517 c 2
 318 113 l 2
 318 84 318 57 323 41 c 0
 326 30 374 25 386 25 c 1
 390 20 391 2 386 -3 c 1
 346 -1 315 2 277 2 c 0
 239 2 213 -1 173 -3 c 1
 168 2 169 20 173 25 c 1
 185 25 232 30 235 41 c 0
 240 57 241 84 241 113 c 2
EndSplineSet
Substitution2: "'pnum' Proportional Numbers lookup 12-1" one.prop
Substitution2: "'onum' Oldstyle Figures lookup 3-1" one.onum
Substitution2: "'ordn' Ordinals lookup 0-1" one.ordn
EndChar
StartChar: two
Encoding: 50 50 17
Width: 1090
Flags: HW
LayerCount: 2
Fore
SplineSet
956 300 m 1
 926.666666667 228.666666667 890.666666667 128.666666667 848 0 c 1
 156 0 l 1
 152 2 147.666666667 6.16666666667 143 12.5 c 128
 138.333333333 18.8333333333 136 24 136 28 c 1
 347.333333333 262 506 456.666666667 612 612 c 0
 650 668 675.5 718.333333333 688.5 763 c 128
 701.5 807.666666667 708 857.333333333 708 912 c 0
 708 981.333333333 687.333333333 1039 646 1085 c 128
 604.666666667 1131 552 1154 488 1154 c 0
 450.666666667 1154 414.833333333 1147.16666667 380.5 1133.5 c 128
 346.166666667 1119.83333333 317 1102.66666667 293 1082 c 128
 269 1061.33333333 249.833333333 1042.83333333 235.5 1026.5 c 128
 221.166666667 1010.16666667 210 995.333333333 202 982 c 1
 194.666666667 982 186.5 986.166666667 177.5 994.5 c 128
 168.5 1002.83333333 164 1009.33333333 164 1014 c 1
 168 1029.33333333 179.666666667 1050.66666667 199 1078 c 128
 218.333333333 1105.33333333 243.166666667 1135 273.5 1167 c 128
 303.833333333 1199 342.333333333 1226.5 389 1249.5 c 128
 435.666666667 1272.5 483.333333333 1284 532 1284 c 0
 626 1284 707.166666667 1250 775.5 1182 c 128
 843.833333333 1114 878 1036.66666667 878 950 c 0
 878 842 840 741.333333333 764 648 c 0
 661.333333333 522.666666667 516 355.333333333 328 146 c 1
 724 146 l 2
 762.666666667 146 794.833333333 158.333333333 820.5 183 c 128
 846.166666667 207.666666667 870 246.666666667 892 300 c 0
 895.333333333 308 903.333333333 312 916 312 c 0
 932 312 945.333333333 308 956 300 c 1
EndSplineSet
Substitution2: "'pnum' Proportional Numbers lookup 12-1" two.prop
Substitution2: "'onum' Oldstyle Figures lookup 3-1" two.onum
Substitution2: "'ordn' Ordinals lookup 0-1" two.ordn
EndChar
StartChar: three
Encoding: 51 51 18
Width: 1090
Flags: HW
LayerCount: 2
Fore
SplineSet
564 1284 m 0
 590.666666667 1284 618.833333333 1278.16666667 648.5 1266.5 c 128
 678.166666667 1254.83333333 706.333333333 1238.66666667 733 1218 c 128
 759.666666667 1197.33333333 781.833333333 1170.16666667 799.5 1136.5 c 128
 817.166666667 1102.83333333 826 1066.66666667 826 1028 c 0
 826 997.333333333 819.833333333 967.166666667 807.5 937.5 c 128
 795.166666667 907.833333333 778.833333333 881.666666667 758.5 859 c 128
 738.166666667 836.333333333 718.333333333 816.833333333 699 800.5 c 128
 679.666666667 784.166666667 660 770 640 758 c 1
 670 754 700.666666667 744 732 728 c 128
 763.333333333 712 793.333333333 691 822 665 c 128
 850.666666667 639 874.166666667 606 892.5 566 c 128
 910.833333333 526 920 482.666666667 920 436 c 0
 920 370 905.333333333 308.5 876 251.5 c 128
 846.666666667 194.5 808 147.166666667 760 109.5 c 128
 712 71.8333333333 657.666666667 42.5 597 21.5 c 128
 536.333333333 0.5 474.666666667 -10 412 -10 c 0
 337.333333333 -10 269.333333333 5.33333333333 208 36 c 1
 200 41.3333333333 191.333333333 51.8333333333 182 67.5 c 128
 172.666666667 83.1666666667 168 98 168 112 c 0
 168 140 176.333333333 163 193 181 c 128
 209.666666667 199 229.333333333 208 252 208 c 0
 268.666666667 208 283.333333333 203.666666667 296 195 c 128
 308.666666667 186.333333333 322 172.833333333 336 154.5 c 128
 350 136.166666667 359.333333333 124.666666667 364 120 c 0
 397.333333333 86.6666666667 446.666666667 70 512 70 c 0
 540 70 567.333333333 75.6666666667 594 87 c 128
 620.666666667 98.3333333333 645.833333333 115.5 669.5 138.5 c 128
 693.166666667 161.5 712.166666667 193.833333333 726.5 235.5 c 128
 740.833333333 277.166666667 748 325.333333333 748 380 c 0
 748 459.333333333 722.333333333 526.166666667 671 580.5 c 128
 619.666666667 634.833333333 560 662 492 662 c 0
 479.333333333 662 465.5 660.5 450.5 657.5 c 128
 435.5 654.5 419.166666667 650.333333333 401.5 645 c 128
 383.833333333 639.666666667 374 636.666666667 372 636 c 1
 364 646 360 659.333333333 360 676 c 0
 360 685.333333333 361.333333333 692 364 696 c 1
 406.666666667 705.333333333 445.666666667 717.833333333 481 733.5 c 128
 516.333333333 749.166666667 549.166666667 768.833333333 579.5 792.5 c 128
 609.833333333 816.166666667 633.5 845 650.5 879 c 128
 667.5 913 676 950.666666667 676 992 c 0
 676 1045.33333333 657.5 1089.66666667 620.5 1125 c 128
 583.5 1160.33333333 536.666666667 1178 480 1178 c 0
 451.333333333 1178 422.833333333 1171.5 394.5 1158.5 c 128
 366.166666667 1145.5 344 1132 328 1118 c 128
 312 1104 296.333333333 1088.66666667 281 1072 c 128
 265.666666667 1055.33333333 257.333333333 1046.66666667 256 1046 c 1
 250 1046 244.5 1051 239.5 1061 c 128
 234.5 1071 232 1080.66666667 232 1090 c 1
 268.666666667 1144 315.333333333 1189.83333333 372 1227.5 c 128
 428.666666667 1265.16666667 492.666666667 1284 564 1284 c 0
EndSplineSet
Substitution2: "'pnum' Proportional Numbers lookup 12-1" three.prop
Substitution2: "'onum' Oldstyle Figures lookup 3-1" three.onum
Substitution2: "'ordn' Ordinals lookup 0-1" three.ordn
EndChar
StartChar: four
Encoding: 52 52 19
Width: 532
Flags: HW
LayerCount: 2
Fore
SplineSet
396 629 m 0
 401 629 404 628 407 624 c 128
 410 620 411 616 411 611 c 2
 411 226 l 1
 469 226 l 2
 472 226 475 221 478 213 c 128
 481 205 482 196 482 186 c 0
 482 179 482 174 479 170 c 1
 411 170 l 1
 411 -1 l 1
 408 -4 394 -6 369 -6 c 0
 346 -6 334 -3 334 2 c 2
 334 170 l 1
 59 170 l 1
 52 174 49 179 49 188 c 1
 367 604 l 2
 371 609 376 615 382 621 c 128
 388 627 392 629 396 629 c 0
334 512 m 25
 115 226 l 1
 334 226 l 1
 334 512 l 25
EndSplineSet
Substitution2: "'pnum' Proportional Numbers lookup 12-1" four.prop
Substitution2: "'onum' Oldstyle Figures lookup 3-1" four.onum
Substitution2: "'ordn' Ordinals lookup 0-1" four.ordn
EndChar
StartChar: five
Encoding: 53 53 20
Width: 1090
Flags: W
LayerCount: 2
Fore
SplineSet
544 790 m 0,0,1
 629 790 629 790 701.5 758.5 c 128,-1,2
 774 727 774 727 821 676.5 c 128,-1,3
 868 626 868 626 894 563 c 128,-1,4
 920 500 920 500 920 436 c 0,5,6
 920 337 920 337 876 251.5 c 128,-1,7
 832 166 832 166 760 109.5 c 128,-1,8
 688 53 688 53 597 21.5 c 128,-1,9
 506 -10 506 -10 412 -10 c 0,10,11
 300 -10 300 -10 208 36 c 1,12,13
 196 44 196 44 182 67.5 c 128,-1,14
 168 91 168 91 168 112 c 0,15,16
 168 154 168 154 193 181 c 128,-1,17
 218 208 218 208 252 208 c 0,18,19
 277 208 277 208 296 195 c 128,-1,20
 315 182 315 182 336 154.5 c 128,-1,21
 357 127 357 127 364 120 c 0,22,23
 414 70 414 70 512 70 c 0,24,25
 554 70 554 70 594 86.5 c 128,-1,26
 634 103 634 103 669.5 137.5 c 128,-1,27
 705 172 705 172 726.5 234.5 c 128,-1,28
 748 297 748 297 748 380 c 0,29,30
 748 419 748 419 737.5 459 c 128,-1,31
 727 499 727 499 702 538.5 c 128,-1,32
 677 578 677 578 641 609 c 128,-1,33
 605 640 605 640 550 659 c 128,-1,34
 495 678 495 678 428 678 c 0,35,36
 394 678 394 678 338.5 668.5 c 128,-1,37
 283 659 283 659 260 648 c 1,38,39
 254 648 254 648 249 657 c 128,-1,40
 244 666 244 666 244 676 c 1,41,42
 352 1228 352 1228 360 1270 c 1,43,-1
 656 1270 l 2,44,45
 692 1270 692 1270 738 1274.5 c 128,-1,46
 784 1279 784 1279 812 1283.5 c 2,47,-1
 840 1288 l 1,48,49
 843 1286 843 1286 848.5 1282.5 c 128,-1,50
 854 1279 854 1279 856.5 1277.5 c 128,-1,51
 859 1276 859 1276 861.5 1273 c 128,-1,52
 864 1270 864 1270 864 1266 c 0,53,54
 864 1251 864 1251 845.5 1201 c 128,-1,55
 827 1151 827 1151 804 1124 c 1,56,57
 692 1112 692 1112 572 1112 c 2,58,-1
 404 1112 l 1,59,60
 396 1072 396 1072 381.5 997 c 128,-1,61
 367 922 367 922 355 862 c 128,-1,62
 343 802 343 802 332 752 c 1,63,64
 372 768 372 768 436.5 779 c 128,-1,65
 501 790 501 790 544 790 c 0,0,1
EndSplineSet
Substitution2: "'pnum' Proportional Numbers lookup 12-1" five.prop
Substitution2: "'onum' Oldstyle Figures lookup 3-1" five.onum
Substitution2: "'ordn' Ordinals lookup 0-1" five.ordn
EndChar
StartChar: six
Encoding: 54 54 21
Width: 1090
Flags: HW
LayerCount: 2
Fore
SplineSet
326 612 m 1
 320.67 574.67 318 529.33 318 476 c 0
 318 429.33 323 382 333 334 c 128
 343 286 357.17 240.67 375.5 198 c 128
 393.83 155.33 418.67 120.67 450 94 c 128
 481.33 67.33 516 54 554 54 c 0
 617.33 54 669.83 83.83 711.5 143.5 c 128
 753.17 203.17 774 278 774 368 c 0
 774 427.33 765.83 480.67 749.5 528 c 128
 733.17 575.33 705.5 614.5 666.5 645.5 c 128
 627.5 676.5 579.33 692 522 692 c 0
 440 692 374.67 665.33 326 612 c 1
578 790 m 0
 631.33 790 679.67 781.17 723 763.5 c 128
 766.33 745.83 801.33 723.5 828 696.5 c 128
 854.67 669.5 877 638.5 895 603.5 c 128
 913 568.5 925.67 534.5 933 501.5 c 128
 940.33 468.5 944 436.67 944 406 c 0
 944 292.67 904.5 194.67 825.5 112 c 128
 746.5 29.33 650.67 -12 538 -12 c 0
 480 -12 425.83 1.33 375.5 28 c 128
 325.17 54.67 283.67 89.67 251 133 c 128
 218.33 176.33 192.67 224.67 174 278 c 128
 155.33 331.33 146 385.33 146 440 c 0
 146 542.67 162.33 639.5 195 730.5 c 128
 227.67 821.5 275.33 901.33 338 970 c 0
 406 1044.67 490.17 1111.5 590.5 1170.5 c 128
 690.83 1229.5 785.33 1270.67 874 1294 c 1
 882 1294 888 1286.83 892 1272.5 c 128
 896 1258.17 898 1246 898 1236 c 1
 593.33 1138 408 959.33 342 700 c 1
 375.33 728 414 750 458 766 c 128
 502 782 542 790 578 790 c 0
EndSplineSet
Substitution2: "'pnum' Proportional Numbers lookup 12-1" six.prop
Substitution2: "'onum' Oldstyle Figures lookup 3-1" six.onum
Substitution2: "'ordn' Ordinals lookup 0-1" six.ordn
EndChar
StartChar: seven
Encoding: 55 55 22
Width: 532
Flags: HW
LayerCount: 2
Fore
SplineSet
398 618 m 2
 408 618 422 619 439 620 c 128
 456 621 465 621 465 621 c 0
 469 621 471 618 471 612 c 0
 471 609 470 605 468 600 c 128
 466 595 464 590 462 585 c 128
 460 580 457 574 453 566 c 128
 449 558 445 552 443 547 c 2
 186 -2 l 1
 184 -4 181 -5 176 -5 c 0
 168 -5 158 -3 148 1 c 128
 138 5 133 9 133 13 c 1
 163 58 201 125 247 214 c 128
 293 303 332 381 363 447 c 2
 410 547 l 1
 162 547 l 2
 143 547 128 542 118 530 c 128
 108 518 99 499 92 472 c 1
 91 468 87 466 80 466 c 0
 72 466 66 468 61 472 c 1
 81 534 94 583 102 618 c 1
 398 618 l 2
EndSplineSet
Substitution2: "'pnum' Proportional Numbers lookup 12-1" seven.prop
Substitution2: "'onum' Oldstyle Figures lookup 3-1" seven.onum
Substitution2: "'ordn' Ordinals lookup 0-1" seven.ordn
EndChar
StartChar: eight
Encoding: 56 56 23
Width: 532
Flags: W
HStem: -9 35<211 326> 594 34<221 314>
VStem: 82 77<75 220> 109 72<420 543> 361 70<414 549> 371 79<84 198>
LayerCount: 2
Fore
SplineSet
266 26 m 0xe4
 330 26 371 69 371 135 c 0
 371 216 260 280 246 288 c 0
 244 289 243 290 240 290 c 0
 239 290 237 290 236 289 c 0
 182 255 159 215 159 153 c 0
 159 73 214 26 266 26 c 0xe4
266 594 m 0
 219 594 182 545 182 486 c 0
 182 411 246 376 283 355 c 0
 285 354 287 354 289 354 c 0
 291 354 292 353 295 355 c 0
 335 381 361 421 361 475 c 0xd8
 361 532 325 594 266 594 c 0
271 628 m 0
 358 628 432 575 432 484 c 0xd8
 432 408 367 364 322 336 c 1
 318 335 319 332 322 330 c 0
 381 297 450 233 450 163 c 0
 450 65 362 -9 264 -9 c 0
 157 -9 82 55 82 150 c 0xe4
 82 236 171 287 209 311 c 0
 212 313 211 315 209 316 c 0
 168 340 109 397 109 469 c 0
 109 552 185 628 271 628 c 0
EndSplineSet
Substitution2: "'pnum' Proportional Numbers lookup 12-1" eight.prop
Substitution2: "'onum' Oldstyle Figures lookup 3-1" eight.onum
Substitution2: "'ordn' Ordinals lookup 0-1" eight.ordn
EndChar
StartChar: nine
Encoding: 57 57 24
Width: 1090
Flags: HW
LayerCount: 2
Fore
SplineSet
764 670 m 1
 769.33 707.33 772 752.67 772 806 c 0
 772 852.67 767 900 757 948 c 128
 747 996 732.83 1041.33 714.5 1084 c 128
 696.17 1126.67 671.33 1161.33 640 1188 c 128
 608.67 1214.67 574 1228 536 1228 c 0
 473.33 1228 421.33 1198.17 380 1138.5 c 128
 338.67 1078.83 318 1004 318 914 c 0
 318 854 326 800.5 342 753.5 c 128
 358 706.5 385.33 667.5 424 636.5 c 128
 462.67 605.5 510.67 590 568 590 c 0
 650 590 715.33 616.67 764 670 c 1
192 46 m 1
 496.67 144 682 322.67 748 582 c 1
 714.67 554 676 532 632 516 c 128
 588 500 548 492 512 492 c 0
 458.67 492 410.33 500.83 367 518.5 c 128
 323.67 536.17 288.83 558.5 262.5 585.5 c 128
 236.17 612.5 214 643.67 196 679 c 128
 178 714.33 165.5 748.17 158.5 780.5 c 128
 151.5 812.83 148 844.67 148 876 c 0
 148 989.33 187.17 1087.33 265.5 1170 c 128
 343.83 1252.67 439.33 1294 552 1294 c 0
 610 1294 664.17 1280.67 714.5 1254 c 128
 764.83 1227.33 806.33 1192.33 839 1149 c 128
 871.67 1105.67 897.33 1057.33 916 1004 c 128
 934.67 950.67 944 896.67 944 842 c 0
 944 739.33 927.67 642.5 895 551.5 c 128
 862.33 460.5 814.67 380.67 752 312 c 0
 684 237.33 599.83 170.5 499.5 111.5 c 128
 399.17 52.5 304.67 11.33 216 -12 c 1
 208 -12 202 -4.83 198 9.5 c 128
 194 23.83 192 36 192 46 c 1
EndSplineSet
Substitution2: "'pnum' Proportional Numbers lookup 12-1" nine.prop
Substitution2: "'onum' Oldstyle Figures lookup 3-1" nine.onum
EndChar
StartChar: colon
Encoding: 58 58 25
Width: 220
Flags: W
HStem: -11 107<69 153> 313 107<69 153>
VStem: 57 107<1 85 325 410>
LayerCount: 2
Fore
SplineSet
57 44 m 0
 57 73 82 97 111 97 c 0
 140 97 164 73 164 44 c 0
 164 15 140 -11 111 -11 c 0
 82 -11 57 15 57 44 c 0
57 368 m 0
 57 397 82 421 111 421 c 0
 140 421 164 397 164 368 c 0
 164 339 140 313 111 313 c 0
 82 313 57 339 57 368 c 0
EndSplineSet
Substitution2: "'smcp' Lowercase to Small Capitals lookup 2-1" colon.sc
EndChar
StartChar: semicolon
Encoding: 59 59 26
Width: 226
Flags: HW
LayerCount: 2
Fore
SplineSet
124 120 m 0
 133 120 141 118 149 113 c 1
 161 93 167 70 167 45 c 0
 167 18 154 -15 128 -55 c 128
 102 -95 77 -122 52 -136 c 1
 49 -136 45 -133 42 -128 c 128
 39 -123 37 -118 37 -115 c 1
 44 -109 51 -104 56 -100 c 128
 61 -96 67 -89 75 -80 c 128
 83 -71 89 -59 93 -47 c 128
 97 -35 99 -22 99 -7 c 0
 99 3 94 16 83 31 c 128
 72 46 66 59 66 72 c 0
 66 83 72 95 83 105 c 128
 94 115 107 120 124 120 c 0
60 368 m 128
 60 383 65 396 76 406 c 128
 87 416 99 421 114 421 c 128
 129 421 142 416 152 406 c 128
 162 396 167 383 167 368 c 128
 167 353 162 341 152 330 c 128
 142 319 129 313 114 313 c 128
 99 313 87 319 76 330 c 128
 65 341 60 353 60 368 c 128
EndSplineSet
Substitution2: "'smcp' Lowercase to Small Capitals lookup 2-1" semicolon.sc
EndChar
StartChar: less
Encoding: 60 60 27
Width: 984
Flags: HW
LayerCount: 2
Fore
SplineSet
888 70 m 0
 888 60.6666666667 884 41.6666666667 876 13 c 128
 868 -15.6666666667 861.333333333 -30 856 -30 c 0
 854.666666667 -30 851.333333333 -28.6666666667 846 -26 c 2
 96 354 l 2
 72 366.666666667 60 393.333333333 60 434 c 0
 60 454 72 470 96 482 c 2
 834 856 l 2
 839.333333333 858.666666667 842.666666667 860 844 860 c 0
 854.666666667 860 866 828.666666667 878 766 c 0
 878.666666667 762.666666667 878.5 759.5 877.5 756.5 c 128
 876.5 753.5 875.333333333 751.333333333 874 750 c 2
 872 748 l 1
 220 418 l 1
 882 82 l 2
 886 80.6666666667 888 76.6666666667 888 70 c 0
EndSplineSet
Substitution2: "'smcp' Lowercase to Small Capitals lookup 2-1" less.sc
EndChar
StartChar: equal
Encoding: 61 61 28
Width: 1130
Flags: HW
LayerCount: 2
Fore
SplineSet
957 240 m 1
 145 240 l 1
 138.33 242.67 135.5 251.5 136.5 266.5 c 128
 137.5 281.5 142.33 298.33 151 317 c 128
 159.67 335.67 168.33 346.67 177 350 c 1
 983 350 l 1
 991 347.33 994.83 338.83 994.5 324.5 c 128
 994.17 310.17 990 293.67 982 275 c 128
 974 256.33 965.67 244.67 957 240 c 1
957 528 m 1
 145 528 l 1
 138.33 530.67 135.5 539.5 136.5 554.5 c 128
 137.5 569.5 142.33 586.33 151 605 c 128
 159.67 623.67 168.33 634.67 177 638 c 1
 983 638 l 1
 991 635.33 994.83 626.83 994.5 612.5 c 128
 994.17 598.17 990 581.67 982 563 c 128
 974 544.33 965.67 532.67 957 528 c 1
EndSplineSet
Substitution2: "'smcp' Lowercase to Small Capitals lookup 2-1" equal.sc
EndChar
StartChar: greater
Encoding: 62 62 29
Width: 481
Flags: W
HStem: 400 20G<66 69>
LayerCount: 2
Fore
SplineSet
47 34 m 0
 47 38 50 40 50 40 c 1
 373 204 l 1
 56 365 l 1
 56 365 53 366 53 373 c 0
 53 391 64 420 68 420 c 0
 69 420 71 419 73 418 c 2
 435 235 l 2
 445 230 451 223 451 212 c 0
 451 195 450 181 435 173 c 2
 68 -13 l 2
 66 -14 64 -15 63 -15 c 0
 57 -15 47 26 47 34 c 0
EndSplineSet
Substitution2: "'smcp' Lowercase to Small Capitals lookup 2-1" greater.sc
EndChar
StartChar: question
Encoding: 63 63 30
Width: 347
Flags: HW
LayerCount: 2
Fore
SplineSet
62 44 m 128
 62 59 67 71 78 81 c 128
 89 91 101 97 116 97 c 128
 131 97 144 91 154 81 c 128
 164 71 169 59 169 44 c 128
 169 29 164 17 154 6 c 128
 144 -5 131 -11 116 -11 c 128
 101 -11 89 -5 78 6 c 128
 67 17 62 29 62 44 c 128
98 535 m 0
 89 535 80 540 70 549 c 128
 60 558 55 570 55 584 c 0
 55 600 57 612 63 620 c 1
 72 625 88 627 110 627 c 0
 123 627 138 624 155 619 c 128
 172 614 189 606 206 596 c 128
 223 586 240 574 254 560 c 128
 268 546 280 529 289 509 c 128
 298 489 303 468 303 446 c 0
 303 412 296 385 281 362 c 128
 266 339 240 318 204 297 c 0
 190 289 175 278 158 264 c 128
 141 250 131 241 128 236 c 0
 126 232 125 227 124 221 c 128
 123 215 122 209 122 205 c 128
 122 201 122 194 122 185 c 128
 122 176 122 170 122 168 c 1
 118 160 113 156 106 155 c 1
 100 158 96 161 94 166 c 1
 89 188 86 218 86 255 c 0
 86 268 88 280 91 291 c 128
 94 302 98 312 102 319 c 128
 106 326 113 334 121 341 c 128
 129 348 135 353 140 357 c 128
 145 361 152 366 162 372 c 0
 165 374 168 375 169 376 c 0
 182 384 192 390 197 394 c 128
 202 398 210 403 219 410 c 128
 228 417 235 424 239 429 c 128
 243 434 246 442 249 450 c 128
 252 458 254 467 254 476 c 0
 254 500 246 520 232 534 c 128
 218 548 202 556 182 556 c 128
 162 556 145 552 130 545 c 128
 115 538 104 535 98 535 c 0
EndSplineSet
Substitution2: "'smcp' Lowercase to Small Capitals lookup 2-1" question.sc
EndChar
StartChar: at
Encoding: 64 64 31
Width: 1496
Flags: HW
LayerCount: 2
Fore
SplineSet
836 1156 m 0
 912 1156 982.333333333 1144.66666667 1047 1122 c 128
 1111.66666667 1099.33333333 1166.83333333 1068.33333333 1212.5 1029 c 128
 1258.16666667 989.666666667 1297.16666667 943.833333333 1329.5 891.5 c 128
 1361.83333333 839.166666667 1385.66666667 783.333333333 1401 724 c 128
 1416.33333333 664.666666667 1424 603.333333333 1424 540 c 0
 1424 439.333333333 1406.16666667 346.666666667 1370.5 262 c 128
 1334.83333333 177.333333333 1285.33333333 110.166666667 1222 60.5 c 128
 1158.66666667 10.8333333333 1088.66666667 -14 1012 -14 c 0
 960.666666667 -14 920.166666667 0 890.5 28 c 128
 860.833333333 56 846 99.3333333333 846 158 c 0
 846 194.666666667 850.666666667 225.333333333 860 250 c 1
 848.666666667 228.666666667 833.666666667 204.5 815 177.5 c 128
 796.333333333 150.5 774.333333333 122.333333333 749 93 c 128
 723.666666667 63.6666666667 695.666666667 39.1666666667 665 19.5 c 128
 634.333333333 -0.166666666667 605.333333333 -10 578 -10 c 0
 518.666666667 -10 472.166666667 16.3333333333 438.5 69 c 128
 404.833333333 121.666666667 388 185.333333333 388 260 c 0
 388 331.333333333 405.166666667 404 439.5 478 c 128
 473.833333333 552 517.666666667 617.666666667 571 675 c 128
 624.333333333 732.333333333 685.833333333 779.166666667 755.5 815.5 c 128
 825.166666667 851.833333333 893.333333333 870 960 870 c 0
 1010 870 1058.66666667 861.333333333 1106 844 c 1
 984 212 l 1
 980 196 978 179.333333333 978 162 c 0
 978 131.333333333 986.833333333 108.666666667 1004.5 94 c 128
 1022.16666667 79.3333333333 1045.33333333 72 1074 72 c 0
 1105.33333333 72 1137.16666667 84.5 1169.5 109.5 c 128
 1201.83333333 134.5 1230.83333333 167.5 1256.5 208.5 c 128
 1282.16666667 249.5 1303.16666667 298.833333333 1319.5 356.5 c 128
 1335.83333333 414.166666667 1344 473.333333333 1344 534 c 0
 1344 589.333333333 1337.66666667 642.833333333 1325 694.5 c 128
 1312.33333333 746.166666667 1292.33333333 795.166666667 1265 841.5 c 128
 1237.66666667 887.833333333 1204.5 928.333333333 1165.5 963 c 128
 1126.5 997.666666667 1078.66666667 1025.16666667 1022 1045.5 c 128
 965.333333333 1065.83333333 903.333333333 1076 836 1076 c 0
 756.666666667 1076 681.666666667 1061.66666667 611 1033 c 128
 540.333333333 1004.33333333 479.166666667 965.666666667 427.5 917 c 128
 375.833333333 868.333333333 330.833333333 812.5 292.5 749.5 c 128
 254.166666667 686.5 225.5 620 206.5 550 c 128
 187.5 480 178 410 178 340 c 0
 178 228.666666667 203.166666667 129.333333333 253.5 42 c 128
 303.833333333 -45.3333333333 367.333333333 -111.333333333 444 -156 c 0
 494.666666667 -185.333333333 544.666666667 -204 594 -212 c 1
 594 -219.333333333 585.166666667 -227.166666667 567.5 -235.5 c 128
 549.833333333 -243.833333333 534.666666667 -248 522 -248 c 0
 490.666666667 -248 464.666666667 -244 444 -236 c 0
 348 -200.666666667 266.333333333 -129.833333333 199 -23.5 c 128
 131.666666667 82.8333333333 98 204 98 340 c 0
 98 418.666666667 108.5 497 129.5 575 c 128
 150.5 653 182.166666667 726.833333333 224.5 796.5 c 128
 266.833333333 866.166666667 317 927.833333333 375 981.5 c 128
 433 1035.16666667 501.833333333 1077.66666667 581.5 1109 c 128
 661.166666667 1140.33333333 746 1156 836 1156 c 0
876 778 m 3
 838.666666667 778 799.5 763.833333333 758.5 735.5 c 128
 717.5 707.166666667 680.666666667 670.833333333 648 626.5 c 128
 615.333333333 582.166666667 588.5 531 567.5 473 c 128
 546.5 415 536 358 536 302 c 0
 536 171.333333333 570 106 638 106 c 0
 670 106 705.833333333 129.5 745.5 176.5 c 128
 785.166666667 223.5 820.666666667 281.166666667 852 349.5 c 128
 883.333333333 417.833333333 905.333333333 484 918 548 c 2
 958 752 l 1
 942.666666667 769.333333333 915.333333333 778 876 778 c 3
EndSplineSet
Substitution2: "'smcp' Lowercase to Small Capitals lookup 2-1" at.sc
EndChar
StartChar: A
Encoding: 65 65 32
Width: 1254
Flags: HW
LayerCount: 2
Fore
SplineSet
190 278 m 0
 366 730.67 494.67 1060.67 576 1268 c 1
 581.33 1278 593.17 1290.17 611.5 1304.5 c 128
 629.83 1318.83 643.33 1326 652 1326 c 0
 654 1326 656.17 1325.17 658.5 1323.5 c 128
 660.83 1321.83 662.67 1320.67 664 1320 c 1
 1071 252 l 2
 1104.33 166 1121.33 122 1122 120 c 0
 1130.67 99.33 1151.5 82.83 1184.5 70.5 c 128
 1217.5 58.17 1242 52 1258 52 c 1
 1262 46 1264 36.17 1264 22.5 c 128
 1264 8.83 1263.33 -0.67 1262 -6 c 1
 1128.67 0.67 1055.33 4 1042 4 c 0
 1014.67 4 989.17 3.5 965.5 2.5 c 128
 941.83 1.5 915.33 0 886 -2 c 128
 856.67 -4 831.33 -5.33 810 -6 c 1
 805.33 -0.67 803.17 9 803.5 23 c 128
 803.83 37 806.67 46.67 812 52 c 1
 827.33 52 847.83 54.5 873.5 59.5 c 128
 899.17 64.5 916 70.67 924 78 c 0
 929.33 83.33 932 92.67 932 106 c 0
 932 124 920.67 165.5 898 230.5 c 128
 875.33 295.5 852.67 356 830 412 c 2
 796 496 l 1
 792 501.33 788 504 784 504 c 0
 766.67 505.33 700.67 506 586 506 c 0
 502 506 430 504 370 500 c 1
 360 494 l 1
 322.67 395.33 292.67 314 270 250 c 0
 251.33 195.33 242 148 242 108 c 0
 242 96.67 248.17 87 260.5 79 c 128
 272.83 71 287.83 65.17 305.5 61.5 c 128
 323.17 57.83 338.33 55.33 351 54 c 128
 363.67 52.67 373.33 52 380 52 c 1
 382.67 49.33 384.5 40.5 385.5 25.5 c 128
 386.5 10.5 386 0 384 -6 c 1
 364.67 -5.33 343.67 -4 321 -2 c 128
 298.33 0 277.33 1.5 258 2.5 c 128
 238.67 3.5 216 4 190 4 c 0
 162.67 4 138.5 3.5 117.5 2.5 c 128
 96.5 1.5 73.33 0 48 -2 c 128
 22.67 -4 -1.33 -5.33 -24 -6 c 1
 -26.67 -3.33 -28 5.33 -28 20 c 128
 -28 34.67 -26.67 45.33 -24 52 c 1
 -7.33 52 14.67 55.5 42 62.5 c 128
 69.33 69.5 87.33 78.67 96 90 c 0
 124 126.67 155.33 189.33 190 278 c 0
582 1084 m 1
 398 596 l 1
 398 590.67 399.33 588 402 588 c 0
 471.33 585.33 532 584 584 584 c 0
 634 584 690 586 752 590 c 0
 753.33 590 754.5 590.83 755.5 592.5 c 128
 756.5 594.17 757.17 595.83 757.5 597.5 c 2
 758 600 l 1
 582 1084 l 1
EndSplineSet
EndChar
StartChar: B
Encoding: 66 66 33
Width: 1192
Flags: HW
LayerCount: 2
Fore
SplineSet
413 664 m 1
 413 230 l 1
 412.33 210.67 413.67 184.67 417 152 c 128
 420.33 119.33 425 100 431 94 c 0
 445 79.33 464.17 69.67 488.5 65 c 128
 512.83 60.33 546.33 58 589 58 c 0
 801 58 907 156 907 352 c 0
 907 560 783 664 535 664 c 2
 413 664 l 1
413 740 m 1
 580 740 l 2
 663.33 740 726 763 768 809 c 128
 810 855 831 910 831 974 c 0
 831 1062 803.17 1130.67 747.5 1180 c 128
 691.83 1229.33 617 1254 523 1254 c 0
 462.33 1254 429 1247.33 423 1234 c 0
 415 1214.67 411.67 1164.67 413 1084 c 1
 413 740 l 1
611 1318 m 0
 649.67 1318 687 1315 723 1309 c 128
 759 1303 795 1292.83 831 1278.5 c 128
 867 1264.17 898.17 1246 924.5 1224 c 128
 950.83 1202 972.17 1173.5 988.5 1138.5 c 128
 1004.83 1103.5 1013 1064 1013 1020 c 0
 1013 951.33 990.5 890 945.5 836 c 128
 900.5 782 855.67 746.67 811 730 c 0
 805 727.33 805 724 811 720 c 1
 837 718.67 866.33 710.33 899 695 c 128
 931.67 679.67 963.5 658.83 994.5 632.5 c 128
 1025.5 606.17 1051.67 572.17 1073 530.5 c 128
 1094.33 488.83 1105 444.67 1105 398 c 0
 1105 276 1060 177.33 970 102 c 0
 886.67 32.67 747 -3.33 551 -6 c 1
 91 -6 l 1
 86.33 -0.67 84.17 9 84.5 23 c 128
 84.83 37 87 46.67 91 52 c 1
 111 52 138.33 55 173 61 c 128
 207.67 67 226.33 74.67 229 84 c 0
 235.67 105.33 239 154.67 239 232 c 2
 239 1086 l 2
 239 1163.33 235.67 1212.67 229 1234 c 0
 226.33 1243.33 207.67 1251 173 1257 c 128
 138.33 1263 111 1266 91 1266 c 1
 87 1271.33 84.83 1281 84.5 1295 c 128
 84.17 1309 86.33 1318.67 91 1324 c 1
 227.67 1317.33 306.33 1314 327 1314 c 0
 349.67 1314 392 1314.67 454 1316 c 128
 516 1317.33 568.33 1318 611 1318 c 0
EndSplineSet
EndChar
StartChar: C
Encoding: 67 67 34
Width: 658
Flags: W
HStem: -6 32<311 478> 619 32<307 475>
VStem: 47 97<207 437> 573 33<474 526> 586 31<137 182>
LayerCount: 2
Fore
SplineSet
377 651 m 0xe8
 441 651 512 647 584 631 c 1
 584 631 606 496 606 486 c 1
 607 480 595 474 585 474 c 0
 579 474 576 475 573 477 c 1xf0
 567 507 545 619 382 619 c 0
 237 619 144 472 144 335 c 0
 144 183 227 26 397 26 c 0
 457 26 498 48 526 73 c 0
 564 107 579 155 586 187 c 1
 596 188 608 185 617 179 c 1
 617 159 597 50 583 38 c 1
 529 8 463 -6 373 -6 c 0
 180 -6 47 141 47 314 c 0
 47 497 185 651 377 651 c 0xe8
EndSplineSet
EndChar
StartChar: D
Encoding: 68 68 35
Width: 1420
Flags: HW
LayerCount: 2
Fore
SplineSet
415 1082 m 1
 415 230 l 2
 415 143.333333333 419 95.3333333333 427 86 c 1
 440.333333333 67.3333333333 495 58 591 58 c 0
 663.666666667 58 731.333333333 69.5 794 92.5 c 128
 856.666666667 115.5 912.666666667 149.666666667 962 195 c 128
 1011.33333333 240.333333333 1050.16666667 299.833333333 1078.5 373.5 c 128
 1106.83333333 447.166666667 1121 531.333333333 1121 626 c 0
 1121 714 1110.83333333 793.5 1090.5 864.5 c 128
 1070.16666667 935.5 1042.66666667 994.666666667 1008 1042 c 128
 973.333333333 1089.33333333 932 1129 884 1161 c 128
 836 1193 785.333333333 1216.16666667 732 1230.5 c 128
 678.666666667 1244.83333333 622.333333333 1252 563 1252 c 0
 475.666666667 1252 429.666666667 1244.66666667 425 1230 c 0
 417 1204.66666667 413.666666667 1155.33333333 415 1082 c 1
617 1316 m 0
 724.333333333 1316 822.333333333 1299.5 911 1266.5 c 128
 999.666666667 1233.5 1073.66666667 1188.16666667 1133 1130.5 c 128
 1192.33333333 1072.83333333 1238.16666667 1004.33333333 1270.5 925 c 128
 1302.83333333 845.666666667 1319 760 1319 668 c 0
 1319 596.666666667 1312 529.666666667 1298 467 c 128
 1284 404.333333333 1259.5 343.5 1224.5 284.5 c 128
 1189.5 225.5 1145.16666667 175 1091.5 133 c 128
 1037.83333333 91 968.333333333 57.3333333333 883 32 c 128
 797.666666667 6.66666666667 700.333333333 -6 591 -6 c 2
 91 -6 l 1
 86.3333333333 -0.666666666667 84.1666666667 9 84.5 23 c 128
 84.8333333333 37 87 46.6666666667 91 52 c 1
 111 52 138.333333333 55 173 61 c 128
 207.666666667 67 226.333333333 74.6666666667 229 84 c 0
 235.666666667 105.333333333 239 154.666666667 239 232 c 2
 239 1086 l 2
 239 1163.33333333 235.666666667 1212.66666667 229 1234 c 0
 226.333333333 1243.33333333 207.666666667 1251 173 1257 c 128
 138.333333333 1263 111 1266 91 1266 c 1
 87 1271.33333333 84.8333333333 1281 84.5 1295 c 128
 84.1666666667 1309 86.3333333333 1318.66666667 91 1324 c 1
 227.666666667 1317.33333333 306.333333333 1314 327 1314 c 0
 352.333333333 1314 399.5 1314.33333333 468.5 1315 c 128
 537.5 1315.66666667 587 1316 617 1316 c 0
EndSplineSet
EndChar
StartChar: E
Encoding: 69 69 36
Width: 1174
Flags: HW
LayerCount: 2
Fore
SplineSet
327 1314 m 0
 387 1314 490.5 1316.33333333 637.5 1321 c 128
 784.5 1325.66666667 895.666666667 1328 971 1328 c 1
 976.333333333 1289.33333333 986.5 1238.33333333 1001.5 1175 c 128
 1016.5 1111.66666667 1025.66666667 1072 1029 1056 c 1
 1022.33333333 1049.33333333 1010.33333333 1046 993 1046 c 0
 976.333333333 1046 967 1050.66666667 965 1060 c 0
 944.333333333 1134 915.5 1183.83333333 878.5 1209.5 c 128
 841.5 1235.16666667 793 1248 733 1248 c 2
 561 1248 l 2
 473.666666667 1248 427.666666667 1240.66666667 423 1226 c 0
 415 1200.66666667 411.666666667 1153.33333333 413 1084 c 1
 413 710 l 1
 412.333333333 705.333333333 420 702.166666667 436 700.5 c 128
 452 698.833333333 473 698 499 698 c 2
 605 698 l 2
 638.333333333 698 664.333333333 698.333333333 683 699 c 128
 701.666666667 699.666666667 719.166666667 701.666666667 735.5 705 c 128
 751.833333333 708.333333333 763.666666667 712.666666667 771 718 c 128
 778.333333333 723.333333333 785.333333333 730.833333333 792 740.5 c 128
 798.666666667 750.166666667 803.833333333 761.666666667 807.5 775 c 128
 811.166666667 788.333333333 815.543038641 804.963507731 820.629115923 824.890523192 c 0
 822.209705308 832.296841064 823.666666667 838 825 842 c 0
 827 851.333333333 837 856 855 856 c 0
 871 856 882.333333333 852.666666667 889 846 c 1
 889 468 l 1
 883.666666667 462.666666667 873 460 857 460 c 0
 839.666666667 460 829 465.333333333 825 476 c 1
 811 528.666666667 800.666666667 562.166666667 794 576.5 c 128
 787.333333333 590.833333333 779 601.333333333 769 608 c 0
 752.333333333 618.666666667 681.666666667 624 557 624 c 0
 537 624 537 624 526 624 c 128
 518.666666667 624 508.333333333 623.833333333 495 623.5 c 128
 481.666666667 623.166666667 471 622.666666667 463 622 c 128
 455 621.333333333 446.666666667 620.333333333 438 619 c 128
 429.333333333 617.666666667 423 615.833333333 419 613.5 c 128
 415 611.166666667 413 608.666666667 413 606 c 2
 413 226 l 1
 412.333333333 202.666666667 412.833333333 175 414.5 143 c 128
 416.166666667 111 419.666666667 92.6666666667 425 88 c 0
 437 78.6666666667 451.833333333 73 469.5 71 c 128
 487.166666667 69 519.666666667 68 567 68 c 2
 663 68 l 2
 711 68 758.166666667 72.8333333333 804.5 82.5 c 128
 850.833333333 92.1666666667 887.666666667 105.333333333 915 122 c 0
 943.666666667 139.333333333 966.666666667 163.5 984 194.5 c 128
 1001.33333333 225.5 1020.33333333 268.666666667 1041 324 c 1
 1043 332 1052.33333333 336 1069 336 c 0
 1094.33333333 336 1111 332 1119 324 c 1
 1113 306.666666667 1103 279 1089 241 c 128
 1075 203 1063.83333333 172.166666667 1055.5 148.5 c 128
 1047.16666667 124.833333333 1038.5 98 1029.5 68 c 128
 1020.5 38 1014.33333333 12.6666666667 1011 -8 c 1
 942.333333333 -8 834.666666667 -6.66666666667 688 -4 c 128
 541.333333333 -1.33333333333 421.666666667 0 329 0 c 0
 296.333333333 0 254.666666667 -1 204 -3 c 128
 153.333333333 -5 115.666666667 -6 91 -6 c 1
 86.3333333333 -0.666666666667 84.1666666667 9 84.5 23 c 128
 84.8333333333 37 87 46.6666666667 91 52 c 1
 111 52 138.333333333 55 173 61 c 128
 207.666666667 67 226.333333333 74.6666666667 229 84 c 0
 235.666666667 105.333333333 239 154.666666667 239 232 c 2
 239 1086 l 2
 239 1163.33333333 235.666666667 1212.66666667 229 1234 c 0
 226.333333333 1243.33333333 207.666666667 1251 173 1257 c 128
 138.333333333 1263 111 1266 91 1266 c 1
 87 1271.33333333 84.8333333333 1281 84.5 1295 c 128
 84.1666666667 1309 86.3333333333 1318.66666667 91 1324 c 1
 227.666666667 1317.33333333 306.333333333 1314 327 1314 c 0
EndSplineSet
EndChar
StartChar: F
Encoding: 70 70 37
Width: 1070
Flags: HW
LayerCount: 2
Fore
SplineSet
327 1314 m 0
 387 1314 490.5 1316.33 637.5 1321 c 128
 784.5 1325.67 895.67 1328 971 1328 c 1
 976.33 1289.33 986.5 1238.33 1001.5 1175 c 128
 1016.5 1111.67 1025.67 1072 1029 1056 c 1
 1022.33 1049.33 1010.33 1046 993 1046 c 0
 976.33 1046 967 1050.67 965 1060 c 0
 944.33 1134 915.5 1183.83 878.5 1209.5 c 128
 841.5 1235.17 793 1248 733 1248 c 2
 561 1248 l 2
 473.67 1248 427.67 1240.67 423 1226 c 0
 416.33 1204.67 413 1157.33 413 1084 c 2
 413 710 l 1
 412.33 705.33 420 702.17 436 700.5 c 128
 452 698.83 473 698 499 698 c 2
 605 698 l 2
 638.33 698 664.33 698.33 683 699 c 128
 701.67 699.67 719.17 701.67 735.5 705 c 128
 751.83 708.33 763.67 712.67 771 718 c 128
 778.33 723.33 785.33 730.83 792 740.5 c 128
 798.67 750.17 803.83 761.67 807.5 775 c 128
 811.17 788.33 815.54 804.96 820.63 824.89 c 0
 822.21 832.3 823.67 838 825 842 c 0
 827 851.33 837 856 855 856 c 0
 871 856 882.33 852.67 889 846 c 1
 889 468 l 1
 883.67 462.67 873 460 857 460 c 0
 839.67 460 829 465.33 825 476 c 1
 811 528.67 800.67 562.17 794 576.5 c 128
 787.33 590.83 779 601.33 769 608 c 0
 752.33 618.67 681.67 624 557 624 c 0
 461 624 413 618 413 606 c 2
 413 232 l 2
 413 154.67 416.33 105.33 423 84 c 0
 425.67 74.67 447.17 67 487.5 61 c 128
 527.83 55 559 52 581 52 c 1
 585 46.67 587.17 37 587.5 23 c 128
 587.83 9 585.67 -0.67 581 -6 c 1
 444.33 0.67 359.67 4 327 4 c 128
 294.33 4 253 2.33 203 -1 c 128
 153 -4.33 115.67 -6 91 -6 c 1
 86.33 -0.67 84.17 9 84.5 23 c 128
 84.83 37 87 46.67 91 52 c 1
 111 52 138.33 55 173 61 c 128
 207.67 67 226.33 74.67 229 84 c 0
 235.67 105.33 239 154.67 239 232 c 2
 239 1086 l 2
 239 1163.33 235.67 1212.67 229 1234 c 0
 226.33 1243.33 207.67 1251 173 1257 c 128
 138.33 1263 111 1266 91 1266 c 1
 87 1271.33 84.83 1281 84.5 1295 c 128
 84.17 1309 86.33 1318.67 91 1324 c 1
 227.67 1317.33 306.33 1314 327 1314 c 0
EndSplineSet
EndChar
StartChar: G
Encoding: 71 71 38
Width: 1440
Flags: HW
LayerCount: 2
Fore
SplineSet
1070 350 m 2
 1070 427.333333333 1066.66666667 476.666666667 1060 498 c 0
 1057.33333333 507.333333333 1039 515 1005 521 c 128
 971 527 944 530 924 530 c 1
 920 535.333333333 917.833333333 545 917.5 559 c 128
 917.166666667 573 919.333333333 582.666666667 924 588 c 1
 1060.66666667 581.333333333 1138.66666667 578 1158 578 c 0
 1170.66666667 578 1245.33333333 581.333333333 1382 588 c 1
 1386.66666667 582.666666667 1388.83333333 573 1388.5 559 c 128
 1388.16666667 545 1386 535.333333333 1382 530 c 1
 1362.66666667 530 1336.83333333 527 1304.5 521 c 128
 1272.16666667 515 1254.66666667 507.333333333 1252 498 c 0
 1245.33333333 476.666666667 1242 427.333333333 1242 350 c 2
 1242 208 l 2
 1242 192 1245.33333333 175.833333333 1252 159.5 c 128
 1258.66666667 143.166666667 1262 132.666666667 1262 128 c 0
 1262 122 1259.5 116.666666667 1254.5 112 c 128
 1249.5 107.333333333 1238.66666667 100.666666667 1222 92 c 0
 1182 70.6666666667 1148.5 54.1666666667 1121.5 42.5 c 128
 1094.5 30.8333333333 1048.5 18.8333333333 983.5 6.5 c 128
 918.5 -5.83333333333 845.333333333 -12 764 -12 c 0
 667.333333333 -12 577 5.66666666667 493 41 c 128
 409 76.3333333333 338.333333333 123.666666667 281 183 c 128
 223.666666667 242.333333333 178.5 312 145.5 392 c 128
 112.5 472 96 556 96 644 c 0
 96 736.666666667 113 825.166666667 147 909.5 c 128
 181 993.833333333 227.333333333 1067.16666667 286 1129.5 c 128
 344.666666667 1191.83333333 416.333333333 1241.5 501 1278.5 c 128
 585.666666667 1315.5 676 1334 772 1334 c 0
 925.333333333 1334 1066.66666667 1320 1196 1292 c 1
 1226.66666667 1108 1242 1009.33333333 1242 996 c 1
 1242.66666667 990 1238 984.166666667 1228 978.5 c 128
 1218 972.833333333 1208 970 1198 970 c 128
 1188 970 1180 972 1174 976 c 1
 1136 1170.66666667 1005.33333333 1268 782 1268 c 0
 687.333333333 1268 602 1238.66666667 526 1180 c 128
 450 1121.33333333 392.333333333 1048 353 960 c 128
 313.666666667 872 294 780.666666667 294 686 c 0
 294 622.666666667 300.666666667 560.833333333 314 500.5 c 128
 327.333333333 440.166666667 348.166666667 383 376.5 329 c 128
 404.833333333 275 439.166666667 227.666666667 479.5 187 c 128
 519.833333333 146.333333333 568.666666667 114 626 90 c 128
 683.333333333 66 746 54 814 54 c 0
 890 54 970.666666667 75.3333333333 1056 118 c 0
 1065.33333333 122.666666667 1070 132.666666667 1070 148 c 2
 1070 350 l 2
EndSplineSet
EndChar
StartChar: H
Encoding: 72 72 39
Width: 708
Flags: W
HStem: -3 31<42 112 206 276 433 503 598 668> 317 33<203 508> 615 31<42 112 206 276 433 503 598 668>
VStem: 117 85<35 311 354 609> 508 85<35 313 354 609>
LayerCount: 2
Fore
SplineSet
160 642 m 0
 198 642 234 644 274 646 c 1
 279 641 278 620 274 615 c 1
 262 615 209 611 206 600 c 0
 201 584 202 556 202 527 c 2
 202 356 l 1
 202 354 204 354 204 354 c 1
 252 353 302 351 357 351 c 0
 403 351 462 353 506 354 c 1
 506 354 508 355 508 357 c 0
 508 527 l 2
 508 556 508 584 503 600 c 0
 500 611 448 615 436 615 c 1
 432 620 431 641 436 646 c 1
 476 644 513 642 551 642 c 0
 589 642 625 644 665 646 c 1
 670 641 669 620 665 615 c 1
 653 615 601 611 598 600 c 0
 593 584 593 556 593 527 c 2
 593 116 l 2
 593 87 593 60 598 44 c 0
 601 33 653 28 665 28 c 1
 669 23 670 2 665 -3 c 1
 625 -1 589 2 551 2 c 0
 513 2 476 -1 436 -3 c 1
 431 2 432 23 436 28 c 1
 448 28 500 33 503 44 c 0
 508 60 508 87 508 116 c 2
 508 310 l 1
 508 312 506 313 506 313 c 1
 460 314 407 317 357 317 c 0
 221 317 207 314 203 312 c 1
 202 311 202 310 202 310 c 1
 202 116 l 2
 202 87 201 60 206 44 c 0
 209 33 262 28 274 28 c 1
 278 23 279 2 274 -3 c 1
 234 -1 198 2 160 2 c 0
 122 2 84 -1 44 -3 c 1
 39 2 40 23 44 28 c 1
 56 28 109 33 112 44 c 0
 117 60 117 87 117 116 c 2
 117 527 l 2
 117 556 117 584 112 600 c 0
 109 611 56 615 44 615 c 1
 40 620 39 641 44 646 c 1
 84 644 122 642 160 642 c 0
EndSplineSet
EndChar
StartChar: I
Encoding: 73 73 40
Width: 648
Flags: HW
LayerCount: 2
Fore
SplineSet
327 1314 m 0
 346.333333333 1314 424.333333333 1317.33333333 561 1324 c 1
 565.666666667 1318.66666667 567.833333333 1309 567.5 1295 c 128
 567.166666667 1281 565 1271.33333333 561 1266 c 1
 541 1266 513.666666667 1263 479 1257 c 128
 444.333333333 1251 425.666666667 1243.33333333 423 1234 c 0
 416.333333333 1212.66666667 413 1163.33333333 413 1086 c 2
 413 232 l 2
 413 154.666666667 416.333333333 105.333333333 423 84 c 0
 425.666666667 74.6666666667 444.333333333 67 479 61 c 128
 513.666666667 55 541 52 561 52 c 1
 565 46.6666666667 567.166666667 37 567.5 23 c 128
 567.833333333 9 565.666666667 -0.666666666667 561 -6 c 1
 424.333333333 0.666666666667 346.333333333 4 327 4 c 0
 306.333333333 4 227.666666667 0.666666666667 91 -6 c 1
 86.3333333333 -0.666666666667 84.1666666667 9 84.5 23 c 128
 84.8333333333 37 87 46.6666666667 91 52 c 1
 111 52 138.333333333 55 173 61 c 128
 207.666666667 67 226.333333333 74.6666666667 229 84 c 0
 235.666666667 105.333333333 239 154.666666667 239 232 c 2
 239 1086 l 2
 239 1163.33333333 235.666666667 1212.66666667 229 1234 c 0
 226.333333333 1243.33333333 207.666666667 1251 173 1257 c 128
 138.333333333 1263 111 1266 91 1266 c 1
 87 1271.33333333 84.8333333333 1281 84.5 1295 c 128
 84.1666666667 1309 86.3333333333 1318.66666667 91 1324 c 1
 227.666666667 1317.33333333 306.333333333 1314 327 1314 c 0
EndSplineSet
EndChar
StartChar: J
Encoding: 74 74 41
Width: 305
Flags: HW
LayerCount: 2
Fore
SplineSet
154 642 m 0
 163 642 202 643 269 646 c 1
 271 643 272 639 272 632 c 128
 272 625 271 621 269 618 c 1
 259 618 246 617 229 614 c 128
 212 611 202 608 201 603 c 0
 198 593 196 568 196 530 c 2
 196 118 l 2
 196 58 190 6 179 -38 c 128
 168 -82 152 -117 131 -144 c 128
 110 -171 86 -190 59 -203 c 128
 32 -216 2 -222 -32 -222 c 0
 -40 -222 -51 -220 -65 -216 c 128
 -79 -212 -88 -208 -94 -204 c 1
 -99 -199 -102 -192 -102 -182 c 0
 -102 -166 -97 -152 -89 -142 c 128
 -81 -132 -70 -127 -55 -127 c 0
 -53 -127 -50 -128 -48 -128 c 128
 -46 -128 -43 -130 -40 -131 c 128
 -37 -132 -35 -133 -33 -134 c 128
 -31 -135 -29 -137 -26 -139 c 128
 -23 -141 -21 -143 -20 -144 c 128
 -19 -145 -17 -147 -14 -150 c 128
 -11 -153 -9 -154 -8 -155 c 0
 7 -169 22 -176 36 -176 c 0
 47 -176 57 -171 65 -163 c 128
 73 -155 82 -140 89 -120 c 128
 96 -100 101 -70 105 -31 c 128
 109 8 111 56 111 113 c 2
 111 530 l 2
 111 568 109 593 106 603 c 0
 105 608 96 611 79 614 c 128
 62 617 49 618 39 618 c 1
 37 621 36 625 36 632 c 128
 36 639 37 643 39 646 c 1
 106 643 144 642 154 642 c 0
EndSplineSet
EndChar
StartChar: K
Encoding: 75 75 42
Width: 1314
Flags: HW
LayerCount: 2
Fore
SplineSet
327 1314 m 0
 346.33 1314 424.33 1317.33 561 1324 c 1
 565.67 1318.67 567.83 1308 567.5 1292 c 128
 567.17 1276 565 1265.33 561 1260 c 1
 541 1260 513.67 1257 479 1251 c 128
 444.33 1245 425.67 1237.33 423 1228 c 0
 415 1202.67 411.67 1153.33 413 1080 c 1
 413 682 l 1
 447.67 703.33 523 770.67 639 884 c 1
 716.33 960.67 770.33 1015.33 801 1048 c 128
 831.67 1080.67 862.33 1116.67 893 1156 c 0
 911.67 1180.67 921 1201.33 921 1218 c 0
 921 1223.33 920 1228.17 918 1232.5 c 128
 916 1236.83 913 1240.5 909 1243.5 c 128
 905 1246.5 900.67 1249.17 896 1251.5 c 128
 891.33 1253.83 886 1255.67 880 1257 c 128
 874 1258.33 868.5 1259.33 863.5 1260 c 128
 858.5 1260.67 852.67 1261.17 846 1261.5 c 128
 839.33 1261.83 834.17 1262 830.5 1262 c 128
 825 1262 825 1262 817.5 1262 c 128
 810 1262 810 1262 809 1262 c 0
 805.67 1268 804 1277.5 804 1290.5 c 128
 804 1303.5 805.67 1314.67 809 1324 c 1
 824.33 1323.33 848.17 1321.83 880.5 1319.5 c 128
 912.83 1317.17 941.83 1315.33 967.5 1314 c 128
 993.17 1312.67 1017 1312 1039 1312 c 0
 1073.67 1312 1115.33 1313.83 1164 1317.5 c 128
 1212.67 1321.17 1243 1323.33 1255 1324 c 1
 1257.67 1318 1258.83 1306.17 1258.5 1288.5 c 128
 1258.17 1270.83 1255.67 1262 1251 1262 c 2
 1235 1261 l 2
 1224.33 1260.33 1214.67 1259.5 1206 1258.5 c 128
 1197.33 1257.5 1185.67 1255.33 1171 1252 c 128
 1156.33 1248.67 1142.83 1244.5 1130.5 1239.5 c 128
 1118.17 1234.5 1104.83 1227.67 1090.5 1219 c 128
 1076.17 1210.33 1063.67 1200 1053 1188 c 0
 1012.33 1144 971 1100.5 929 1057.5 c 128
 887 1014.5 852.67 980 826 954 c 128
 799.33 928 760.17 890.33 708.5 841 c 128
 656.83 791.67 617.33 754 590 728 c 1
 586.67 722.67 586.67 717.33 590 712 c 1
 598.67 702 617.33 680.17 646 646.5 c 128
 674.67 612.83 693.67 590.67 703 580 c 128
 712.33 569.33 729.83 549.17 755.5 519.5 c 128
 781.17 489.83 799.33 468.83 810 456.5 c 128
 820.67 444.17 837.33 425.17 860 399.5 c 128
 882.67 373.83 900.17 354.33 912.5 341 c 128
 924.83 327.67 940.67 310.5 960 289.5 c 128
 979.33 268.5 996 250.83 1010 236.5 c 128
 1024 222.17 1039.17 206.83 1055.5 190.5 c 128
 1071.83 174.17 1087.67 158.67 1103 144 c 0
 1131.67 117.33 1162.5 96.33 1195.5 81 c 128
 1228.5 65.67 1270.33 56 1321 52 c 1
 1325 44.67 1326.17 34.17 1324.5 20.5 c 128
 1322.83 6.83 1321 -2 1319 -6 c 1
 1171.67 -6 1077 1.33 1035 16 c 0
 983 34.67 937.67 63.33 899 102 c 0
 862.33 138 712.33 306.67 449 608 c 0
 446.33 612 440.33 614 431 614 c 0
 424.33 614 418.33 612.67 413 610 c 1
 413 238 l 2
 413 160.67 416.33 111.33 423 90 c 0
 425.67 80.67 444.33 73 479 67 c 128
 513.67 61 541 58 561 58 c 1
 565 52.67 567.17 42 567.5 26 c 128
 567.83 10 565.67 -0.67 561 -6 c 1
 424.33 0.67 346.33 4 327 4 c 0
 306.33 4 227.67 0.67 91 -6 c 1
 86.33 -0.67 84.17 10 84.5 26 c 128
 84.83 42 87 52.67 91 58 c 1
 111 58 138.33 61 173 67 c 128
 207.67 73 226.33 80.67 229 90 c 0
 235.67 111.33 239 160.67 239 238 c 2
 239 1080 l 2
 239 1157.33 235.67 1206.67 229 1228 c 0
 226.33 1237.33 207.67 1245 173 1251 c 128
 138.33 1257 111 1260 91 1260 c 1
 87 1265.33 84.83 1276 84.5 1292 c 128
 84.17 1308 86.33 1318.67 91 1324 c 1
 227.67 1317.33 306.33 1314 327 1314 c 0
EndSplineSet
EndChar
StartChar: L
Encoding: 76 76 43
Width: 1128
Flags: W
LayerCount: 2
Fore
SplineSet
413 232 m 2,0,1
 413 98 413 98 425 88 c 0,2,3
 443 74 443 74 469.5 71 c 128,-1,4
 496 68 496 68 567 68 c 2,5,-1
 681 68 l 2,6,7
 744 68 744 68 810 81.5 c 128,-1,8
 876 95 876 95 915 122 c 0,9,10
 997 178 997 178 1041 324 c 0,11,12
 1044 336 1044 336 1069 336 c 0,13,14
 1107 336 1107 336 1119 324 c 1,15,16
 1110 298 1110 298 1089 241 c 128,-1,17
 1068 184 1068 184 1055.5 148.5 c 128,-1,18
 1043 113 1043 113 1029.5 68 c 128,-1,19
 1016 23 1016 23 1011 -8 c 1,20,21
 908 -8 908 -8 688 -4 c 128,-1,22
 468 0 468 0 329 0 c 0,23,24
 280 0 280 0 204 -3 c 128,-1,25
 128 -6 128 -6 91 -6 c 1,26,27
 84 2 84 2 84.5 23 c 128,-1,28
 85 44 85 44 91 52 c 1,29,30
 121 52 121 52 173 61 c 128,-1,31
 225 70 225 70 229 84 c 0,32,33
 239 116 239 116 239 232 c 2,34,-1
 239 1086 l 2,35,36
 239 1202 239 1202 229 1234 c 0,37,38
 225 1248 225 1248 173 1257 c 128,-1,39
 121 1266 121 1266 91 1266 c 1,40,41
 85 1274 85 1274 84.5 1295 c 128,-1,42
 84 1316 84 1316 91 1324 c 1,43,44
 296 1314 296 1314 327 1314 c 0,45,46
 356 1314 356 1314 561 1324 c 1,47,48
 568 1316 568 1316 567.5 1295 c 128,-1,49
 567 1274 567 1274 561 1266 c 1,50,51
 531 1266 531 1266 479 1257 c 128,-1,52
 427 1248 427 1248 423 1234 c 0,53,54
 411 1196 411 1196 413 1086 c 1,55,-1
 413 232 l 2,0,1
EndSplineSet
EndChar
StartChar: M
Encoding: 77 77 44
Width: 1814
Flags: HW
LayerCount: 2
Fore
SplineSet
325 1314 m 0
 359.67 1314 413.67 1317.33 487 1324 c 1
 498.33 1288 528.5 1211.33 577.5 1094 c 128
 626.5 976.67 685 837.17 753 675.5 c 128
 821 513.83 873.67 386 911 292 c 0
 912.33 289.33 915 288 919 288 c 0
 923.67 288 927 290.67 929 296 c 0
 1123.67 798 1225.67 1060.67 1235 1084 c 1
 1323 1324 l 1
 1408.33 1318.67 1461 1316 1481 1316 c 0
 1563.67 1316 1638.33 1318.67 1705 1324 c 1
 1711 1266 l 1
 1692.33 1266 1665.17 1262.17 1629.5 1254.5 c 128
 1593.83 1246.83 1573.67 1238.67 1569 1230 c 0
 1562.33 1215.33 1559 1190 1559 1154 c 1
 1560.33 1113.33 1562.17 1041.5 1564.5 938.5 c 128
 1566.83 835.5 1569.5 714.83 1572.5 576.5 c 128
 1575.5 438.17 1577.67 339.33 1579 280 c 0
 1581.67 186.67 1589.67 122 1603 86 c 0
 1607 74 1626.17 65.33 1660.5 60 c 128
 1694.83 54.67 1722.33 52 1743 52 c 1
 1747.67 44 1750 33.67 1750 21 c 128
 1750 8.33 1749 -0.67 1747 -6 c 1
 1613.67 0.67 1534.33 4 1509 4 c 0
 1481.67 4 1455.67 3.5 1431 2.5 c 128
 1406.33 1.5 1378.33 0 1347 -2 c 128
 1315.67 -4 1289.67 -5.33 1269 -6 c 1
 1266.33 -3.33 1264.83 4.83 1264.5 18.5 c 128
 1264.17 32.17 1265.67 43.33 1269 52 c 1
 1285 52 1308 54.17 1338 58.5 c 128
 1368 62.83 1388.33 68 1399 74 c 0
 1411 80.67 1417 108.67 1417 158 c 0
 1417 167.33 1416.33 186.5 1415 215.5 c 128
 1413.67 244.5 1413 264 1413 274 c 0
 1401.67 684.67 1393 970 1387 1130 c 0
 1387 1137.33 1385.5 1145.83 1382.5 1155.5 c 128
 1379.5 1165.17 1375 1170 1369 1170 c 0
 1366.33 1170 1363 1165.33 1359 1156 c 0
 1328.33 1080 1187.67 727.33 937 98 c 1
 930.33 83.33 918.33 63.17 901 37.5 c 128
 883.67 11.83 870.33 -2 861 -4 c 0
 859 -4.67 853 -3.33 843 0 c 1
 355 1168 l 1
 352.33 1040 348.83 892.5 344.5 725.5 c 128
 340.17 558.5 336.5 421.5 333.5 314.5 c 128
 330.5 207.5 329 152.67 329 150 c 0
 329 122.67 331.67 102 337 88 c 0
 342.33 75.33 364.33 66.17 403 60.5 c 128
 441.67 54.83 472.33 52 495 52 c 1
 499.67 46.67 502 37 502 23 c 128
 502 9 501 -0.67 499 -6 c 1
 481 -5.33 458.67 -4 432 -2 c 128
 405.33 0 381 1.5 359 2.5 c 128
 337 3.5 313 4 287 4 c 0
 259.67 4 234.17 3.5 210.5 2.5 c 128
 186.83 1.5 160 0 130 -2 c 128
 100 -4 74.33 -5.33 53 -6 c 1
 50.33 -3.33 48.83 4.83 48.5 18.5 c 128
 48.17 32.17 49.67 43.33 53 52 c 1
 75 52 105.5 55.17 144.5 61.5 c 128
 183.5 67.83 207 76.67 215 88 c 0
 229 108 237 141.33 239 188 c 0
 257.67 686 267 1004.67 267 1144 c 0
 267 1182.67 264.33 1209.33 259 1224 c 0
 255.67 1234.67 235.83 1244.33 199.5 1253 c 128
 163.17 1261.67 136.33 1266 119 1266 c 0
 117 1266 116 1275.17 116 1293.5 c 128
 116 1311.83 117 1322 119 1324 c 1
 142.33 1322.67 165.83 1321.17 189.5 1319.5 c 128
 213.17 1317.83 234.83 1316.5 254.5 1315.5 c 128
 274.17 1314.5 297.67 1314 325 1314 c 0
EndSplineSet
EndChar
StartChar: N
Encoding: 78 78 45
Width: 757
Flags: W
HStem: -3 28<38 109 188 257> 619 28<38 112 510 579 659 730>
VStem: 126 45<46 555> 597 45<162 599>
LayerCount: 2
Fore
SplineSet
140 645 m 0
 169 645 200 645 214 646 c 1
 264 568 489 313 597 162 c 1
 597 219 l 0
 597 532 l 2
 597 567 597 584 587 600 c 0
 581 610 529 619 513 619 c 1
 508 626 509 641 511 647 c 1
 550 645 580 643 623 643 c 0
 668 643 683 645 728 647 c 1
 731 642 733 630 728 619 c 1
 716 619 658 612 651 600 c 0
 642 585 642 570 642 533 c 2
 642 136 l 2
 642 79 642 52 644 1 c 1
 643 -4 634 -5 631 -5 c 0
 626 -5 611 1 597 18 c 2
 171 556 l 1
 171 112 l 2
 171 77 171 61 181 45 c 0
 187 35 238 25 254 25 c 1
 259 18 258 3 256 -3 c 1
 217 -1 188 2 145 2 c 0
 100 2 85 -1 40 -3 c 1
 37 2 35 14 40 25 c 1
 52 25 109 33 116 45 c 0
 125 60 126 74 126 111 c 2
 126 535 l 2
 126 572 125 587 116 602 c 0
 109 614 52 621 40 621 c 1
 35 632 37 644 40 649 c 1
 85 647 108 645 140 645 c 0
EndSplineSet
EndChar
StartChar: O
Encoding: 79 79 46
Width: 1496
Flags: HW
LayerCount: 2
Fore
SplineSet
716 1266 m 0
 658 1266 605.166666667 1254.83333333 557.5 1232.5 c 128
 509.833333333 1210.16666667 470.166666667 1180.66666667 438.5 1144 c 128
 406.833333333 1107.33333333 380 1064.33333333 358 1015 c 128
 336 965.666666667 320.166666667 914.666666667 310.5 862 c 128
 300.833333333 809.333333333 296 755.333333333 296 700 c 0
 296 621.333333333 306.833333333 543.666666667 328.5 467 c 128
 350.166666667 390.333333333 380.666666667 320.666666667 420 258 c 128
 459.333333333 195.333333333 510.166666667 144.666666667 572.5 106 c 128
 634.833333333 67.3333333333 703.333333333 48 778 48 c 0
 836 48 889 59.1666666667 937 81.5 c 128
 985 103.833333333 1024.83333333 133.5 1056.5 170.5 c 128
 1088.16666667 207.5 1115.16666667 250.833333333 1137.5 300.5 c 128
 1159.83333333 350.166666667 1175.83333333 401.666666667 1185.5 455 c 128
 1195.16666667 508.333333333 1200 562.666666667 1200 618 c 0
 1200 696.666666667 1189 774.166666667 1167 850.5 c 128
 1145 926.833333333 1114.16666667 996 1074.5 1058 c 128
 1034.83333333 1120 983.833333333 1170.16666667 921.5 1208.5 c 128
 859.166666667 1246.83333333 790.666666667 1266 716 1266 c 0
746 1334 m 0
 833.333333333 1334 916.666666667 1317.16666667 996 1283.5 c 128
 1075.33333333 1249.83333333 1144.66666667 1203.66666667 1204 1145 c 128
 1263.33333333 1086.33333333 1310.5 1014.5 1345.5 929.5 c 128
 1380.5 844.5 1398 753.333333333 1398 656 c 0
 1398 564.666666667 1380.5 477.166666667 1345.5 393.5 c 128
 1310.5 309.833333333 1263.5 237.833333333 1204.5 177.5 c 128
 1145.5 117.166666667 1076 69.1666666667 996 33.5 c 128
 916 -2.16666666667 832.666666667 -20 746 -20 c 0
 658.666666667 -20 575.5 -3.16666666667 496.5 30.5 c 128
 417.5 64.1666666667 348.666666667 110.333333333 290 169 c 128
 231.333333333 227.666666667 184.666666667 299.333333333 150 384 c 128
 115.333333333 468.666666667 98 559.333333333 98 656 c 0
 98 748 115.333333333 835.833333333 150 919.5 c 128
 184.666666667 1003.16666667 231.166666667 1075.16666667 289.5 1135.5 c 128
 347.833333333 1195.83333333 416.833333333 1244 496.5 1280 c 128
 576.166666667 1316 659.333333333 1334 746 1334 c 0
EndSplineSet
EndChar
StartChar: P
Encoding: 80 80 47
Width: 535
Flags: W
HStem: -3 28<41 111 207 276> 271 27<246 338> 612 31<43 113 206 332>
VStem: 116 85<32 602> 416 90<375 542>
LayerCount: 2
Fore
SplineSet
506 468 m 0
 506 349 419 271 291 271 c 0
 280 271 259 274 249 279 c 0
 246 281 235 289 235 301 c 0
 235 303 236 307 240 306 c 1
 251 303 262 299 277 299 c 0
 355 299 416 353 416 451 c 0
 416 548 363 612 255 612 c 0
 243 612 210 612 206 603 c 0
 201 591 201 558 201 529 c 2
 201 113 l 2
 201 84 201 57 206 41 c 0
 209 30 261 25 273 25 c 1
 277 20 278 2 273 -3 c 1
 233 -1 197 2 159 2 c 0
 121 2 84 -1 44 -3 c 1
 39 2 40 20 44 25 c 1
 56 25 108 30 111 41 c 0
 116 57 116 84 116 113 c 2
 116 530 l 2
 116 559 116 587 111 603 c 0
 108 614 56 618 44 618 c 1
 40 623 39 641 44 646 c 1
 84 644 121 642 159 642 c 0
 197 642 240 644 298 644 c 0
 402 644 506 581 506 468 c 0
EndSplineSet
EndChar
StartChar: Q
Encoding: 81 81 48
Width: 1494
Flags: HW
LayerCount: 2
Fore
SplineSet
716 1266 m 0
 658 1266 605.166666667 1254.83333333 557.5 1232.5 c 128
 509.833333333 1210.16666667 470.166666667 1180.66666667 438.5 1144 c 128
 406.833333333 1107.33333333 380 1064.33333333 358 1015 c 128
 336 965.666666667 320.166666667 914.666666667 310.5 862 c 128
 300.833333333 809.333333333 296 755.333333333 296 700 c 0
 296 621.333333333 306.833333333 543.666666667 328.5 467 c 128
 350.166666667 390.333333333 380.666666667 320.666666667 420 258 c 128
 459.333333333 195.333333333 510.166666667 144.666666667 572.5 106 c 128
 634.833333333 67.3333333333 703.333333333 48 778 48 c 0
 836 48 889 59.1666666667 937 81.5 c 128
 985 103.833333333 1024.83333333 133.5 1056.5 170.5 c 128
 1088.16666667 207.5 1115.16666667 250.833333333 1137.5 300.5 c 128
 1159.83333333 350.166666667 1175.83333333 401.666666667 1185.5 455 c 128
 1195.16666667 508.333333333 1200 562.666666667 1200 618 c 0
 1200 696.666666667 1189 774.166666667 1167 850.5 c 128
 1145 926.833333333 1114.16666667 996 1074.5 1058 c 128
 1034.83333333 1120 983.833333333 1170.16666667 921.5 1208.5 c 128
 859.166666667 1246.83333333 790.666666667 1266 716 1266 c 0
746 1334 m 0
 833.333333333 1334 916.666666667 1317.16666667 996 1283.5 c 128
 1075.33333333 1249.83333333 1144.66666667 1203.66666667 1204 1145 c 128
 1263.33333333 1086.33333333 1310.5 1014.5 1345.5 929.5 c 128
 1380.5 844.5 1398 753.333333333 1398 656 c 0
 1398 505.333333333 1354.16666667 370.333333333 1266.5 251 c 128
 1178.83333333 131.666666667 1067.33333333 50.6666666667 932 8 c 1
 968.666666667 -9.33333333333 1008.16666667 -30.6666666667 1050.5 -56 c 128
 1092.83333333 -81.3333333333 1125.33333333 -100.333333333 1148 -113 c 128
 1170.66666667 -125.666666667 1201.16666667 -137 1239.5 -147 c 128
 1277.83333333 -157 1321.33333333 -162 1370 -162 c 0
 1436.66666667 -162 1484 -158 1512 -150 c 1
 1530 -150 1542 -154.666666667 1548 -164 c 0
 1549.33333333 -166.666666667 1550 -168.666666667 1550 -170 c 1
 1486 -204 1428.66666667 -229.5 1378 -246.5 c 128
 1327.33333333 -263.5 1274 -272 1218 -272 c 0
 1178 -272 1137.5 -264.833333333 1096.5 -250.5 c 128
 1055.5 -236.166666667 1015.66666667 -217.666666667 977 -195 c 128
 938.333333333 -172.333333333 899.666666667 -149 861 -125 c 128
 822.333333333 -101 778.666666667 -77.1666666667 730 -53.5 c 128
 681.333333333 -29.8333333333 633.333333333 -12 586 0 c 0
 443.333333333 36 326.333333333 113.5 235 232.5 c 128
 143.666666667 351.5 98 492.666666667 98 656 c 0
 98 748 115.333333333 835.833333333 150 919.5 c 128
 184.666666667 1003.16666667 231.166666667 1075.16666667 289.5 1135.5 c 128
 347.833333333 1195.83333333 416.833333333 1244 496.5 1280 c 128
 576.166666667 1316 659.333333333 1334 746 1334 c 0
EndSplineSet
EndChar
StartChar: R
Encoding: 82 82 49
Width: 606
Flags: HW
LayerCount: 2
Fore
SplineSet
298 644 m 0
 321 644 343 640 366 633 c 128
 389 626 410 615 430 601 c 128
 450 587 466 570 478 548 c 128
 490 526 497 502 497 475 c 0
 497 441 483 409 456 378 c 128
 429 347 398 325 363 313 c 1
 405 243 458 167 521 84 c 0
 536 65 552 51 568 42 c 128
 584 33 605 27 631 25 c 1
 633 21 634 17 633 10 c 128
 632 3 631 -1 630 -3 c 1
 567 -3 523 1 501 9 c 0
 480 16 464 25 453 35 c 0
 448 40 443 46 438 52 c 0
 430 63 408 94 375 143 c 128
 342 192 311 239 283 283 c 0
 278 291 267 295 253 295 c 2
 202 295 l 1
 202 113 l 2
 202 75 204 51 207 41 c 0
 208 36 217 33 234 30 c 128
 251 27 264 25 274 25 c 1
 276 22 277 18 277 11 c 128
 277 4 276 0 274 -3 c 1
 207 0 169 2 160 2 c 0
 150 2 111 0 44 -3 c 1
 42 0 41 4 41 11 c 128
 41 18 42 22 44 25 c 1
 54 25 67 27 84 30 c 128
 101 33 111 36 112 41 c 0
 115 49 116 73 117 113 c 1
 116 530 l 2
 116 568 114 593 111 603 c 0
 110 608 101 611 84 614 c 128
 67 617 54 618 44 618 c 1
 42 621 41 625 41 632 c 128
 41 639 42 643 44 646 c 1
 111 643 149 642 159 642 c 0
 170 642 191 642 221 643 c 128
 251 644 277 644 298 644 c 0
405 466 m 0
 405 511 393 547 369 573 c 128
 345 599 307 612 255 612 c 0
 225 612 209 610 206 603 c 0
 203 595 201 570 201 529 c 2
 202 325 l 1
 254 325 l 2
 294 325 330 339 360 365 c 128
 390 391 405 425 405 466 c 0
EndSplineSet
EndChar
StartChar: S
Encoding: 83 83 50
Width: 490
Flags: HW
LayerCount: 2
Fore
SplineSet
255 650 m 0
 269 650 282 650 295 648 c 128
 308 646 318 644 326 642 c 128
 334 640 346 637 361 633 c 128
 376 629 390 626 402 623 c 1
 406 595 411 548 416 484 c 0
 416 481 414 479 409 477 c 128
 404 475 400 474 396 474 c 0
 391 474 388 475 385 478 c 1
 384 488 380 499 376 511 c 128
 372 523 366 535 358 548 c 128
 350 561 340 572 330 582 c 128
 320 592 307 600 293 607 c 128
 279 614 264 617 248 617 c 0
 229 617 212 614 198 607 c 128
 184 600 173 592 165 581 c 128
 157 570 151 558 147 546 c 128
 143 534 142 522 142 509 c 0
 142 500 143 490 145 481 c 128
 147 472 151 465 154 458 c 128
 157 451 162 444 168 437 c 128
 174 430 181 424 186 419 c 128
 191 414 198 409 207 403 c 128
 216 397 223 391 229 387 c 128
 235 383 243 378 254 372 c 128
 265 366 272 361 278 357 c 0
 283 354 292 349 304 342 c 128
 316 335 325 329 332 324 c 128
 339 319 349 313 360 305 c 128
 371 297 381 290 388 284 c 128
 395 278 403 269 411 260 c 128
 419 251 426 242 431 233 c 128
 436 224 440 214 443 203 c 128
 446 192 448 181 448 169 c 0
 448 143 442 119 431 96 c 128
 420 73 404 54 385 39 c 128
 366 24 345 12 320 3 c 128
 295 -6 270 -10 244 -10 c 0
 229 -10 213 -8 195 -6 c 128
 177 -4 162 -2 150 0 c 128
 138 2 124 6 106 10 c 128
 88 14 75 18 68 19 c 1
 63 45 58 74 54 108 c 128
 50 142 48 162 48 170 c 1
 56 178 64 182 73 182 c 0
 79 182 83 179 84 173 c 0
 86 164 89 154 93 143 c 128
 97 132 103 119 111 104 c 128
 119 89 129 76 140 65 c 128
 151 54 166 44 185 36 c 128
 204 28 224 23 246 23 c 0
 279 23 308 34 330 55 c 128
 352 76 363 106 363 143 c 0
 363 153 362 161 360 170 c 128
 358 179 356 186 353 193 c 128
 350 200 346 207 340 213 c 128
 334 219 329 225 324 229 c 128
 319 233 312 238 304 243 c 128
 296 248 288 253 282 256 c 128
 276 259 268 264 258 270 c 128
 248 276 239 279 233 283 c 0
 219 291 211 297 207 299 c 128
 203 301 195 306 182 314 c 128
 169 322 161 328 156 332 c 128
 151 336 143 342 132 350 c 128
 121 358 114 365 109 371 c 128
 104 377 98 385 91 394 c 128
 84 403 79 411 76 419 c 128
 73 427 70 437 67 447 c 128
 64 457 63 468 63 479 c 0
 63 512 73 541 91 568 c 128
 109 595 133 615 162 629 c 128
 191 643 222 650 255 650 c 0
EndSplineSet
EndChar
StartChar: T
Encoding: 84 84 51
Width: 1252
Flags: HW
LayerCount: 2
Fore
SplineSet
1016 1322 m 2
 1031.33333333 1322 1052 1325.33333333 1078 1332 c 128
 1104 1338.66666667 1123.33333333 1345.33333333 1136 1352 c 0
 1151.33333333 1360 1164 1361.33333333 1174 1356 c 1
 1190 1216.66666667 1207.33333333 1102 1226 1012 c 1
 1215.33333333 1001.33333333 1202.66666667 996.666666667 1188 998 c 1
 1174 998 1164.66666667 1001.33333333 1160 1008 c 1
 1145.33333333 1082 1121.66666667 1141.16666667 1089 1185.5 c 128
 1056.33333333 1229.83333333 1016 1252 968 1252 c 2
 714 1252 l 1
 714 232 l 2
 714 154.666666667 717.333333333 105.333333333 724 84 c 0
 726.666666667 74.6666666667 745.333333333 67 780 61 c 128
 814.666666667 55 842 52 862 52 c 1
 866 46.6666666667 868.166666667 37 868.5 23 c 128
 868.833333333 9 866.666666667 -0.666666666667 862 -6 c 1
 725.333333333 0.666666666667 647.333333333 4 628 4 c 0
 607.333333333 4 528.666666667 0.666666666667 392 -6 c 1
 387.333333333 -0.666666666667 385.166666667 9 385.5 23 c 128
 385.833333333 37 388 46.6666666667 392 52 c 1
 412 52 439.333333333 55 474 61 c 128
 508.666666667 67 527.333333333 74.6666666667 530 84 c 0
 536.666666667 105.333333333 540 154.666666667 540 232 c 2
 540 1252 l 1
 282 1252 l 2
 234 1252 193.666666667 1229.83333333 161 1185.5 c 128
 128.333333333 1141.16666667 104.666666667 1082 90 1008 c 1
 85.3333333333 1001.33333333 76 998 62 998 c 1
 47.3333333333 996.666666667 34.6666666667 1001.33333333 24 1012 c 1
 42.6666666667 1102 60 1216.66666667 76 1356 c 1
 87.3333333333 1361.33333333 102.666666667 1359.33333333 122 1350 c 0
 134.666666667 1343.33333333 152.666666667 1337 176 1331 c 128
 199.333333333 1325 218.666666667 1322 234 1322 c 2
 1016 1322 l 2
EndSplineSet
EndChar
StartChar: U
Encoding: 85 85 52
Width: 706
Flags: HW
LayerCount: 2
Fore
SplineSet
144 642 m 0
 153 642 191 643 258 646 c 1
 260 643 261 639 261 632 c 128
 261 625 260 621 258 618 c 1
 248 618 235 617 218 614 c 128
 201 611 192 608 191 603 c 0
 188 593 186 568 186 530 c 2
 186 289 l 2
 186 209 202 149 234 109 c 0
 265 71 309 53 368 53 c 0
 492 53 554 125 557 268 c 1
 557 532 l 2
 557 552 557 567 556 576 c 128
 555 585 552 593 547 600 c 0
 544 605 534 609 517 613 c 128
 500 617 486 619 477 619 c 1
 475 622 473 627 473 634 c 128
 473 641 474 644 475 647 c 1
 540 644 576 643 583 643 c 0
 596 643 609 643 619 643 c 128
 629 643 641 645 653 646 c 128
 665 647 677 647 688 647 c 1
 693 639 693 630 688 619 c 1
 679 619 664 617 645 613 c 128
 626 609 615 605 612 600 c 0
 608 593 605 585 604 576 c 128
 603 567 602 553 602 533 c 2
 602 270 l 2
 602 176 580 106 535 62 c 128
 490 18 427 -4 347 -4 c 0
 276 -4 218 18 173 61 c 1
 125 106 101 167 101 245 c 2
 101 530 l 2
 101 568 99 593 96 603 c 0
 95 608 86 611 69 614 c 128
 52 617 39 618 29 618 c 1
 27 621 26 625 26 632 c 128
 26 639 27 643 29 646 c 1
 96 643 134 642 144 642 c 0
EndSplineSet
EndChar
StartChar: V
Encoding: 86 86 53
Width: 623
Flags: HW
LayerCount: 2
Fore
SplineSet
107 642 m 0
 123 642 163 643 228 646 c 1
 229 643 229 638 229 630 c 128
 229 622 228 618 226 618 c 1
 223 618 219 618 213 617 c 128
 207 616 201 615 194 613 c 128
 187 611 180 607 175 602 c 128
 170 597 167 592 167 586 c 0
 167 573 174 551 185 520 c 0
 246 354 294 222 330 126 c 1
 332 131 342 153 359 195 c 128
 376 237 397 288 422 350 c 128
 447 412 468 465 486 511 c 0
 498 541 503 563 503 579 c 0
 503 586 500 592 495 598 c 128
 490 604 483 608 475 610 c 128
 467 612 460 614 454 615 c 128
 448 616 443 617 439 617 c 1
 437 618 436 622 436 630 c 128
 436 638 437 643 439 646 c 1
 487 643 521 642 541 642 c 0
 554 642 565 642 575 642 c 128
 585 642 595 644 606 645 c 128
 617 646 627 646 636 646 c 1
 637 643 637 638 637 630 c 128
 637 622 636 618 634 618 c 0
 627 618 617 616 603 612 c 128
 589 608 579 601 572 593 c 0
 560 579 543 545 523 494 c 0
 468 357 405 202 333 31 c 0
 324 9 312 -2 296 -2 c 0
 295 -2 294 -1 293 1 c 128
 292 3 290 6 289 9 c 2
 287 14 l 1
 274 48 246 119 205 229 c 128
 164 339 129 430 101 502 c 0
 85 543 70 574 56 596 c 0
 51 603 42 608 28 612 c 128
 14 616 2 618 -6 618 c 0
 -7 618 -8 623 -8 632 c 128
 -8 641 -7 645 -6 646 c 1
 4 646 17 646 31 645 c 128
 45 644 58 642 70 642 c 128
 82 642 94 642 107 642 c 0
EndSplineSet
EndChar
StartChar: W
Encoding: 87 87 54
Width: 1800
Flags: HW
LayerCount: 2
Fore
SplineSet
235 1314 m 0
 261 1314 285.333333333 1314.5 308 1315.5 c 128
 330.666666667 1316.5 355.833333333 1318 383.5 1320 c 128
 411.166666667 1322 433.666666667 1323.33333333 451 1324 c 1
 453 1318 453.833333333 1307 453.5 1291 c 128
 453.166666667 1275 451 1266.66666667 447 1266 c 1
 441 1266 432.333333333 1265.16666667 421 1263.5 c 128
 409.666666667 1261.83333333 396.5 1258.83333333 381.5 1254.5 c 128
 366.5 1250.16666667 353.666666667 1243.16666667 343 1233.5 c 128
 332.333333333 1223.83333333 327 1212.66666667 327 1200 c 128
 327 1187.33333333 337 1144 357 1070 c 0
 373.666666667 1009.33333333 410.666666667 885.5 468 698.5 c 128
 525.333333333 511.5 566 377.333333333 590 296 c 1
 623.333333333 406.666666667 677.5 579.833333333 752.5 815.5 c 128
 827.5 1051.16666667 874 1198.66666667 892 1258 c 0
 897.333333333 1276 907.666666667 1291.5 923 1304.5 c 128
 938.333333333 1317.5 952 1324 964 1324 c 0
 970 1324 978 1313.33333333 988 1292 c 1
 1163.33333333 740 1269.33333333 410 1306 302 c 1
 1325.33333333 371.333333333 1349.16666667 455.333333333 1377.5 554 c 128
 1405.83333333 652.666666667 1430.33333333 738.666666667 1451 812 c 128
 1471.66666667 885.333333333 1493 964 1515 1048 c 1
 1531 1112 1539 1158.66666667 1539 1188 c 0
 1539 1202.66666667 1533.16666667 1215.66666667 1521.5 1227 c 128
 1509.83333333 1238.33333333 1495.83333333 1246.5 1479.5 1251.5 c 128
 1463.16666667 1256.5 1448.33333333 1260.16666667 1435 1262.5 c 128
 1421.66666667 1264.83333333 1411 1266 1403 1266 c 1
 1398.33333333 1268 1396 1276.83333333 1396 1292.5 c 128
 1396 1308.16666667 1398.33333333 1318.66666667 1403 1324 c 1
 1526.33333333 1317.33333333 1598.33333333 1314 1619 1314 c 0
 1646.33333333 1314 1669.33333333 1314.5 1688 1315.5 c 128
 1706.66666667 1316.5 1726.66666667 1318 1748 1320 c 128
 1769.33333333 1322 1789.66666667 1323.33333333 1809 1324 c 1
 1811.66666667 1318.66666667 1812.5 1307.66666667 1811.5 1291 c 128
 1810.5 1274.33333333 1808.33333333 1266 1805 1266 c 0
 1793.66666667 1266 1774 1261 1746 1251 c 128
 1718 1241 1695.33333333 1228.66666667 1678 1214 c 0
 1653.33333333 1193.33333333 1629.33333333 1142.66666667 1606 1062 c 0
 1575.33333333 956.666666667 1529.5 796.833333333 1468.5 582.5 c 128
 1407.5 368.166666667 1357.66666667 195.333333333 1319 64 c 0
 1314.33333333 46.6666666667 1303.83333333 31 1287.5 17 c 128
 1271.16666667 3 1256.33333333 -4 1243 -4 c 0
 1239.66666667 -4 1235.83333333 0 1231.5 8 c 128
 1227.16666667 16 1224.33333333 22.6666666667 1223 28 c 0
 1204.33333333 82 1180.5 152.833333333 1151.5 240.5 c 128
 1108 372 1108 372 1064.5 503.5 c 128
 1035.5 591.166666667 1008.33333333 673.666666667 983 751 c 128
 957.666666667 828.333333333 936.666666667 892.5 920 943.5 c 128
 903.333333333 994.5 895.333333333 1018.66666667 896 1016 c 1
 860.666666667 899.333333333 810.833333333 742.166666667 746.5 544.5 c 128
 682.166666667 346.833333333 631.666666667 186.666666667 595 64 c 0
 590.333333333 46.6666666667 579.833333333 31 563.5 17 c 128
 547.166666667 3 532.333333333 -4 519 -4 c 0
 515.666666667 -4 511.833333333 0 507.5 8 c 128
 503.166666667 16 500.333333333 22.6666666667 499 28 c 0
 454.333333333 170 396.166666667 357.833333333 324.5 591.5 c 128
 252.833333333 825.166666667 204.333333333 982.666666667 179 1064 c 0
 177.666666667 1069.33333333 174.666666667 1079.83333333 170 1095.5 c 128
 165.333333333 1111.16666667 162.333333333 1121.16666667 161 1125.5 c 128
 159.666666667 1129.83333333 157 1137.83333333 153 1149.5 c 128
 149 1161.16666667 145.833333333 1169.16666667 143.5 1173.5 c 128
 141.166666667 1177.83333333 138 1183.83333333 134 1191.5 c 128
 130 1199.16666667 125.833333333 1205.5 121.5 1210.5 c 128
 117.166666667 1215.5 112.333333333 1220.66666667 107 1226 c 0
 94.3333333333 1238 75.5 1247.66666667 50.5 1255 c 128
 25.5 1262.33333333 5.66666666667 1266 -9 1266 c 0
 -11 1266 -12 1275.16666667 -12 1293.5 c 128
 -12 1311.83333333 -11 1322 -9 1324 c 1
 144.333333333 1317.33333333 225.666666667 1314 235 1314 c 0
EndSplineSet
EndChar
StartChar: X
Encoding: 88 88 55
Width: 652
Flags: HW
LayerCount: 2
Fore
SplineSet
156 642 m 0
 174 642 216 643 281 646 c 1
 282 643 282 638 282 630 c 128
 282 622 281 618 279 618 c 0
 273 618 265 617 257 616 c 128
 249 615 241 611 233 606 c 128
 225 601 220 595 220 587 c 0
 220 579 224 569 232 558 c 1
 345 384 l 1
 355 398 370 416 388 440 c 128
 406 464 420 482 430 496 c 128
 440 510 451 524 462 539 c 128
 473 554 481 567 487 576 c 0
 490 581 492 586 492 592 c 0
 492 596 490 599 487 602 c 128
 484 605 477 609 467 612 c 128
 457 615 443 617 426 617 c 1
 424 617 422 621 422 629 c 128
 422 637 422 643 424 646 c 1
 467 643 501 641 525 641 c 0
 558 641 593 643 632 646 c 1
 634 644 635 639 635 632 c 128
 635 625 633 620 630 617 c 1
 625 617 619 616 611 615 c 128
 603 614 591 610 577 603 c 128
 563 596 552 588 543 578 c 0
 484 508 425 433 364 352 c 1
 556 64 l 2
 564 51 578 42 596 35 c 128
 614 28 633 25 652 25 c 1
 654 22 654 17 654 10 c 128
 654 3 654 -1 653 -3 c 1
 644 -3 633 -2 620 -1 c 128
 607 0 596 1 586 1 c 128
 576 1 564 2 552 2 c 0
 536 2 521 1 506 1 c 128
 491 1 475 0 456 -1 c 128
 437 -2 422 -3 410 -3 c 1
 408 0 406 5 406 13 c 128
 406 21 408 25 410 25 c 0
 419 25 431 28 445 33 c 128
 459 38 466 45 466 53 c 0
 466 54 464 57 461 64 c 1
 312 294 l 1
 281 252 248 207 213 158 c 128
 178 109 158 77 151 64 c 1
 148 54 146 50 146 49 c 0
 146 45 148 40 153 37 c 128
 158 34 166 31 178 29 c 128
 190 27 204 25 221 25 c 1
 223 22 224 17 224 10 c 128
 224 3 224 -2 223 -3 c 1
 163 0 126 2 113 2 c 0
 98 2 58 0 -7 -3 c 1
 -8 0 -9 5 -8 12 c 128
 -7 19 -6 23 -5 25 c 1
 6 25 23 29 46 36 c 128
 69 43 87 53 99 68 c 0
 121 96 142 124 163 152 c 128
 184 180 205 209 229 242 c 128
 253 275 274 302 291 324 c 1
 153 535 l 2
 141 553 131 567 122 577 c 128
 113 587 101 596 88 603 c 0
 80 608 71 611 60 614 c 128
 49 617 41 618 34 618 c 0
 32 618 30 622 30 630 c 128
 30 638 32 643 34 646 c 1
 45 646 58 646 74 645 c 128
 90 644 104 642 116 642 c 128
 128 642 142 642 156 642 c 0
EndSplineSet
EndChar
StartChar: Y
Encoding: 89 89 56
Width: 1196
Flags: W
LayerCount: 2
Fore
SplineSet
522 232 m 2,0,-1
 522 534 l 2,1,2
 522 562 522 562 508 590 c 1,3,4
 446 703 446 703 361.5 852 c 128,-1,5
 277 1001 277 1001 224 1096 c 0,6,7
 193 1150 193 1150 164.5 1179.5 c 128,-1,8
 136 1209 136 1209 92 1234 c 0,9,10
 68 1248 68 1248 34 1257 c 128,-1,11
 0 1266 0 1266 -20 1266 c 0,12,13
 -28 1266 -28 1266 -28 1291 c 128,-1,14
 -28 1316 -28 1316 -20 1324 c 1,15,16
 14 1323 14 1323 62 1320 c 128,-1,17
 110 1317 110 1317 148 1315.5 c 128,-1,18
 186 1314 186 1314 230 1314 c 0,19,20
 286 1314 286 1314 486 1324 c 1,21,22
 490 1315 490 1315 489.5 1290.5 c 128,-1,23
 489 1266 489 1266 482 1266 c 0,24,25
 463 1266 463 1266 438 1261.5 c 128,-1,26
 413 1257 413 1257 387.5 1241.5 c 128,-1,27
 362 1226 362 1226 362 1202 c 0,28,29
 362 1181 362 1181 386 1142 c 1,30,-1
 664 662 l 1,31,32
 732 784 732 784 815.5 951.5 c 128,-1,33
 899 1119 899 1119 924 1180 c 0,34,35
 930 1194 930 1194 930 1210 c 0,36,37
 930 1222 930 1222 919.5 1233 c 128,-1,38
 909 1244 909 1244 875.5 1254 c 128,-1,39
 842 1264 842 1264 790 1264 c 0,40,41
 786 1264 786 1264 784.5 1291 c 128,-1,42
 783 1318 783 1318 786 1322 c 1,43,44
 971 1312 971 1312 986 1312 c 0,45,46
 1033 1312 1033 1312 1067.5 1313.5 c 128,-1,47
 1102 1315 1102 1315 1141 1318 c 128,-1,48
 1180 1321 1180 1321 1206 1322 c 1,49,50
 1209 1313 1209 1313 1207.5 1288.5 c 128,-1,51
 1206 1264 1206 1264 1202 1264 c 0,52,53
 1188 1264 1188 1264 1172.5 1262.5 c 128,-1,54
 1157 1261 1157 1261 1126 1254.5 c 128,-1,55
 1095 1248 1095 1248 1067.5 1230 c 128,-1,56
 1040 1212 1040 1212 1024 1184 c 0,57,58
 963 1077 963 1077 708 602 c 0,59,60
 698 584 698 584 698 540 c 2,61,-1
 696 232 l 2,62,63
 696 116 696 116 706 84 c 0,64,65
 710 70 710 70 762 61 c 128,-1,66
 814 52 814 52 844 52 c 1,67,68
 850 44 850 44 850.5 23 c 128,-1,69
 851 2 851 2 844 -6 c 1,70,71
 639 4 639 4 610 4 c 0,72,73
 579 4 579 4 374 -6 c 1,74,75
 367 2 367 2 367.5 23 c 128,-1,76
 368 44 368 44 374 52 c 1,77,78
 404 52 404 52 456 61 c 128,-1,79
 508 70 508 70 512 84 c 0,80,81
 522 116 522 116 522 232 c 2,0,-1
EndSplineSet
EndChar
StartChar: Z
Encoding: 90 90 57
Width: 1266
Flags: W
LayerCount: 2
Fore
SplineSet
432 1252 m 2,0,1
 332 1252 332 1252 263 1183.5 c 128,-1,2
 194 1115 194 1115 160 990 c 1,3,4
 155 982 155 982 138 982 c 0,5,6
 125 982 125 982 108 987.5 c 128,-1,7
 91 993 91 993 86 998 c 1,8,9
 133 1126 133 1126 152 1338 c 1,10,11
 264 1322 264 1322 316 1322 c 2,12,-1
 704 1322 l 2,13,14
 844 1322 844 1322 1124 1342 c 1,15,16
 1131 1340 1131 1340 1145.5 1324.5 c 128,-1,17
 1160 1309 1160 1309 1160 1298 c 1,18,19
 1158 1291 1158 1291 946.5 984 c 128,-1,20
 735 677 735 677 524.5 373.5 c 2,21,-1
 314 70 l 1,22,-1
 836 70 l 2,23,24
 953 70 953 70 1022 141 c 0,25,26
 1032 152 1032 152 1042 164.5 c 128,-1,27
 1052 177 1052 177 1059 187.5 c 128,-1,28
 1066 198 1066 198 1075 214.5 c 128,-1,29
 1084 231 1084 231 1088 239 c 128,-1,30
 1092 247 1092 247 1100 266 c 128,-1,31
 1108 285 1108 285 1110 290 c 128,-1,32
 1112 295 1112 295 1120 316 c 128,-1,33
 1128 337 1128 337 1128 338 c 0,34,35
 1131 344 1131 344 1156 344 c 0,36,37
 1186 344 1186 344 1204 326 c 1,38,39
 1190 281 1190 281 1172.5 224.5 c 128,-1,40
 1155 168 1155 168 1146.5 139.5 c 128,-1,41
 1138 111 1138 111 1127 73.5 c 128,-1,42
 1116 36 1116 36 1108 0 c 1,43,-1
 106 0 l 2,44,45
 89 0 89 0 76.5 9.5 c 128,-1,46
 64 19 64 19 70 28 c 2,47,-1
 920 1252 l 1,48,-1
 432 1252 l 2,0,1
EndSplineSet
EndChar
StartChar: bracketleft
Encoding: 91 91 58
Width: 518
Flags: W
LayerCount: 2
Fore
SplineSet
196 1436 m 0,0,1
 269 1436 269 1436 345.5 1439 c 128,-1,2
 422 1442 422 1442 462 1445 c 2,3,-1
 502 1448 l 1,4,5
 508 1442 508 1442 508 1430 c 0,6,7
 508 1405 508 1405 488 1398 c 0,8,9
 454 1386 454 1386 395.5 1374.5 c 128,-1,10
 337 1363 337 1363 295.5 1357.5 c 2,11,-1
 254 1352 l 1,12,-1
 254 -192 l 1,13,14
 412 -212 412 -212 488 -238 c 0,15,16
 508 -245 508 -245 508 -270 c 0,17,18
 508 -275 508 -275 506.5 -279.5 c 128,-1,19
 505 -284 505 -284 503.5 -286 c 2,20,-1
 502 -288 l 1,21,22
 360 -276 360 -276 196 -276 c 0,23,24
 180 -276 180 -276 170.5 -264 c 128,-1,25
 161 -252 161 -252 159.5 -243.5 c 128,-1,26
 158 -235 158 -235 158 -230 c 2,27,-1
 158 1390 l 2,28,29
 158 1395 158 1395 159.5 1403.5 c 128,-1,30
 161 1412 161 1412 170.5 1424 c 128,-1,31
 180 1436 180 1436 196 1436 c 0,0,1
EndSplineSet
Substitution2: "'smcp' Lowercase to Small Capitals lookup 2-1" bracketleft.sc
EndChar
StartChar: backslash
Encoding: 92 92 59
Width: 802
Flags: HW
LayerCount: 2
Fore
SplineSet
62 1500 m 1
 67.3333333333 1509.33333333 80.6666666667 1514 102 1514 c 0
 112.666666667 1514 124 1510.66666667 136 1504 c 128
 148 1497.33333333 155.333333333 1490 158 1482 c 0
 544.666666667 479.333333333 738 -26 738 -34 c 1
 736.666666667 -38.6666666667 731.5 -43.5 722.5 -48.5 c 128
 713.5 -53.5 703.333333333 -56 692 -56 c 0
 684.666666667 -56 676.5 -53 667.5 -47 c 128
 658.5 -41 652.666666667 -34.6666666667 650 -28 c 0
 312.666666667 849.333333333 116.666666667 1358.66666667 62 1500 c 1
EndSplineSet
Substitution2: "'smcp' Lowercase to Small Capitals lookup 2-1" backslash.sc
EndChar
StartChar: bracketright
Encoding: 93 93 60
Width: 253
Flags: HW
LayerCount: 2
Fore
SplineSet
158 701 m 0
 163 701 168 699 171 695 c 128
 174 691 176 688 176 685 c 128
 176 682 177 681 177 679 c 2
 177 -112 l 2
 177 -114 176 -116 176 -119 c 128
 176 -122 174 -125 171 -129 c 128
 168 -133 163 -135 158 -135 c 0
 134 -135 110 -135 85 -136 c 128
 60 -137 41 -138 28 -139 c 2
 9 -141 l 1
 7 -139 6 -136 6 -132 c 0
 6 -124 9 -118 16 -116 c 0
 27 -112 42 -109 61 -105 c 128
 80 -101 96 -98 110 -96 c 2
 130 -94 l 1
 130 660 l 1
 79 667 41 675 16 683 c 0
 9 685 6 690 6 698 c 0
 6 700 7 702 7 703 c 128
 7 704 8 705 8 706 c 2
 9 707 l 1
 55 703 105 701 158 701 c 0
EndSplineSet
Substitution2: "'smcp' Lowercase to Small Capitals lookup 2-1" bracketright.sc
EndChar
StartChar: asciicircum
Encoding: 94 94 61
Width: 780
Flags: W
LayerCount: 2
Fore
SplineSet
372 1290 m 0,0,1
 391 1290 391 1290 404 1264 c 0,2,3
 440 1193 440 1193 472 1136 c 128,-1,4
 504 1079 504 1079 550 1001 c 128,-1,5
 596 923 596 923 622 878 c 1,6,7
 622 864 622 864 612 855 c 128,-1,8
 602 846 602 846 592 846 c 1,9,10
 551 889 551 889 496 953.5 c 128,-1,11
 441 1018 441 1018 406.5 1061 c 2,12,-1
 372 1104 l 1,13,14
 246 942 246 942 154 846 c 1,15,16
 144 846 144 846 133 855 c 128,-1,17
 122 864 122 864 122 878 c 1,18,19
 151 928 151 928 195 1002 c 128,-1,20
 239 1076 239 1076 272.5 1134.5 c 128,-1,21
 306 1193 306 1193 342 1264 c 0,22,23
 355 1290 355 1290 372 1290 c 0,0,1
EndSplineSet
Substitution2: "'smcp' Lowercase to Small Capitals lookup 2-1" asciicircum.sc
EndChar
StartChar: underscore
Encoding: 95 95 62
Width: 493
Flags: W
HStem: -42 55<18 465>
LayerCount: 2
Fore
SplineSet
14 -32 m 1
 14 -32 18 13 28 13 c 2
 467 13 l 2
 469 13 471 12 471 8 c 0
 471 -1 467 -15 461 -36 c 0
 459 -42 455 -42 455 -42 c 1
 21 -42 l 1
 21 -42 14 -42 14 -32 c 1
EndSplineSet
EndChar
StartChar: a
Encoding: 97 97 64
Width: 862
Flags: HW
LayerCount: 2
Fore
SplineSet
374 92 m 0
 406.666666667 92 443.833333333 102.833333333 485.5 124.5 c 128
 527.166666667 146.166666667 548 162.666666667 548 174 c 2
 548 446 l 1
 444.666666667 415.333333333 382.666666667 396 362 388 c 0
 324 373.333333333 294.166666667 352.833333333 272.5 326.5 c 128
 250.833333333 300.166666667 240 268.666666667 240 232 c 0
 240 194.666666667 253 162 279 134 c 128
 305 106 336.666666667 92 374 92 c 0
482 872 m 0
 540 872 590.833333333 845.333333333 634.5 792 c 128
 678.166666667 738.666666667 700 674 700 598 c 2
 700 186 l 2
 700 123.333333333 720.666666667 92 762 92 c 0
 768 92 773.833333333 92.5 779.5 93.5 c 128
 785.166666667 94.5 790 95.8333333333 794 97.5 c 128
 798 99.1666666667 802.166666667 101.166666667 806.5 103.5 c 128
 810.833333333 105.833333333 814.166666667 107.833333333 816.5 109.5 c 128
 818.833333333 111.166666667 821.166666667 113 823.5 115 c 128
 825.833333333 117 827.333333333 118 828 118 c 0
 833.333333333 118 836 112.666666667 836 102 c 0
 836 88 832.666666667 75.3333333333 826 64 c 1
 810.666666667 50 786.5 33.8333333333 753.5 15.5 c 128
 720.5 -2.83333333333 694.666666667 -12 676 -12 c 0
 648 -12 622.333333333 1.5 599 28.5 c 128
 575.666666667 55.5 560.666666667 85.3333333333 554 118 c 1
 534.666666667 98.6666666667 496.5 71.5 439.5 36.5 c 128
 382.5 1.5 338.666666667 -16 308 -16 c 0
 242 -16 186.5 6.16666666667 141.5 50.5 c 128
 96.5 94.8333333333 74 149.333333333 74 214 c 0
 74 252 84.5 285.833333333 105.5 315.5 c 128
 126.5 345.166666667 149.333333333 364.666666667 174 374 c 0
 196 382 236 396 294 416 c 128
 352 436 400.5 453 439.5 467 c 128
 478.5 481 506.666666667 492 524 500 c 0
 534 504 540.5 509 543.5 515 c 128
 546.5 521 548 532.666666667 548 550 c 2
 548 604 l 2
 548 651.333333333 531.166666667 695.166666667 497.5 735.5 c 128
 463.833333333 775.833333333 423.333333333 796 376 796 c 0
 342.666666667 796 317.833333333 785.833333333 301.5 765.5 c 128
 285.166666667 745.166666667 273.333333333 714 266 672 c 0
 254.666666667 608 223.333333333 576 172 576 c 0
 152 576 135.666666667 584.666666667 123 602 c 128
 110.333333333 619.333333333 104 638.666666667 104 660 c 0
 104 665.333333333 105.5 673.5 108.5 684.5 c 128
 111.5 695.5 114.666666667 703.333333333 118 708 c 1
 159.333333333 746.666666667 214.166666667 783.666666667 282.5 819 c 128
 350.833333333 854.333333333 417.333333333 872 482 872 c 0
EndSplineSet
Substitution2: "'smcp' Lowercase to Small Capitals lookup 2-1" a.sc
EndChar
StartChar: b
Encoding: 98 98 65
Width: 996
Flags: HW
LayerCount: 2
Fore
SplineSet
423 -14 m 0
 394.33 -14 345 -4 275 16 c 0
 271.67 16.67 264.67 18.67 254 22 c 128
 243.33 25.33 235.83 27.5 231.5 28.5 c 128
 227.17 29.5 220.33 30.83 211 32.5 c 128
 201.67 34.17 194.17 35 188.5 35 c 128
 182.83 35 176 34.5 168 33.5 c 128
 160 32.5 152.33 30.67 145 28 c 1
 140.33 28 134.83 33.83 128.5 45.5 c 128
 122.17 57.17 119 66 119 72 c 1
 135 107.33 143 156.67 143 220 c 2
 143 1116 l 2
 143 1169.33 139.67 1204 133 1220 c 0
 123 1244 82.33 1256 11 1256 c 0
 10.33 1256 9.67 1260.17 9 1268.5 c 128
 8.33 1276.83 8.17 1285.33 8.5 1294 c 128
 8.83 1302.67 10.33 1307.33 13 1308 c 0
 105 1317.33 199.67 1344 297 1388 c 1
 301.67 1388 306.5 1384.5 311.5 1377.5 c 128
 316.5 1370.5 319 1363.33 319 1356 c 1
 304.33 1313.33 297 1255.33 297 1182 c 2
 297 788 l 2
 297 782 297 782 297 779 c 128
 297 777 297.5 774.17 298.5 770.5 c 128
 299.5 766.83 300.67 765.17 302 765.5 c 128
 303.33 765.83 305.67 766.67 309 768 c 1
 336.33 788 375.33 811 426 837 c 128
 476.67 863 518.33 876 551 876 c 0
 608.33 876 660.83 863.33 708.5 838 c 128
 756.17 812.67 794.83 779.67 824.5 739 c 128
 854.17 698.33 877 654.33 893 607 c 128
 909 559.67 917 512.67 917 466 c 0
 917 401.33 904.5 339.5 879.5 280.5 c 128
 854.5 221.5 820.33 170.5 777 127.5 c 128
 733.67 84.5 681.17 50.17 619.5 24.5 c 128
 557.83 -1.17 492.33 -14 423 -14 c 0
455 758 m 0
 431 758 403 751.67 371 739 c 128
 339 726.33 317.67 714.67 307 704 c 0
 300.33 697.33 297 690 297 682 c 2
 297 196 l 2
 297 155.33 316.33 121.5 355 94.5 c 128
 393.67 67.5 436.33 54 483 54 c 128
 529.67 54 573.67 70.5 615 103.5 c 128
 656.33 136.5 689 178.83 713 230.5 c 128
 737 282.17 749 334.67 749 388 c 0
 749 503.33 722.5 593.83 669.5 659.5 c 128
 616.5 725.17 545 758 455 758 c 0
EndSplineSet
Substitution2: "'smcp' Lowercase to Small Capitals lookup 2-1" b.sc
EndChar
StartChar: c
Encoding: 99 99 66
Width: 846
Flags: HW
LayerCount: 2
Fore
SplineSet
764 772 m 0
 764 739.333333333 756.333333333 715.166666667 741 699.5 c 128
 725.666666667 683.833333333 708 676 688 676 c 0
 674.666666667 676 661.333333333 680.333333333 648 689 c 128
 634.666666667 697.666666667 620.5 708.833333333 605.5 722.5 c 128
 590.5 736.166666667 579.333333333 745.333333333 572 750 c 0
 549.333333333 765.333333333 530.833333333 775.5 516.5 780.5 c 128
 502.166666667 785.5 482.666666667 788 458 788 c 0
 400.666666667 788 349 757.166666667 303 695.5 c 128
 257 633.833333333 234 553.333333333 234 454 c 0
 234 342 264.166666667 257.666666667 324.5 201 c 128
 384.833333333 144.333333333 462.666666667 116 558 116 c 0
 606 116 648.166666667 127 684.5 149 c 128
 720.833333333 171 749.333333333 194 770 218 c 0
 770.666666667 218 772.333333333 216.833333333 775 214.5 c 128
 777.666666667 212.166666667 780.166666667 208.666666667 782.5 204 c 128
 784.833333333 199.333333333 786 194.666666667 786 190 c 0
 786 179.333333333 782 167.333333333 774 154 c 0
 763.333333333 136.666666667 750 119.333333333 734 102 c 128
 718 84.6666666667 698 66.6666666667 674 48 c 128
 650 29.3333333333 621.166666667 14 587.5 2 c 128
 553.833333333 -10 518.666666667 -16 482 -16 c 0
 404 -16 333.666666667 3.33333333333 271 42 c 128
 208.333333333 80.6666666667 160.5 130.5 127.5 191.5 c 128
 94.5 252.5 78 318 78 388 c 0
 78 444 88.1666666667 498 108.5 550 c 128
 128.833333333 602 155.833333333 647.333333333 189.5 686 c 128
 223.166666667 724.666666667 261 758.5 303 787.5 c 128
 345 816.5 388.5 838.5 433.5 853.5 c 128
 478.5 868.5 522 876 564 876 c 0
 636 876 696 860 744 828 c 1
 748.666666667 823.333333333 753.166666667 815.166666667 757.5 803.5 c 128
 761.833333333 791.833333333 764 781.333333333 764 772 c 0
EndSplineSet
Substitution2: "'smcp' Lowercase to Small Capitals lookup 2-1" c.sc
EndChar
StartChar: d
Encoding: 100 100 67
Width: 502
Flags: HW
LayerCount: 2
Fore
SplineSet
271 428 m 0
 281 428 293 426 308 424 c 128
 323 422 333 420 338 418 c 1
 341 418 343 424 343 438 c 2
 343 545 l 2
 343 571 341 588 338 596 c 0
 333 608 313 613 278 613 c 0
 278 613 277 615 277 619 c 128
 277 623 277 628 277 632 c 128
 277 636 278 639 279 639 c 0
 324 644 370 657 418 678 c 1
 420 678 423 676 425 673 c 128
 427 670 429 666 429 662 c 1
 422 641 418 613 418 577 c 2
 418 159 l 2
 418 106 420 74 425 63 c 0
 427 59 431 57 437 54 c 128
 443 51 450 50 456 49 c 128
 462 48 467 47 473 47 c 128
 479 47 482 46 482 46 c 0
 484 45 485 41 485 34 c 0
 485 32 485 29 483 25 c 128
 481 21 480 20 478 20 c 0
 469 19 457 18 445 16 c 128
 433 14 422 12 411 9 c 128
 400 6 390 4 381 1 c 128
 367 -3 368 -3 359 -5 c 2
 351 -8 l 1
 346 -8 343 -1 343 11 c 2
 343 45 l 1
 342 49 341 51 340 51 c 1
 330 41 311 28 283 14 c 128
 255 0 231 -8 210 -8 c 0
 164 -8 125 12 90 53 c 128
 55 94 38 143 38 201 c 0
 38 231 46 261 62 290 c 128
 78 319 97 343 121 363 c 128
 145 383 170 398 197 410 c 128
 224 422 249 428 271 428 c 0
239 387 m 0
 204 387 175 370 153 338 c 128
 131 306 120 268 120 225 c 0
 120 177 132 136 157 103 c 128
 182 70 215 53 258 53 c 0
 279 53 298 57 316 66 c 128
 334 75 343 84 343 92 c 2
 343 339 l 2
 343 350 332 361 311 371 c 128
 290 381 266 387 239 387 c 0
EndSplineSet
Substitution2: "'smcp' Lowercase to Small Capitals lookup 2-1" d.sc
EndChar
StartChar: e
Encoding: 101 101 68
Width: 419
Flags: HW
LayerCount: 2
Fore
SplineSet
113 278 m 2
 272 278 l 2
 286 278 294 286 295 301 c 0
 295 308 294 315 291 325 c 128
 288 335 284 345 278 355 c 128
 272 365 263 375 252 382 c 128
 241 389 229 393 215 393 c 0
 200 393 186 389 173 381 c 128
 160 373 150 363 143 352 c 128
 136 341 130 330 125 319 c 128
 120 308 117 298 115 290 c 128
 113 282 112 278 113 278 c 2
108 242 m 1
 107 182 122 137 153 104 c 128
 184 71 222 55 268 55 c 0
 291 55 312 61 331 72 c 128
 350 83 365 94 375 106 c 0
 375 106 376 106 377 105 c 128
 378 104 380 102 381 100 c 128
 382 98 383 95 383 93 c 0
 383 88 381 82 377 75 c 0
 372 67 365 58 357 50 c 128
 349 42 340 32 328 23 c 128
 316 14 302 7 286 1 c 128
 270 -5 252 -8 234 -8 c 0
 177 -8 131 11 94 50 c 128
 57 89 39 137 39 195 c 0
 39 227 45 258 57 287 c 128
 69 316 84 341 103 361 c 128
 122 381 142 397 165 409 c 128
 188 421 210 428 231 428 c 0
 253 428 274 424 292 417 c 128
 310 410 324 402 334 392 c 128
 344 382 353 371 360 358 c 128
 367 345 371 334 374 324 c 128
 377 314 378 304 378 295 c 0
 378 280 376 269 373 261 c 128
 370 253 363 249 354 249 c 0
 341 248 299 247 228 245 c 128
 157 243 116 242 108 242 c 1
EndSplineSet
Substitution2: "'smcp' Lowercase to Small Capitals lookup 2-1" e.sc
EndChar
StartChar: f
Encoding: 102 102 69
Width: 300
Flags: HW
LayerCount: 2
Fore
SplineSet
263 681 m 0
 277 681 287 680 291 679 c 128
 295 678 301 674 309 669 c 1
 311 667 314 663 316 657 c 128
 318 651 319 647 319 642 c 0
 319 634 318 627 315 621 c 128
 312 615 309 611 304 609 c 128
 299 607 295 605 291 604 c 128
 287 603 284 603 280 603 c 0
 274 603 264 606 251 613 c 0
 240 619 231 622 223 622 c 0
 207 622 194 614 184 598 c 128
 174 582 169 559 169 530 c 1
 169 409 l 1
 285 409 l 2
 288 409 290 405 290 398 c 0
 290 388 285 378 276 369 c 1
 169 369 l 1
 169 113 l 2
 169 75 171 51 174 41 c 0
 175 36 185 33 201 30 c 128
 217 27 230 25 240 25 c 1
 242 22 243 18 243 11 c 128
 243 4 242 0 240 -3 c 1
 173 0 137 2 131 2 c 0
 120 2 109 1 98 1 c 128
 87 1 76 0 62 -1 c 128
 48 -2 37 -3 28 -3 c 1
 26 0 25 4 25 11 c 128
 25 18 26 22 28 25 c 1
 37 25 50 27 65 30 c 128
 80 33 88 36 89 41 c 0
 92 51 94 75 94 113 c 2
 94 369 l 1
 38 369 l 2
 35 369 33 372 33 378 c 0
 33 380 36 385 43 393 c 128
 50 401 55 406 58 409 c 1
 94 409 l 1
 94 428 l 2
 94 462 100 495 112 527 c 128
 124 559 139 586 156 608 c 128
 173 630 193 648 212 661 c 128
 231 674 248 681 263 681 c 0
EndSplineSet
Substitution2: "'smcp' Lowercase to Small Capitals lookup 2-1" f.sc
EndChar
StartChar: g
Encoding: 103 103 70
Width: 932
Flags: HW
LayerCount: 2
Fore
SplineSet
430 818 m 27
 376 818 333.166666667 794.333333333 301.5 747 c 128
 269.833333333 699.666666667 254 645.333333333 254 584 c 0
 254 518.666666667 271.5 460.666666667 306.5 410 c 128
 341.5 359.333333333 388 334 446 334 c 0
 498 334 539.333333333 357.166666667 570 403.5 c 128
 600.666666667 449.833333333 616 502.666666667 616 562 c 0
 616 630 599.5 689.666666667 566.5 741 c 128
 533.5 792.333333333 488 818 430 818 c 27
510 -8 m 0
 398 -8 336 -11.3333333333 324 -18 c 0
 294.666666667 -34.6666666667 267.333333333 -55.3333333333 242 -80 c 128
 216.666666667 -104.666666667 204 -128.666666667 204 -152 c 0
 204 -218.666666667 227.833333333 -272.666666667 275.5 -314 c 128
 323.166666667 -355.333333333 388.666666667 -376 472 -376 c 0
 517.333333333 -376 563.5 -366 610.5 -346 c 128
 657.5 -326 696.5 -299.166666667 727.5 -265.5 c 128
 758.5 -231.833333333 774 -197.333333333 774 -162 c 0
 774 -146.666666667 769 -130.5 759 -113.5 c 128
 749 -96.5 734 -79.8333333333 714 -63.5 c 128
 694 -47.1666666667 666.166666667 -33.8333333333 630.5 -23.5 c 128
 594.833333333 -13.1666666667 554.666666667 -8 510 -8 c 0
602 134 m 2
 682 134 753.666666667 112.833333333 817 70.5 c 128
 880.333333333 28.1666666667 912 -20.6666666667 912 -76 c 0
 912 -116.666666667 897.666666667 -159.333333333 869 -204 c 128
 840.333333333 -248.666666667 802.833333333 -289.333333333 756.5 -326 c 128
 710.166666667 -362.666666667 654.5 -393 589.5 -417 c 128
 524.5 -441 458.666666667 -453.333333333 392 -454 c 0
 335.333333333 -454.666666667 281.333333333 -446.333333333 230 -429 c 128
 178.666666667 -411.666666667 135.166666667 -383.833333333 99.5 -345.5 c 128
 63.8333333333 -307.166666667 46 -262 46 -210 c 0
 46 -189.333333333 53.5 -168 68.5 -146 c 128
 83.5 -124 103.166666667 -103.666666667 127.5 -85 c 128
 151.833333333 -66.3333333333 174.5 -50.5 195.5 -37.5 c 128
 216.5 -24.5 237.333333333 -12.6666666667 258 -2 c 1
 216 11.3333333333 178.166666667 34.3333333333 144.5 67 c 128
 110.833333333 99.6666666667 94 138.666666667 94 184 c 1
 109.333333333 202 136.166666667 225.666666667 174.5 255 c 128
 212.833333333 284.333333333 243.333333333 306 266 320 c 1
 216.666666667 347.333333333 176.666666667 384.666666667 146 432 c 128
 115.333333333 479.333333333 100 527.333333333 100 576 c 0
 100 656.666666667 132.833333333 727.166666667 198.5 787.5 c 128
 264.166666667 847.833333333 344 878 438 878 c 0
 454 878 469.666666667 877.166666667 485 875.5 c 128
 500.333333333 873.833333333 515.5 870.666666667 530.5 866 c 128
 545.5 861.333333333 556.5 858 563.5 856 c 128
 570.5 854 581.666666667 849.833333333 597 843.5 c 2
 620 834 l 2
 637.333333333 827.333333333 652.666666667 822.666666667 666 820 c 1
 880 850 l 1
 893.333333333 846 900 839.333333333 900 830 c 0
 900 821.333333333 894.666666667 806.833333333 884 786.5 c 128
 873.333333333 766.166666667 863.333333333 753.333333333 854 748 c 1
 722 756 l 2
 716.666666667 756 714 754 714 750 c 1
 723.333333333 740.666666667 735 717.833333333 749 681.5 c 128
 763 645.166666667 770 607.333333333 770 568 c 0
 770 494.666666667 736.833333333 427.333333333 670.5 366 c 128
 604.166666667 304.666666667 524.666666667 274 432 274 c 0
 415.333333333 274 395 276 371 280 c 128
 347 284 330 288 320 292 c 1
 300 280.666666667 282.666666667 266.833333333 268 250.5 c 128
 253.333333333 234.166666667 246 218.666666667 246 204 c 0
 246 190.666666667 257.166666667 175.666666667 279.5 159 c 128
 301.833333333 142.333333333 330.666666667 134 366 134 c 2
 602 134 l 2
EndSplineSet
Substitution2: "'smcp' Lowercase to Small Capitals lookup 2-1" g.sc
EndChar
StartChar: h
Encoding: 104 104 71
Width: 503
Flags: W
HStem: -3 28<18 82 168 231 282 345 432 495> 371 57<235 320> 613 25<22 78> 658 20G<142 165>
VStem: 87 75<32 339 354 607> 351 75<32 339>
LayerCount: 2
Fore
SplineSet
300 428 m 0
 405 428 426 363 426 221 c 2
 426 113 l 2
 426 84 426 57 431 41 c 0
 434 30 481 25 493 25 c 1
 497 20 498 2 493 -3 c 1
 453 -1 426 2 388 2 c 0
 350 2 325 -1 285 -3 c 1
 280 2 281 20 285 25 c 1
 297 25 343 30 346 41 c 0
 351 57 351 84 351 113 c 2
 351 211 l 2
 351 332 331 371 255 371 c 0
 219 371 162 326 162 317 c 2
 162 113 l 2
 162 84 162 57 167 41 c 0
 170 30 217 25 229 25 c 1
 233 20 234 2 229 -3 c 1
 189 -1 162 2 124 2 c 0
 86 2 61 -1 21 -3 c 1
 16 2 17 20 21 25 c 1
 33 25 79 30 82 41 c 0
 87 57 87 84 87 113 c 2
 87 545 l 2
 87 558 87 584 82 596 c 0
 76 610 50 613 23 613 c 1
 22 613 20 638 24 639 c 1
 73 644 121 659 162 678 c 1
 167 678 173 669 173 662 c 1
 173 662 162 631 162 577 c 2
 162 577 162 364 162 356 c 0
 162 355 163 354 165 354 c 0
 166 354 167 355 168 356 c 0
 188 377 253 428 300 428 c 0
EndSplineSet
Substitution2: "'smcp' Lowercase to Small Capitals lookup 2-1" h.sc
EndChar
StartChar: k
Encoding: 107 107 74
Width: 1036
Flags: HW
LayerCount: 2
Fore
SplineSet
333 232 m 2
 333 154.67 336.33 105.33 343 84 c 0
 345.67 74.67 362.5 67 393.5 61 c 128
 424.5 55 449.67 52 469 52 c 1
 473 46.67 475.17 37 475.5 23 c 128
 475.83 9 473.67 -0.67 469 -6 c 1
 332.33 0.67 261 4 255 4 c 0
 231.67 4 209.17 3.5 187.5 2.5 c 128
 165.83 1.5 141 0 113 -2 c 128
 85 -4 61.67 -5.33 43 -6 c 1
 38.33 -0.67 36.17 9 36.5 23 c 128
 36.83 37 39 46.67 43 52 c 1
 62.33 52 87.5 55 118.5 61 c 128
 149.5 67 166.33 74.67 169 84 c 0
 175.67 105.33 179 154.67 179 232 c 2
 179 1116 l 2
 179 1169.33 175.67 1204 169 1220 c 0
 159 1244 118.33 1256 47 1256 c 0
 46.33 1256 45.67 1260.17 45 1268.5 c 128
 44.33 1276.83 44.17 1285.33 44.5 1294 c 128
 44.83 1302.67 46.33 1307.33 49 1308 c 0
 141 1317.33 235.67 1344 333 1388 c 1
 337.67 1388 342.5 1384.5 347.5 1377.5 c 128
 352.5 1370.5 355 1363.33 355 1356 c 1
 340.33 1313.33 333 1255.33 333 1182 c 2
 333 470 l 1
 357 478.67 411.67 519.33 497 592 c 0
 513.67 606 533 622.17 555 640.5 c 128
 577 658.83 594.5 673.17 607.5 683.5 c 128
 620.5 693.83 633.17 704.5 645.5 715.5 c 128
 657.83 726.5 666.83 735.33 672.5 742 c 128
 678.17 748.67 681 754 681 758 c 128
 681 762 679.67 765.67 677 769 c 128
 674.33 772.33 670.33 775.17 665 777.5 c 128
 659.67 779.83 654.33 781.83 649 783.5 c 128
 643.67 785.17 637.5 786.5 630.5 787.5 c 128
 623.5 788.5 617.5 789.17 612.5 789.5 c 128
 607.5 789.83 602 790.33 596 791 c 128
 590 791.67 586.33 792 585 792 c 1
 580.33 799.33 578.5 810.33 579.5 825 c 128
 580.5 839.67 583.67 848 589 850 c 1
 653.67 843.33 717.67 840 781 840 c 0
 849.67 840 908.33 843.33 957 850 c 1
 961 844 962.83 833.83 962.5 819.5 c 128
 962.17 805.17 960.33 796 957 792 c 1
 939 792 913.5 787.67 880.5 779 c 128
 847.5 770.33 821.67 759.33 803 746 c 0
 655.67 638.67 547.67 556 479 498 c 1
 517 457.33 564.83 404.5 622.5 339.5 c 128
 680.17 274.5 727.17 222.33 763.5 183 c 128
 799.83 143.67 825 118 839 106 c 0
 863 86.67 892.17 72.5 926.5 63.5 c 128
 960.83 54.5 993 50.67 1023 52 c 1
 1025 48.67 1026.5 41.17 1027.5 29.5 c 128
 1028.5 17.83 1027.67 9.33 1025 4 c 1
 1006.33 -4 963 -8 895 -8 c 0
 841.67 -8 792 1.67 746 21 c 128
 700 40.33 667.67 60 649 80 c 0
 534.33 204 439 307.33 363 390 c 0
 360.33 392.67 356.5 395.5 351.5 398.5 c 128
 346.5 401.5 342.17 403.83 338.5 405.5 c 2
 333 408 l 1
 333 232 l 2
EndSplineSet
Substitution2: "'smcp' Lowercase to Small Capitals lookup 2-1" k.sc
EndChar
StartChar: l
Encoding: 108 108 75
Width: 249
Flags: W
HStem: -3 28<18 82 168 231> 613 25<22 78> 658 20G<142 165>
VStem: 87 75<32 607>
LayerCount: 2
Fore
SplineSet
87 545 m 2
 87 559 87 584 82 596 c 0
 76 610 50 613 23 613 c 1
 22 613 20 638 24 639 c 1
 73 644 121 659 162 678 c 1
 167 678 173 669 173 662 c 1
 173 662 162 631 162 577 c 2
 162 113 l 2
 162 84 162 57 167 41 c 0
 170 30 217 25 229 25 c 1
 233 20 234 2 229 -3 c 1
 189 -1 162 2 124 2 c 0
 86 2 61 -1 21 -3 c 1
 16 2 17 20 21 25 c 1
 33 25 79 30 82 41 c 0
 87 57 87 84 87 113 c 2
 87 545 l 2
EndSplineSet
Substitution2: "'smcp' Lowercase to Small Capitals lookup 2-1" l.sc
EndChar
StartChar: m
Encoding: 109 109 76
Width: 771
Flags: HW
LayerCount: 2
Fore
SplineSet
312 428 m 0
 342 428 365 422 384 409 c 128
 403 396 416 376 423 347 c 1
 483 401 531 428 567 428 c 0
 588 428 606 425 621 419 c 128
 636 413 648 406 657 396 c 128
 666 386 674 372 679 354 c 128
 684 336 688 318 690 297 c 128
 692 276 693 251 693 221 c 2
 693 113 l 2
 693 75 695 51 698 41 c 0
 699 36 707 33 722 30 c 128
 737 27 750 25 759 25 c 1
 761 22 762 18 762 11 c 128
 762 4 761 0 759 -3 c 1
 692 0 658 2 655 2 c 0
 644 2 633 1 622 1 c 128
 611 1 599 0 585 -1 c 128
 571 -2 560 -3 551 -3 c 1
 549 0 548 4 548 11 c 128
 548 18 549 22 551 25 c 1
 560 25 573 27 588 30 c 128
 603 33 612 36 613 41 c 0
 616 51 618 75 618 113 c 2
 618 218 l 2
 618 239 617 256 616 271 c 128
 615 286 612 299 608 313 c 128
 604 327 600 337 593 345 c 128
 586 353 577 359 566 364 c 128
 555 369 542 371 526 371 c 0
 512 371 497 366 481 358 c 128
 465 350 453 342 444 333 c 128
 435 324 430 318 430 315 c 0
 430 315 431 313 431 309 c 128
 431 305 431 304 431 303 c 0
 434 286 435 263 435 233 c 2
 435 113 l 2
 435 75 437 51 440 41 c 0
 441 36 450 33 465 30 c 128
 480 27 492 25 501 25 c 1
 503 22 505 18 505 11 c 128
 505 4 503 0 501 -3 c 1
 434 0 400 2 397 2 c 0
 386 2 375 1 364 1 c 128
 353 1 342 0 328 -1 c 128
 314 -2 302 -3 293 -3 c 1
 291 0 290 4 290 11 c 128
 290 18 291 22 293 25 c 1
 302 25 315 27 330 30 c 128
 345 33 354 36 355 41 c 0
 358 51 360 75 360 113 c 2
 360 213 l 2
 360 273 353 314 340 337 c 128
 327 360 303 371 268 371 c 0
 248 371 228 364 208 350 c 128
 188 336 177 325 177 317 c 2
 177 113 l 2
 177 75 179 51 182 41 c 0
 183 36 192 33 207 30 c 128
 222 27 235 25 244 25 c 1
 246 22 247 18 247 11 c 128
 247 4 246 0 244 -3 c 1
 177 0 142 2 139 2 c 0
 128 2 117 1 106 1 c 128
 95 1 84 0 70 -1 c 128
 56 -2 45 -3 36 -3 c 1
 34 0 32 4 32 11 c 128
 32 18 34 22 36 25 c 1
 45 25 58 27 73 30 c 128
 88 33 96 36 97 41 c 0
 100 51 102 75 102 113 c 2
 102 291 l 2
 102 320 100 338 97 346 c 0
 95 351 89 354 79 357 c 128
 69 360 59 363 52 363 c 128
 45 363 40 363 34 363 c 1
 33 364 31 368 31 375 c 128
 31 382 32 386 34 389 c 1
 90 396 136 410 173 430 c 1
 175 430 178 428 180 424 c 128
 182 420 184 417 184 414 c 1
 180 387 178 370 178 363 c 0
 178 360 179 359 180 359 c 0
 181 359 182 360 183 361 c 0
 213 387 238 404 257 413 c 0
 277 422 295 428 312 428 c 0
EndSplineSet
Substitution2: "'smcp' Lowercase to Small Capitals lookup 2-1" m.sc
EndChar
StartChar: n
Encoding: 110 110 77
Width: 519
Flags: W
HStem: -3 28<33 96 183 246 297 360 446 510> 363 25<32 92> 371 57<250 334>
VStem: 102 75<32 339> 366 75<32 339>
LayerCount: 2
Fore
SplineSet
315 428 m 0xb8
 420 428 441 363 441 221 c 2
 441 113 l 2
 441 84 441 57 446 41 c 0
 449 30 495 25 507 25 c 1
 511 20 512 2 507 -3 c 1
 467 -1 441 2 403 2 c 0
 365 2 339 -1 299 -3 c 1
 294 2 295 20 299 25 c 1
 311 25 358 30 361 41 c 0
 366 57 366 84 366 113 c 2
 366 211 l 2
 366 332 346 371 270 371 c 0xb8
 234 371 177 326 177 317 c 2
 177 113 l 2
 177 84 177 57 182 41 c 0
 185 30 231 25 243 25 c 1
 247 20 248 2 243 -3 c 1
 203 -1 177 2 139 2 c 0
 101 2 75 -1 35 -3 c 1
 30 2 31 20 35 25 c 1
 47 25 94 30 97 41 c 0
 102 57 102 84 102 113 c 2
 102 291 l 2
 102 304 102 334 97 346 c 0
 90 363 41 363 34 363 c 1
 32 365 30 384 34 389 c 1xd8
 84 396 134 409 173 430 c 1
 178 430 184 419 184 414 c 1
 183 407 178 366 178 358 c 0
 178 357 178 354 180 354 c 0
 181 354 182 355 183 356 c 0
 203 377 268 428 315 428 c 0xb8
EndSplineSet
Substitution2: "'smcp' Lowercase to Small Capitals lookup 2-1" n.sc
EndChar
StartChar: o
Encoding: 111 111 78
Width: 497
Flags: W
HStem: -7 32<209 313> 396 32<185 289>
VStem: 40 84<118 306> 373 84<114 302>
LayerCount: 2
Fore
SplineSet
237 396 m 0
 154 396 124 312 124 228 c 0
 124 133 172 25 260 25 c 0
 343 25 373 110 373 193 c 0
 373 288 324 396 237 396 c 0
248 429 m 0
 377 429 457 338 457 216 c 0
 457 90 368 -7 250 -7 c 0
 121 -7 40 86 40 208 c 0
 40 334 130 429 248 429 c 0
EndSplineSet
Substitution2: "'smcp' Lowercase to Small Capitals lookup 2-1" o.sc
EndChar
StartChar: p
Encoding: 112 112 79
Width: 1020
Flags: HW
LayerCount: 2
Fore
SplineSet
581 876 m 0
 639.666666667 876 693 862.833333333 741 836.5 c 128
 789 810.166666667 827.166666667 776 855.5 734 c 128
 883.833333333 692 905.5 647.666666667 920.5 601 c 128
 935.5 554.333333333 943 508.666666667 943 464 c 0
 943 401.333333333 929.166666667 340.166666667 901.5 280.5 c 128
 873.833333333 220.833333333 838 169.5 794 126.5 c 128
 750 83.5 699.833333333 49 643.5 23 c 128
 587.166666667 -3 531 -16 475 -16 c 0
 428.333333333 -16 381.666666667 -8.66666666667 335 6 c 1
 329.666666667 -0.666666666667 327 -9.33333333333 327 -20 c 2
 327 -214 l 2
 327 -291.333333333 330.333333333 -340.666666667 337 -362 c 0
 339.666666667 -371.333333333 356.5 -379 387.5 -385 c 128
 418.5 -391 443.666666667 -394 463 -394 c 1
 467 -399.333333333 469.166666667 -409 469.5 -423 c 128
 469.833333333 -437 467.666666667 -446.666666667 463 -452 c 1
 326.333333333 -445.333333333 255 -442 249 -442 c 0
 225.666666667 -442 203.166666667 -442.5 181.5 -443.5 c 128
 159.833333333 -444.5 135 -446 107 -448 c 128
 79 -450 55.6666666667 -451.333333333 37 -452 c 1
 32.3333333333 -446.666666667 30.1666666667 -437 30.5 -423 c 128
 30.8333333333 -409 33 -399.333333333 37 -394 c 1
 56.3333333333 -394 81.5 -391 112.5 -385 c 128
 143.5 -379 160.333333333 -371.333333333 163 -362 c 0
 168.333333333 -345.333333333 171.666666667 -296 173 -214 c 1
 173 604 l 2
 173 657.333333333 169.666666667 692 163 708 c 0
 159 718 146.333333333 726 125 732 c 128
 103.666666667 738 85.8333333333 741.5 71.5 742.5 c 128
 57.1666666667 743.5 44.3333333333 744 33 744 c 1
 30.3333333333 746.666666667 28.8333333333 754.666666667 28.5 768 c 128
 28.1666666667 781.333333333 29.6666666667 790.666666667 33 796 c 1
 147 811.333333333 242.333333333 839.333333333 319 880 c 1
 323.666666667 880 328.5 876 333.5 868 c 128
 338.5 860 341 853.333333333 341 848 c 0
 341 847.333333333 338.666666667 835.166666667 334 811.5 c 128
 329.333333333 787.833333333 327 772.666666667 327 766 c 0
 327 760.666666667 328.333333333 758 331 758 c 0
 332.333333333 758 334.333333333 759.333333333 337 762 c 0
 368.333333333 788.666666667 407.833333333 814.333333333 455.5 839 c 128
 503.166666667 863.666666667 545 876 581 876 c 0
495 758 m 0
 456.333333333 758 418.666666667 748.833333333 382 730.5 c 128
 345.333333333 712.166666667 327 695.333333333 327 680 c 2
 327 200 l 2
 327 153.333333333 347.166666667 117.333333333 387.5 92 c 128
 427.833333333 66.6666666667 469.666666667 54 513 54 c 0
 565.666666667 54 612.5 71 653.5 105 c 128
 694.5 139 725 181.166666667 745 231.5 c 128
 765 281.833333333 775 334.666666667 775 390 c 0
 775 504.666666667 748.166666667 594.666666667 694.5 660 c 128
 640.833333333 725.333333333 574.333333333 758 495 758 c 0
EndSplineSet
Substitution2: "'smcp' Lowercase to Small Capitals lookup 2-1" p.sc
EndChar
StartChar: q
Encoding: 113 113 80
Width: 994
Flags: HW
LayerCount: 2
Fore
SplineSet
512 804 m 0
 467.333333333 804 427.166666667 792.5 391.5 769.5 c 128
 355.833333333 746.5 328 717.333333333 308 682 c 128
 288 646.666666667 272.666666667 610.666666667 262 574 c 128
 251.333333333 537.333333333 246 502.666666667 246 470 c 0
 246 355.333333333 273.166666667 266 327.5 202 c 128
 381.833333333 138 452 106 538 106 c 0
 576 106 612.166666667 115.333333333 646.5 134 c 128
 680.833333333 152.666666667 698 170 698 186 c 2
 698 664 l 2
 698 704.666666667 678.833333333 738.166666667 640.5 764.5 c 128
 602.166666667 790.833333333 559.333333333 804 512 804 c 0
572 876 m 0
 591.333333333 876 630.166666667 867.666666667 688.5 851 c 128
 746.833333333 834.333333333 787.333333333 826 810 826 c 0
 824.666666667 826 838 828 850 832 c 1
 855.333333333 832 861 826.166666667 867 814.5 c 128
 873 802.833333333 876 794 876 788 c 1
 860 752.666666667 852 703.333333333 852 640 c 2
 852 -216 l 2
 852 -293.333333333 855.333333333 -342.666666667 862 -364 c 0
 864.666666667 -373.333333333 881.5 -381 912.5 -387 c 128
 943.5 -393 968.666666667 -396 988 -396 c 1
 992 -401.333333333 994.166666667 -411 994.5 -425 c 128
 994.833333333 -439 992.666666667 -448.666666667 988 -454 c 1
 851.333333333 -447.333333333 780 -444 774 -444 c 0
 750.666666667 -444 728.166666667 -444.5 706.5 -445.5 c 128
 684.833333333 -446.5 660 -448 632 -450 c 128
 604 -452 580.666666667 -453.333333333 562 -454 c 1
 557.333333333 -448.666666667 555.166666667 -439 555.5 -425 c 128
 555.833333333 -411 558 -401.333333333 562 -396 c 1
 581.333333333 -396 606.5 -393 637.5 -387 c 128
 668.5 -381 685.333333333 -373.333333333 688 -364 c 0
 694.666666667 -342.666666667 698 -293.333333333 698 -216 c 2
 698 80 l 2
 698 86.6666666667 696.833333333 92.5 694.5 97.5 c 128
 692.166666667 102.5 688.666666667 103.333333333 684 100 c 0
 660.666666667 79.3333333333 622.5 55.1666666667 569.5 27.5 c 128
 516.5 -0.166666666667 471.333333333 -14 434 -14 c 0
 390 -14 348.333333333 -5.5 309 11.5 c 128
 269.666666667 28.5 236.333333333 51.1666666667 209 79.5 c 128
 181.666666667 107.833333333 157.833333333 140 137.5 176 c 128
 117.166666667 212 102.166666667 249 92.5 287 c 128
 82.8333333333 325 78 362 78 398 c 0
 78 450.666666667 88.1666666667 502.166666667 108.5 552.5 c 128
 128.833333333 602.833333333 156.166666667 647 190.5 685 c 128
 224.833333333 723 263.166666667 756.666666667 305.5 786 c 128
 347.833333333 815.333333333 392.166666667 837.666666667 438.5 853 c 128
 484.833333333 868.333333333 529.333333333 876 572 876 c 0
EndSplineSet
Substitution2: "'smcp' Lowercase to Small Capitals lookup 2-1" q.sc
EndChar
StartChar: r
Encoding: 114 114 81
Width: 374
Flags: HW
LayerCount: 2
Fore
SplineSet
296 427 m 0
 309 427 321 424 332 418 c 128
 343 412 351 406 356 398 c 1
 359 390 360 382 360 372 c 0
 360 356 356 344 349 335 c 128
 342 326 335 321 328 321 c 0
 324 321 320 322 316 324 c 128
 312 326 308 329 302 333 c 128
 296 337 293 339 292 340 c 0
 280 348 267 352 255 352 c 0
 236 352 219 340 202 318 c 128
 185 296 177 278 177 264 c 2
 177 113 l 2
 177 75 179 51 182 41 c 0
 183 36 195 33 217 30 c 128
 239 27 255 25 266 25 c 1
 268 22 269 18 269 11 c 128
 269 4 268 0 266 -3 c 1
 199 0 159 2 145 2 c 0
 139 2 103 0 36 -3 c 1
 34 0 32 4 32 11 c 128
 32 18 34 22 36 25 c 1
 45 25 58 27 73 30 c 128
 88 33 96 36 97 41 c 0
 100 49 101 73 102 113 c 1
 102 295 l 2
 102 321 100 338 97 346 c 0
 95 351 89 354 79 357 c 128
 69 360 59 363 52 363 c 128
 45 363 40 363 34 363 c 1
 33 364 31 368 31 375 c 128
 31 382 32 386 34 389 c 1
 90 396 136 410 173 430 c 1
 175 430 178 428 180 424 c 128
 182 420 184 417 184 414 c 1
 183 410 182 396 180 370 c 128
 178 344 177 329 177 324 c 0
 177 323 177 322 178 322 c 128
 179 322 180 321 180 321 c 128
 180 321 181 321 181 322 c 0
 192 346 209 370 232 393 c 128
 255 416 276 427 296 427 c 0
EndSplineSet
Substitution2: "'smcp' Lowercase to Small Capitals lookup 2-1" r.sc
EndChar
StartChar: s
Encoding: 115 115 82
Width: 738
Flags: HW
LayerCount: 2
Fore
SplineSet
390 874 m 0
 420 874 457 870.17 501 862.5 c 128
 545 854.83 576 850 594 848 c 1
 607.33 788 615.33 714.67 618 628 c 0
 618 621.33 611.33 618 598 618 c 0
 583.33 618 572 621.33 564 628 c 1
 552 672.67 530.67 714.5 500 753.5 c 128
 469.33 792.5 434.67 812 396 812 c 0
 350 812 314.83 800.33 290.5 777 c 128
 266.17 753.67 254 723.33 254 686 c 0
 254 669.33 256.5 653.83 261.5 639.5 c 128
 266.5 625.17 272 613.33 278 604 c 128
 284 594.67 294.17 584.33 308.5 573 c 128
 322.83 561.67 334 553.33 342 548 c 128
 350 542.67 364.33 534.17 385 522.5 c 128
 405.67 510.83 420 502.67 428 498 c 0
 434 494.67 447.33 487 468 475 c 128
 488.67 463 503.83 453.83 513.5 447.5 c 128
 523.17 441.17 537.17 431.83 555.5 419.5 c 128
 573.83 407.17 587.67 395.83 597 385.5 c 128
 606.33 375.17 616.5 362.83 627.5 348.5 c 128
 638.5 334.17 646.33 319.17 651 303.5 c 128
 655.67 287.83 658 271.33 658 254 c 0
 658 174.67 627.5 108.83 566.5 56.5 c 128
 505.5 4.17 433.33 -22 350 -22 c 0
 322.67 -22 297.17 -20.17 273.5 -16.5 c 128
 249.83 -12.83 222.17 -7.33 190.5 0 c 128
 158.83 7.33 134 12.67 116 16 c 1
 108 36.67 100.33 69.83 93 115.5 c 128
 85.67 161.17 82 197.33 82 224 c 1
 92.67 232 104.67 236 118 236 c 0
 126 236 132 234.67 136 232 c 1
 149.33 184.67 176.33 141.17 217 101.5 c 128
 257.67 61.83 302.67 42 352 42 c 0
 394 42 428.5 54.83 455.5 80.5 c 128
 482.5 106.17 496 141.33 496 186 c 0
 496 209.33 491.83 230.33 483.5 249 c 128
 475.17 267.67 461.33 285 442 301 c 128
 422.67 317 405.33 329.83 390 339.5 c 128
 374.67 349.17 351.33 362.17 320 378.5 c 128
 288.67 394.83 266 407.33 252 416 c 0
 205.33 442.67 168.33 472.83 141 506.5 c 128
 113.67 540.17 100 581.33 100 630 c 0
 100 701.33 129 759.83 187 805.5 c 128
 245 851.17 312.67 874 390 874 c 0
EndSplineSet
Substitution2: "'smcp' Lowercase to Small Capitals lookup 2-1" s.sc
EndChar
StartChar: t
Encoding: 116 116 83
Width: 622
Flags: W
LayerCount: 2
Fore
SplineSet
320 864 m 1,0,-1
 578 864 l 2,1,2
 588 864 588 864 588 842 c 0,3,4
 588 810 588 810 560 782 c 1,5,-1
 320 782 l 1,6,-1
 320 258 l 2,7,8
 320 94 320 94 452 94 c 0,9,10
 518 94 518 94 582 140 c 1,11,12
 588 137 588 137 588 126 c 0,13,14
 588 104 588 104 580 96 c 0,15,16
 560 74 560 74 535.5 52.5 c 128,-1,17
 511 31 511 31 465 8.5 c 128,-1,18
 419 -14 419 -14 374 -14 c 0,19,20
 333 -14 333 -14 298 -4 c 128,-1,21
 263 6 263 6 232 29 c 128,-1,22
 201 52 201 52 183.5 96 c 128,-1,23
 166 140 166 140 166 202 c 2,24,-1
 166 782 l 1,25,-1
 50 782 l 2,26,27
 40 782 40 782 40 800 c 0,28,29
 40 805 40 805 62 830.5 c 128,-1,30
 84 856 84 856 92 864 c 1,31,-1
 166 864 l 1,32,-1
 166 990 l 1,33,34
 182 1009 182 1009 212 1041.5 c 128,-1,35
 242 1074 242 1074 264 1098 c 128,-1,36
 286 1122 286 1122 288 1124 c 0,37,38
 293 1129 293 1129 300.5 1131 c 128,-1,39
 308 1133 308 1133 314 1131.5 c 128,-1,40
 320 1130 320 1130 320 1126 c 2,41,-1
 320 864 l 1,0,-1
EndSplineSet
Substitution2: "'smcp' Lowercase to Small Capitals lookup 2-1" t.sc
EndChar
StartChar: u
Encoding: 117 117 84
Width: 1030
Flags: HW
LayerCount: 2
Fore
SplineSet
699 640 m 2
 699 692 693.67 728 683 748 c 0
 668.33 774.67 631 788 571 788 c 1
 567.67 791.33 565.83 799.5 565.5 812.5 c 128
 565.17 825.5 567 834.67 571 840 c 1
 680.33 844 771.67 857.33 845 880 c 1
 849.67 880 854.5 873.5 859.5 860.5 c 128
 864.5 847.5 867 838 867 832 c 1
 857.67 813.33 853 770 853 702 c 2
 853 610 l 1
 853 282 l 2
 853 224 857.67 173.33 867 130 c 0
 869 121.33 876.33 114.33 889 109 c 128
 901.67 103.67 914.5 100.17 927.5 98.5 c 128
 940.5 96.83 953.17 95.67 965.5 95 c 128
 977.83 94.33 984.33 94 985 94 c 0
 989 92 991 84.67 991 72 c 0
 991 68 989.33 61.67 986 53 c 128
 982.67 44.33 979 40 975 40 c 0
 955.67 38.67 933.5 36 908.5 32 c 128
 883.5 28 860.17 23.33 838.5 18 c 128
 816.83 12.67 796.67 7.33 778 2 c 128
 750 -6 750 -6 732.5 -11 c 2
 715 -16 l 1
 710.33 -16 706.5 -12.67 703.5 -6 c 128
 700.5 0.67 699 8 699 16 c 2
 699 108 l 1
 695 118 l 1
 664.33 85.33 621.33 55.17 566 27.5 c 128
 510.67 -0.17 459 -14 411 -14 c 0
 370.33 -14 334.67 -5.33 304 12 c 128
 273.33 29.33 249.17 51 231.5 77 c 128
 213.83 103 199.5 134.67 188.5 172 c 128
 177.5 209.33 170.17 244.5 166.5 277.5 c 128
 162.83 310.5 161 346 161 384 c 2
 161 640 l 2
 161 692 155.67 728 145 748 c 0
 130.33 774.67 93 788 33 788 c 1
 29.67 791.33 27.83 799.5 27.5 812.5 c 128
 27.17 825.5 29 834.67 33 840 c 1
 142.33 844 233.67 857.33 307 880 c 1
 311.67 880 316.5 874.83 321.5 864.5 c 128
 326.5 854.17 329 846 329 840 c 1
 319.67 821.33 315 775.33 315 702 c 2
 315 616 l 1
 315 408 l 2
 315 301.33 331 223 363 173 c 128
 395 123 445.67 98 515 98 c 0
 558.33 98 600 110.17 640 134.5 c 128
 680 158.83 699.67 183.33 699 208 c 1
 699 640 l 2
EndSplineSet
Substitution2: "'smcp' Lowercase to Small Capitals lookup 2-1" u.sc
EndChar
StartChar: v
Encoding: 118 118 85
Width: 461
Flags: HW
LayerCount: 2
Fore
SplineSet
100 415 m 0
 111 415 122 416 132 416 c 128
 142 416 152 417 165 418 c 128
 178 419 189 420 198 420 c 1
 199 417 199 412 198 404 c 128
 197 396 196 392 194 392 c 0
 190 392 184 392 178 391 c 128
 172 390 164 388 157 385 c 128
 150 382 146 379 146 375 c 0
 146 374 146 372 147 371 c 2
 254 107 l 1
 287 194 316 268 341 329 c 0
 345 338 347 349 347 360 c 0
 347 370 342 377 332 383 c 128
 322 389 308 392 291 392 c 0
 289 392 287 396 287 404 c 128
 287 412 289 417 291 420 c 1
 298 420 305 419 314 418 c 128
 323 417 331 416 339 416 c 128
 347 416 358 415 370 415 c 0
 381 415 390 416 399 416 c 128
 408 416 418 417 429 418 c 128
 440 419 450 420 460 420 c 1
 462 417 463 412 462 404 c 128
 461 396 460 392 458 392 c 0
 450 392 438 389 424 384 c 128
 410 379 401 370 396 358 c 0
 326 192 278 75 250 6 c 0
 249 2 244 -1 238 -5 c 128
 232 -9 227 -11 224 -11 c 0
 219 -11 216 -10 215 -7 c 0
 200 29 182 74 161 127 c 128
 140 180 120 226 104 265 c 128
 88 304 72 339 56 372 c 0
 50 385 32 392 2 392 c 1
 -2 401 -2 411 2 420 c 1
 11 420 23 419 35 418 c 128
 47 417 58 416 68 416 c 128
 78 416 88 415 100 415 c 0
EndSplineSet
Substitution2: "'smcp' Lowercase to Small Capitals lookup 2-1" v.sc
EndChar
StartChar: w
Encoding: 119 119 86
Width: 704
Flags: HW
LayerCount: 2
Fore
SplineSet
99 415 m 0
 110 415 120 416 130 416 c 128
 140 416 151 417 164 418 c 128
 177 419 187 420 196 420 c 1
 197 417 198 411 198 404 c 128
 198 397 196 393 194 392 c 1
 189 392 184 392 178 391 c 128
 172 390 165 388 157 384 c 128
 149 380 146 375 146 369 c 0
 146 368 147 363 150 354 c 0
 157 336 191 256 251 114 c 1
 259 134 268 157 278 182 c 128
 288 207 296 227 301 240 c 128
 306 253 311 266 316 279 c 128
 321 292 325 302 327 308 c 128
 329 314 330 317 330 319 c 0
 330 323 328 331 323 343 c 128
 318 355 313 365 307 373 c 0
 299 385 284 392 264 392 c 1
 261 393 260 398 260 405 c 128
 260 412 261 417 264 420 c 1
 272 420 285 418 303 417 c 128
 321 416 338 415 353 415 c 0
 356 415 389 417 454 420 c 1
 455 417 456 412 456 405 c 128
 456 398 455 394 453 392 c 1
 420 392 404 381 404 360 c 0
 404 359 405 356 407 350 c 0
 409 345 411 338 414 330 c 128
 417 322 420 310 426 296 c 128
 432 282 437 267 443 252 c 128
 449 237 457 217 467 191 c 128
 477 165 487 141 496 117 c 1
 545 238 574 311 582 336 c 0
 586 346 587 354 587 359 c 0
 587 366 585 372 582 376 c 128
 579 380 573 383 565 385 c 128
 557 387 552 389 548 390 c 128
 544 391 537 391 528 392 c 1
 526 394 525 398 525 405 c 128
 525 412 526 417 528 420 c 1
 537 420 550 418 566 417 c 128
 582 416 598 415 613 415 c 0
 624 415 634 416 643 416 c 128
 652 416 661 417 672 418 c 128
 683 419 693 420 703 420 c 1
 704 419 704 414 704 406 c 128
 704 398 703 394 700 392 c 1
 691 392 679 389 664 383 c 128
 649 377 639 368 634 356 c 0
 577 211 529 95 492 6 c 0
 491 2 488 -1 483 -5 c 128
 478 -9 475 -11 472 -11 c 0
 465 -11 461 -10 460 -7 c 2
 352 275 l 1
 246 8 l 2
 245 6 243 2 237 -3 c 128
 231 -8 227 -11 222 -11 c 128
 217 -11 214 -10 213 -7 c 0
 159 129 106 255 55 370 c 0
 49 384 31 392 2 392 c 1
 1 395 0 399 0 406 c 128
 0 413 1 417 2 420 c 1
 12 420 22 419 34 418 c 128
 46 417 56 416 66 416 c 128
 76 416 87 415 99 415 c 0
EndSplineSet
Substitution2: "'smcp' Lowercase to Small Capitals lookup 2-1" w.sc
EndChar
StartChar: x
Encoding: 120 120 87
Width: 464
Flags: W
HStem: -3 28<11 75 145 197 255 297 403 458> 392 28<22 80 178 219 260 315 371 439>
LayerCount: 2
Fore
SplineSet
120 415 m 0
 160 415 197 418 219 420 c 1
 220 416 222 398 217 392 c 1
 201 392 178 390 178 375 c 0
 178 372 180 368 183 363 c 2
 247 261 l 1
 273 302 316 353 316 373 c 0
 316 393 268 391 262 392 c 1
 260 393 259 416 262 420 c 1
 302 418 320 415 360 415 c 0
 395 415 425 418 439 420 c 1
 440 415 440 392 438 392 c 1
 419 391 375 387 362 370 c 0
 327 321 274 245 265 234 c 1
 275 219 382 61 382 61 c 2
 402 33 429 25 457 25 c 1
 459 25 459 1 456 -3 c 1
 420 -1 400 2 364 2 c 0
 322 2 298 -1 256 -3 c 1
 253 4 254 25 257 25 c 1
 271 26 298 31 298 43 c 0
 298 45 297 47 296 49 c 2
 296 49 245 132 219 171 c 1
 200 143 175 108 148 65 c 0
 143 57 143 52 143 47 c 0
 143 28 174 27 196 25 c 1
 198 25 199 2 195 -3 c 1
 157 -1 141 2 103 2 c 0
 66 2 48 -1 11 -3 c 1
 9 5 10 20 13 25 c 1
 44 30 84 33 106 63 c 2
 106 63 196 194 201 201 c 1
 193 213 88 370 88 370 c 2
 77 386 42 392 22 392 c 1
 20 392 20 414 23 420 c 1
 55 417 82 415 120 415 c 0
EndSplineSet
Substitution2: "'smcp' Lowercase to Small Capitals lookup 2-1" x.sc
EndChar
StartChar: y
Encoding: 121 121 88
Width: 458
Flags: HW
LayerCount: 2
Fore
SplineSet
99 415 m 0
 136 415 169 417 197 420 c 1
 198 417 199 412 198 404 c 128
 197 396 195 392 193 392 c 0
 189 392 183 392 177 391 c 128
 171 390 163 388 156 385 c 128
 149 382 145 379 145 375 c 0
 145 374 145 372 146 371 c 2
 250 107 l 1
 283 194 311 268 336 329 c 0
 340 338 342 349 342 360 c 0
 342 370 337 377 327 383 c 128
 317 389 303 392 286 392 c 0
 284 392 282 396 282 404 c 128
 282 412 284 417 286 420 c 1
 310 417 340 415 374 415 c 0
 396 415 423 417 456 420 c 1
 458 417 458 412 457 404 c 128
 456 396 455 392 453 392 c 0
 445 392 433 389 419 384 c 128
 405 379 396 370 391 358 c 0
 321 192 273 75 245 6 c 0
 242 -2 235 -20 224 -49 c 128
 213 -78 203 -100 195 -118 c 128
 187 -136 178 -152 167 -168 c 0
 142 -204 114 -223 82 -223 c 0
 54 -223 40 -209 40 -181 c 0
 40 -172 43 -161 51 -152 c 1
 77 -152 97 -149 112 -143 c 128
 127 -137 144 -121 162 -97 c 0
 169 -88 178 -71 189 -46 c 128
 200 -21 206 -5 208 2 c 1
 143 168 92 291 55 372 c 0
 49 385 31 392 1 392 c 0
 0 392 0 396 0 405 c 128
 0 414 0 419 1 420 c 1
 32 417 65 415 99 415 c 0
EndSplineSet
Substitution2: "'smcp' Lowercase to Small Capitals lookup 2-1" y.sc
EndChar
StartChar: z
Encoding: 122 122 89
Width: 894
Flags: HW
LayerCount: 2
Fore
SplineSet
296 862 m 2
 552 862 l 2
 627.33 862 708.67 867.33 796 878 c 1
 800 871.33 802 855.33 802 830 c 1
 448.67 327.33 272 74 272 70 c 1
 552 70 l 2
 608.67 70 656.17 87.83 694.5 123.5 c 128
 732.83 159.17 758.67 201.33 772 250 c 1
 773.33 258 778 262 786 262 c 128
 794 262 803.33 259.5 814 254.5 c 128
 824.67 249.5 832.67 244 838 238 c 1
 798 140.67 768 61.33 748 0 c 1
 98 0 l 1
 90.67 2 83.83 7.17 77.5 15.5 c 128
 71.17 23.83 68 32 68 40 c 128
 68 48 68.67 52.67 70 54 c 2
 584 792 l 1
 304 794 l 2
 286 794 269.33 791.17 254 785.5 c 128
 238.67 779.83 226.5 773.33 217.5 766 c 128
 208.5 758.67 199.83 749 191.5 737 c 128
 183.17 725 177.17 715 173.5 707 c 128
 169.83 699 165.67 688.83 161 676.5 c 128
 156.33 664.17 153.33 656.67 152 654 c 0
 150 650 144.5 646 135.5 642 c 128
 126.5 638 117.33 636 108 636 c 0
 93.33 636 86 638 86 642 c 1
 102 701.33 112.67 780 118 878 c 1
 188.67 867.33 248 862 296 862 c 2
EndSplineSet
Substitution2: "'smcp' Lowercase to Small Capitals lookup 2-1" z.sc
EndChar
StartChar: braceleft
Encoding: 123 123 90
Width: 444
Flags: W
LayerCount: 2
Fore
SplineSet
208 766 m 0,0,1
 208 777 208 777 207 787.5 c 128,-1,2
 206 798 206 798 202.5 810.5 c 128,-1,3
 199 823 199 823 197 830.5 c 128,-1,4
 195 838 195 838 189 853.5 c 128,-1,5
 183 869 183 869 181 873 c 128,-1,6
 179 877 179 877 171 895.5 c 128,-1,7
 163 914 163 914 162 916 c 0,8,9
 116 1016 116 1016 116 1082 c 0,10,11
 116 1214 116 1214 184.5 1311.5 c 128,-1,12
 253 1409 253 1409 330 1440 c 1,13,14
 342 1440 342 1440 352 1428 c 128,-1,15
 362 1416 362 1416 362 1402 c 1,16,17
 311 1377 311 1377 257.5 1312 c 128,-1,18
 204 1247 204 1247 204 1178 c 0,19,20
 204 1162 204 1162 205 1147.5 c 128,-1,21
 206 1133 206 1133 209.5 1118 c 128,-1,22
 213 1103 213 1103 215.5 1093 c 128,-1,23
 218 1083 218 1083 224.5 1066.5 c 128,-1,24
 231 1050 231 1050 233.5 1044 c 128,-1,25
 236 1038 236 1038 244 1019.5 c 128,-1,26
 252 1001 252 1001 254 996 c 0,27,28
 300 900 300 900 300 810 c 0,29,30
 300 723 300 723 252 659 c 128,-1,31
 204 595 204 595 154 576 c 1,32,33
 204 557 204 557 252 493 c 128,-1,34
 300 429 300 429 300 342 c 0,35,36
 300 252 300 252 254 156 c 0,37,38
 252 151 252 151 244 132.5 c 128,-1,39
 236 114 236 114 233.5 108 c 128,-1,40
 231 102 231 102 224.5 85.5 c 128,-1,41
 218 69 218 69 215.5 59 c 128,-1,42
 213 49 213 49 209.5 34 c 128,-1,43
 206 19 206 19 205 4.5 c 128,-1,44
 204 -10 204 -10 204 -26 c 0,45,46
 204 -95 204 -95 257.5 -160 c 128,-1,47
 311 -225 311 -225 362 -250 c 1,48,49
 362 -264 362 -264 352 -276 c 128,-1,50
 342 -288 342 -288 330 -288 c 1,51,52
 253 -257 253 -257 184.5 -159.5 c 128,-1,53
 116 -62 116 -62 116 70 c 0,54,55
 116 136 116 136 162 236 c 0,56,57
 163 238 163 238 171 256.5 c 128,-1,58
 179 275 179 275 181 279 c 128,-1,59
 183 283 183 283 189 298.5 c 128,-1,60
 195 314 195 314 197 321.5 c 128,-1,61
 199 329 199 329 202.5 341.5 c 128,-1,62
 206 354 206 354 207 364.5 c 128,-1,63
 208 375 208 375 208 386 c 0,64,65
 208 515 208 515 56 554 c 1,66,67
 52 561 52 561 52 576 c 128,-1,68
 52 591 52 591 56 598 c 1,69,70
 208 637 208 637 208 766 c 0,0,1
EndSplineSet
Substitution2: "'smcp' Lowercase to Small Capitals lookup 2-1" braceleft.sc
EndChar
StartChar: bar
Encoding: 124 124 91
Width: 410
Flags: HW
LayerCount: 2
Fore
SplineSet
257 -212 m 2
 257 -218.666666667 243.166666667 -226 215.5 -234 c 128
 187.833333333 -242 171 -246 165 -246 c 0
 161.666666667 -246 159.166666667 -245.5 157.5 -244.5 c 128
 155.833333333 -243.5 154.833333333 -242.5 154.5 -241.5 c 128
 154.166666667 -240.5 154.166666667 -238.5 154.5 -235.5 c 128
 154.833333333 -232.5 155 -230.666666667 155 -230 c 2
 155 1514 l 1
 153.666666667 1522 157 1527.33333333 165 1530 c 0
 197 1539.33333333 221.666666667 1544 239 1544 c 0
 244.333333333 1544 248.333333333 1543 251 1541 c 128
 253.666666667 1539 255 1537 255 1535 c 2
 255 1532 l 1
 257 -212 l 2
EndSplineSet
Substitution2: "'smcp' Lowercase to Small Capitals lookup 2-1" bar.sc
EndChar
StartChar: braceright
Encoding: 125 125 92
Width: 446
Flags: HW
LayerCount: 2
Fore
SplineSet
114 1440 m 1
 165.33 1419.33 213.83 1376.5 259.5 1311.5 c 128
 305.17 1246.5 328 1170 328 1082 c 0
 328 1038 312.67 982.67 282 916 c 0
 281.33 914.67 278.33 907.83 273 895.5 c 128
 267.67 883.17 264.33 875.67 263 873 c 128
 261.67 870.33 259 863.83 255 853.5 c 128
 251 843.17 248.33 835.5 247 830.5 c 128
 245.67 825.5 243.83 818.83 241.5 810.5 c 128
 239.17 802.17 237.67 794.5 237 787.5 c 128
 236.33 780.5 236 773.33 236 766 c 0
 236 680 286.67 624 388 598 c 1
 390.67 593.33 392 586 392 576 c 128
 392 566 390.67 558.67 388 554 c 1
 286.67 528 236 472 236 386 c 0
 236 378.67 236.33 371.5 237 364.5 c 128
 237.67 357.5 239.17 349.83 241.5 341.5 c 128
 243.83 333.17 245.67 326.5 247 321.5 c 128
 248.33 316.5 251 308.83 255 298.5 c 128
 259 288.17 261.67 281.67 263 279 c 128
 264.33 276.33 267.67 268.83 273 256.5 c 128
 278.33 244.17 281.33 237.33 282 236 c 0
 312.67 169.33 328 114 328 70 c 0
 328 -18 305.17 -94.5 259.5 -159.5 c 128
 213.83 -224.5 165.33 -267.33 114 -288 c 1
 106 -288 98.67 -284 92 -276 c 128
 85.33 -268 82 -259.33 82 -250 c 1
 116 -233.33 150.83 -203.33 186.5 -160 c 128
 222.17 -116.67 240 -72 240 -26 c 0
 240 -15.33 239.67 -5.17 239 4.5 c 128
 238.33 14.17 236.83 24 234.5 34 c 128
 232.17 44 230.17 52.33 228.5 59 c 128
 226.83 65.67 223.83 74.5 219.5 85.5 c 128
 215.17 96.5 212.17 104 210.5 108 c 128
 208.83 112 205.33 120.17 200 132.5 c 128
 194.67 144.83 191.33 152.67 190 156 c 0
 159.33 220 144 282 144 342 c 0
 144 400 160 450.33 192 493 c 128
 224 535.67 256.67 563.33 290 576 c 1
 256.67 588.67 224 616.33 192 659 c 128
 160 701.67 144 752 144 810 c 0
 144 870 159.33 932 190 996 c 0
 191.33 999.33 194.67 1007.17 200 1019.5 c 128
 205.33 1031.83 208.83 1040 210.5 1044 c 128
 212.17 1048 215.17 1055.5 219.5 1066.5 c 128
 223.83 1077.5 226.83 1086.33 228.5 1093 c 128
 230.17 1099.67 232.17 1108 234.5 1118 c 128
 236.83 1128 238.33 1137.83 239 1147.5 c 128
 239.67 1157.17 240 1167.33 240 1178 c 0
 240 1224 222.17 1268.67 186.5 1312 c 128
 150.83 1355.33 116 1385.33 82 1402 c 1
 82 1411.33 85.33 1420 92 1428 c 128
 98.67 1436 106 1440 114 1440 c 1
EndSplineSet
Substitution2: "'smcp' Lowercase to Small Capitals lookup 2-1" braceright.sc
EndChar
StartChar: asciitilde
Encoding: 126 126 93
Width: 1140
Flags: W
LayerCount: 2
Fore
SplineSet
542 554 m 0,0,1
 495 571 495 571 469 580 c 128,-1,2
 443 589 443 589 398.5 597.5 c 128,-1,3
 354 606 354 606 312 606 c 0,4,5
 259 606 259 606 217 582.5 c 128,-1,6
 175 559 175 559 130 518 c 1,7,8
 112 527 112 527 112 552 c 0,9,10
 112 606 112 606 201 657 c 128,-1,11
 290 708 290 708 372 708 c 0,12,13
 416 708 416 708 463.5 698.5 c 128,-1,14
 511 689 511 689 533.5 681 c 128,-1,15
 556 673 556 673 610 654 c 0,16,17
 657 637 657 637 683.5 628 c 128,-1,18
 710 619 710 619 755 610.5 c 128,-1,19
 800 602 800 602 844 602 c 0,20,21
 858 602 858 602 872 604.5 c 128,-1,22
 886 607 886 607 896.5 609 c 128,-1,23
 907 611 907 611 920.5 618 c 128,-1,24
 934 625 934 625 941 628.5 c 128,-1,25
 948 632 948 632 962.5 642.5 c 128,-1,26
 977 653 977 653 981.5 656.5 c 128,-1,27
 986 660 986 660 1003 673.5 c 128,-1,28
 1020 687 1020 687 1024 690 c 1,29,30
 1042 681 1042 681 1042 656 c 0,31,32
 1042 605 1042 605 959.5 552.5 c 128,-1,33
 877 500 877 500 786 500 c 0,34,35
 740 500 740 500 694 508.5 c 128,-1,36
 648 517 648 517 618.5 526.5 c 128,-1,37
 589 536 589 536 542 554 c 0,0,1
EndSplineSet
Substitution2: "'smcp' Lowercase to Small Capitals lookup 2-1" asciitilde.sc
EndChar
StartChar: exclamdown
Encoding: 161 161 95
Width: 430
Flags: HW
LayerCount: 2
Fore
SplineSet
106 748 m 128
 106 778 116.5 804.166666667 137.5 826.5 c 128
 158.5 848.833333333 184 860 214 860 c 128
 244 860 270.166666667 848.833333333 292.5 826.5 c 128
 314.833333333 804.166666667 326 778 326 748 c 128
 326 718 314.833333333 692.5 292.5 671.5 c 128
 270.166666667 650.5 244 640 214 640 c 128
 184 640 158.5 650.5 137.5 671.5 c 128
 116.5 692.5 106 718 106 748 c 128
206 -446 m 0
 177.333333333 -446 155.5 -434.166666667 140.5 -410.5 c 128
 125.5 -386.833333333 118 -360 118 -330 c 0
 118 -319.333333333 119 -300.5 121 -273.5 c 128
 123 -246.5 126 -207.666666667 130 -157 c 128
 134 -106.333333333 138.5 -53.5 143.5 1.5 c 128
 148.5 56.5 155 130.833333333 163 224.5 c 128
 171 318.166666667 178.666666667 408 186 494 c 1
 194 510 204.666666667 518.666666667 218 520 c 1
 232 514.666666667 241.333333333 507.333333333 246 498 c 1
 286 38 306 -238 306 -330 c 0
 306 -360 296.833333333 -386.833333333 278.5 -410.5 c 128
 260.166666667 -434.166666667 236 -446 206 -446 c 0
EndSplineSet
Substitution2: "'smcp' Lowercase to Small Capitals lookup 2-1" exclamdown.sc
EndChar
StartChar: cent
Encoding: 162 162 96
Width: 435
Flags: W
HStem: -8 64<193 320> 385 43<195 289>
VStem: 44 76<129 282> 185 27<-42 -1> 266 27<418 460>
LayerCount: 2
Fore
SplineSet
266 461 m 17
 274 461 293 462 293 455 c 1
 212 -44 l 1
 203 -44 185 -44 185 -37 c 9
 266 461 l 17
EndSplineSet
Refer: 66 99 N 1 0 0 1 6 0 2
EndChar
StartChar: sterling
Encoding: 163 163 97
Width: 954
UnlinkRmOvrlpSave: 1
Flags: W
LayerCount: 2
Fore
SplineSet
628 1272 m 0,0,1
 676 1272 676 1272 703.5 1262 c 128,-1,2
 731 1252 731 1252 772 1224 c 1,3,4
 779 1217 779 1217 785.5 1199.5 c 128,-1,5
 792 1182 792 1182 792 1168 c 0,6,7
 792 1119 792 1119 769 1095.5 c 128,-1,8
 746 1072 746 1072 716 1072 c 0,9,10
 701 1072 701 1072 684.5 1080.5 c 128,-1,11
 668 1089 668 1089 658.5 1097.5 c 128,-1,12
 649 1106 649 1106 632.5 1123 c 128,-1,13
 616 1140 616 1140 610 1146 c 0,14,15
 588 1167 588 1167 574 1173.5 c 128,-1,16
 560 1180 560 1180 540 1180 c 0,17,18
 490 1180 490 1180 458.5 1142 c 128,-1,19
 427 1104 427 1104 415.5 1048 c 128,-1,20
 404 992 404 992 404 918 c 0,21,22
 404 840 404 840 425 718 c 128,-1,23
 446 596 446 596 446 544 c 0,24,25
 446 446 446 446 385.5 346 c 128,-1,26
 325 246 325 246 268 194 c 1,27,28
 300 210 300 210 338 210 c 0,29,30
 374 210 374 210 409 195.5 c 128,-1,31
 444 181 444 181 470.5 163 c 128,-1,32
 497 145 497 145 545.5 130.5 c 128,-1,33
 594 116 594 116 654 116 c 0,34,35
 692 116 692 116 728 135 c 128,-1,36
 764 154 764 154 789.5 184.5 c 128,-1,37
 815 215 815 215 829.5 236.5 c 128,-1,38
 844 258 844 258 854 278 c 0,39,40
 855 278 855 278 861.5 273.5 c 128,-1,41
 868 269 868 269 874 261 c 128,-1,42
 880 253 880 253 880 246 c 0,43,44
 880 234 880 234 874 216 c 0,45,46
 865 189 865 189 840.5 152.5 c 128,-1,47
 816 116 816 116 779 76.5 c 128,-1,48
 742 37 742 37 689.5 10.5 c 128,-1,49
 637 -16 637 -16 582 -16 c 0,50,51
 525 -16 525 -16 470.5 2 c 128,-1,52
 416 20 416 20 382 41 c 128,-1,53
 348 62 348 62 307 80 c 128,-1,54
 266 98 266 98 232 98 c 0,55,56
 204 98 204 98 184.5 78.5 c 128,-1,57
 165 59 165 59 148 29 c 128,-1,58
 131 -1 131 -1 120 -12 c 1,59,60
 108 -12 108 -12 98 3 c 128,-1,61
 88 18 88 18 88 32 c 0,62,63
 88 88 88 88 188 188 c 0,64,65
 231 231 231 231 263.5 311 c 128,-1,66
 296 391 296 391 296 462 c 0,67,68
 296 482 296 482 273.5 623.5 c 128,-1,69
 251 765 251 765 250 798 c 0,70,71
 247 897 247 897 279.5 986.5 c 128,-1,72
 312 1076 312 1076 365.5 1137.5 c 128,-1,73
 419 1199 419 1199 488.5 1235.5 c 128,-1,74
 558 1272 558 1272 628 1272 c 0,0,1
156 684 m 2,75,-1
 762 684 l 1,76,77
 776 673 776 673 772.5 657.5 c 128,-1,78
 769 642 769 642 760.5 629.5 c 128,-1,79
 752 617 752 617 744 612 c 1,80,-1
 110 612 l 1,81,82
 101 621 101 621 121.5 652.5 c 128,-1,83
 142 684 142 684 156 684 c 2,75,-1
EndSplineSet
EndChar
StartChar: currency
Encoding: 164 164 98
Width: 560
Flags: HW
LayerCount: 2
Fore
SplineSet
287 148 m 0
 316 148 340 162 358 189 c 128
 376 216 386 249 386 287 c 0
 386 332 374 370 351 403 c 128
 328 436 302 452 271 452 c 0
 242 452 218 438 199 410 c 128
 180 382 171 350 171 312 c 0
 171 267 183 229 206 197 c 128
 229 165 256 148 287 148 c 0
389 444 m 1
 446 498 l 2
 449 501 452 500 458 496 c 128
 464 492 470 486 475 478 c 128
 480 470 484 462 486 455 c 1
 428 400 l 1
 447 368 456 335 456 300 c 0
 456 261 445 226 424 194 c 1
 477 138 l 2
 480 135 478 131 474 125 c 128
 470 119 465 114 457 109 c 128
 449 104 441 100 434 98 c 1
 383 151 l 1
 352 128 317 117 279 117 c 0
 237 117 200 130 168 156 c 1
 116 107 l 2
 113 104 110 106 104 110 c 128
 98 114 93 119 88 127 c 128
 83 135 78 143 76 150 c 1
 129 200 l 1
 109 231 100 265 100 300 c 0
 100 343 112 380 137 413 c 1
 86 468 l 2
 83 471 84 474 88 480 c 128
 92 486 98 491 106 496 c 128
 114 501 122 506 129 508 c 1
 180 454 l 1
 209 474 242 484 279 484 c 0
 320 484 357 471 389 444 c 1
EndSplineSet
EndChar
StartChar: yen
Encoding: 165 165 99
Width: 1344
UnlinkRmOvrlpSave: 1
Flags: HW
LayerCount: 2
Fore
SplineSet
446 350 m 2
 970 350 l 1
 979.33 342.67 982.67 333.67 980 323 c 128
 977.33 312.33 973 302.67 967 294 c 128
 961 285.33 955.33 279.33 950 276 c 1
 406 276 l 1
 400 282 402.83 295.83 414.5 317.5 c 128
 426.17 339.17 436.67 350 446 350 c 2
446 510 m 2
 970 510 l 1
 979.33 502.67 982.67 493.67 980 483 c 128
 977.33 472.33 973 462.67 967 454 c 128
 961 445.33 955.33 439.33 950 436 c 1
 406 436 l 1
 400 442 402.83 455.83 414.5 477.5 c 128
 426.17 499.17 436.67 510 446 510 c 2
602 232 m 2
 602 490 l 2
 602 508.67 597.33 527.33 588 546 c 1
 546.67 621.33 497.83 708.67 441.5 808 c 128
 385.17 907.33 339.33 988.67 304 1052 c 0
 283.33 1088 263.5 1115.83 244.5 1135.5 c 128
 225.5 1155.17 201.33 1173.33 172 1190 c 0
 156 1199.33 136.67 1207 114 1213 c 128
 91.33 1219 73.33 1222 60 1222 c 0
 54.67 1222 52 1230.33 52 1247 c 128
 52 1263.67 54.67 1274.67 60 1280 c 1
 82.67 1279.33 110 1278 142 1276 c 128
 174 1274 202.67 1272.5 228 1271.5 c 128
 253.33 1270.5 280.67 1270 310 1270 c 0
 347.33 1270 432.67 1273.33 566 1280 c 1
 568.67 1274 569.83 1262.83 569.5 1246.5 c 128
 569.17 1230.17 566.67 1222 562 1222 c 0
 549.33 1222 534.67 1220.5 518 1217.5 c 128
 501.33 1214.5 484.5 1207.83 467.5 1197.5 c 128
 450.5 1187.17 442 1174 442 1158 c 0
 442 1144 450 1124 466 1098 c 1
 744 622 l 1
 790.67 706.67 842.67 805.17 900 917.5 c 128
 957.33 1029.83 993.33 1104 1008 1140 c 1
 1012 1152 1014 1162 1014 1170 c 0
 1014 1175.33 1009.67 1181.5 1001 1188.5 c 128
 992.33 1195.5 975.83 1202.5 951.5 1209.5 c 128
 927.17 1216.5 898 1220 864 1220 c 0
 861.33 1220 859.5 1229 858.5 1247 c 128
 857.5 1265 858 1275.33 860 1278 c 1
 983.33 1271.33 1052 1268 1066 1268 c 0
 1097.33 1268 1124.5 1268.5 1147.5 1269.5 c 128
 1170.5 1270.5 1195 1272 1221 1274 c 128
 1247 1276 1268.67 1277.33 1286 1278 c 1
 1288 1272 1288.5 1260.83 1287.5 1244.5 c 128
 1286.5 1228.17 1284.67 1220 1282 1220 c 0
 1272.67 1220 1262.83 1219.5 1252.5 1218.5 c 128
 1242.17 1217.5 1226.67 1214.83 1206 1210.5 c 128
 1185.33 1206.17 1165.83 1198 1147.5 1186 c 128
 1129.17 1174 1114.67 1158.67 1104 1140 c 0
 1063.33 1068.67 958 874.67 788 558 c 0
 781.33 546 778 525.33 778 496 c 2
 776 232 l 2
 776 154.67 779.33 105.33 786 84 c 0
 788.67 74.67 807.33 67 842 61 c 128
 876.67 55 904 52 924 52 c 1
 928 46.67 930.17 37 930.5 23 c 128
 930.83 9 928.67 -0.67 924 -6 c 1
 787.33 0.67 709.33 4 690 4 c 0
 669.33 4 590.67 0.67 454 -6 c 1
 449.33 -0.67 447.17 9 447.5 23 c 128
 447.83 37 450 46.67 454 52 c 1
 474 52 501.33 55 536 61 c 128
 570.67 67 589.33 74.67 592 84 c 0
 598.67 105.33 602 154.67 602 232 c 2
EndSplineSet
EndChar
StartChar: brokenbar
Encoding: 166 166 100
Width: 208
Flags: W
VStem: 80 50<-116 251 380 747>
LayerCount: 2
Fore
SplineSet
130 391 m 2
 130 383 87 376 85 376 c 0
 78 376 80 380 80 384 c 2
 80 739 l 1
 80 739 79 745 85 747 c 0
 102 752 119 752 122 752 c 0
 131 752 130 746 130 746 c 1
 130 391 l 2
80 -112 m 2
 80 243 l 1
 80 243 79 249 85 251 c 0
 102 256 119 256 122 256 c 0
 131 256 130 250 130 250 c 1
 130 -105 l 2
 130 -113 87 -120 85 -120 c 0
 78 -120 80 -116 80 -112 c 2
EndSplineSet
EndChar
StartChar: section
Encoding: 167 167 101
Width: 882
UnlinkRmOvrlpSave: 1
Flags: HW
LayerCount: 2
Fore
SplineSet
608 1306 m 0
 498.666666667 1306 410 1277.83333333 342 1221.5 c 128
 274 1165.16666667 240 1096 240 1014 c 0
 240 996.666666667 242.333333333 979 247 961 c 128
 251.666666667 943 256.833333333 927 262.5 913 c 128
 268.166666667 899 277.5 882.833333333 290.5 864.5 c 128
 303.5 846.166666667 313.666666667 832 321 822 c 128
 328.333333333 812 341.333333333 797.5 360 778.5 c 128
 378.666666667 759.5 391.166666667 747 397.5 741 c 128
 403.833333333 735 417.666666667 722.333333333 439 703 c 128
 460.333333333 683.666666667 472.666666667 672.666666667 476 670 c 0
 625.333333333 532 700 398.666666667 700 270 c 0
 700 253.333333333 698.833333333 238 696.5 224 c 128
 694.166666667 210 689.833333333 195.666666667 683.5 181 c 128
 677.166666667 166.333333333 672 154.833333333 668 146.5 c 128
 664 138.166666667 656.166666667 124.833333333 644.5 106.5 c 128
 632.833333333 88.1666666667 624.666666667 74.6666666667 620 66 c 1
 588 40.6666666667 565.333333333 16.6666666667 552 -6 c 0
 548.666666667 -12.6666666667 546.333333333 -19.3333333333 545 -26 c 128
 543.666666667 -32.6666666667 542.666666667 -40.3333333333 542 -49 c 128
 541.333333333 -57.6666666667 540.666666667 -64.6666666667 540 -70 c 1
 588 -36.6666666667 644.666666667 26.3333333333 710 119 c 128
 775.333333333 211.666666667 808 291.333333333 808 358 c 0
 808 398.666666667 801.166666667 439 787.5 479 c 128
 773.833333333 519 754.666666667 556.666666667 730 592 c 128
 705.333333333 627.333333333 681.166666667 658.166666667 657.5 684.5 c 128
 633.833333333 710.833333333 606.666666667 738 576 766 c 0
 512.666666667 824 456.166666667 883.666666667 406.5 945 c 128
 356.833333333 1006.33333333 332 1057.33333333 332 1098 c 0
 332 1121.33333333 341.5 1141.66666667 360.5 1159 c 128
 379.5 1176.33333333 400.833333333 1188.5 424.5 1195.5 c 128
 448.166666667 1202.5 471.333333333 1206 494 1206 c 0
 515.333333333 1206 536.666666667 1200.66666667 558 1190 c 0
 559.333333333 1189.33333333 564 1186.83333333 572 1182.5 c 128
 580 1178.16666667 585.833333333 1175.33333333 589.5 1174 c 128
 593.166666667 1172.66666667 598.833333333 1171 606.5 1169 c 128
 614.166666667 1167 622 1166 630 1166 c 0
 645.333333333 1166 661.166666667 1174.33333333 677.5 1191 c 128
 693.833333333 1207.66666667 702 1223.33333333 702 1238 c 0
 702 1256.66666667 698 1274 690 1290 c 1
 665.333333333 1300.66666667 638 1306 608 1306 c 0
276 -156 m 0
 385.333333333 -156 474 -127.833333333 542 -71.5 c 128
 610 -15.1666666667 644 54 644 136 c 0
 644 153.333333333 641.666666667 171 637 189 c 128
 632.333333333 207 627.166666667 223 621.5 237 c 128
 615.833333333 251 606.5 267.166666667 593.5 285.5 c 128
 580.5 303.833333333 570.333333333 318 563 328 c 128
 555.666666667 338 542.666666667 352.5 524 371.5 c 128
 505.333333333 390.5 492.833333333 403 486.5 409 c 128
 480.166666667 415 466.333333333 427.666666667 445 447 c 128
 423.666666667 466.333333333 411.333333333 477.333333333 408 480 c 0
 258.666666667 618 184 751.333333333 184 880 c 0
 184 896.666666667 185.166666667 912 187.5 926 c 128
 189.833333333 940 194.166666667 954.333333333 200.5 969 c 128
 206.833333333 983.666666667 212 995.166666667 216 1003.5 c 128
 220 1011.83333333 227.833333333 1025.16666667 239.5 1043.5 c 128
 251.166666667 1061.83333333 259.333333333 1075.33333333 264 1084 c 1
 296 1109.33333333 318.666666667 1133.33333333 332 1156 c 0
 335.333333333 1162.66666667 337.666666667 1169.33333333 339 1176 c 128
 340.333333333 1182.66666667 341.333333333 1190.33333333 342 1199 c 128
 342.666666667 1207.66666667 343.333333333 1214.66666667 344 1220 c 1
 296 1186.66666667 239.333333333 1123.66666667 174 1031 c 128
 108.666666667 938.333333333 76 858.666666667 76 792 c 0
 76 751.333333333 82.8333333333 711 96.5 671 c 128
 110.166666667 631 129.333333333 593.333333333 154 558 c 128
 178.666666667 522.666666667 202.833333333 491.833333333 226.5 465.5 c 128
 250.166666667 439.166666667 277.333333333 412 308 384 c 0
 371.333333333 326 427.833333333 266.333333333 477.5 205 c 128
 527.166666667 143.666666667 552 92.6666666667 552 52 c 0
 552 28.6666666667 542.5 8.33333333333 523.5 -9 c 128
 504.5 -26.3333333333 483.166666667 -38.5 459.5 -45.5 c 128
 435.833333333 -52.5 412.666666667 -56 390 -56 c 0
 368.666666667 -56 347.333333333 -50.6666666667 326 -40 c 0
 324.666666667 -39.3333333333 320 -36.8333333333 312 -32.5 c 128
 304 -28.1666666667 298.166666667 -25.3333333333 294.5 -24 c 128
 290.833333333 -22.6666666667 285.166666667 -21 277.5 -19 c 128
 269.833333333 -17 262 -16 254 -16 c 0
 238.666666667 -16 222.833333333 -24.3333333333 206.5 -41 c 128
 190.166666667 -57.6666666667 182 -73.3333333333 182 -88 c 0
 182 -106.666666667 186 -124 194 -140 c 1
 218.666666667 -150.666666667 246 -156 276 -156 c 0
EndSplineSet
EndChar
StartChar: copyright
Encoding: 169 169 103
Width: 643
Flags: HW
LayerCount: 2
Fore
SplineSet
445 270 m 1
 445 267 443 256 438 238 c 128
 433 220 429 210 426 209 c 0
 395 197 360 190 322 190 c 0
 283 190 250 203 223 230 c 128
 196 257 183 289 183 328 c 0
 183 368 196 402 222 430 c 128
 248 458 280 472 320 472 c 0
 361 472 398 465 430 453 c 1
 440 416 445 397 445 394 c 0
 445 392 443 389 440 387 c 128
 437 385 434 385 430 385 c 0
 428 385 426 386 423 387 c 1
 422 391 420 395 417 400 c 128
 414 405 409 411 403 417 c 128
 397 423 387 428 375 432 c 128
 363 436 348 438 332 438 c 0
 306 438 284 428 266 408 c 128
 248 388 238 364 238 337 c 0
 238 301 249 272 270 252 c 128
 291 232 315 222 341 222 c 0
 375 222 398 228 411 240 c 0
 414 243 417 248 419 253 c 128
 421 258 423 263 424 267 c 128
 425 271 426 272 426 272 c 0
 438 272 444 272 445 270 c 1
87 334 m 128
 87 291 97 252 118 216 c 128
 139 180 168 150 204 129 c 128
 240 108 279 98 322 98 c 128
 365 98 405 108 441 129 c 128
 477 150 506 180 527 216 c 128
 548 252 559 291 559 334 c 128
 559 377 548 416 527 452 c 128
 506 488 477 518 441 539 c 128
 405 560 365 570 322 570 c 128
 279 570 240 560 204 539 c 128
 168 518 139 488 118 452 c 128
 97 416 87 377 87 334 c 128
55 334 m 128
 55 408 81 470 133 522 c 128
 185 574 247 601 321 601 c 0
 370 601 415 589 456 565 c 128
 497 541 529 509 553 468 c 128
 577 427 589 382 589 334 c 128
 589 286 577 241 553 200 c 128
 529 159 497 127 456 103 c 128
 415 79 370 67 321 67 c 0
 247 67 185 94 133 146 c 128
 81 198 55 260 55 334 c 128
EndSplineSet
EndChar
StartChar: ordfeminine
Encoding: 170 170 104
Width: 336
Flags: HW
LayerCount: 2
Fore
SplineSet
147 279 m 0
 158 279 171 284 185 293 c 128
 199 302 206 308 206 312 c 2
 206 396 l 1
 202 395 195 392 185 389 c 128
 175 386 167 383 160 381 c 128
 153 379 148 377 144 376 c 0
 116 365 102 348 102 327 c 0
 102 314 106 304 115 294 c 128
 124 284 134 279 147 279 c 0
184 543 m 0
 204 543 220 534 235 516 c 128
 250 498 258 476 258 451 c 2
 258 312 l 2
 258 291 264 279 278 279 c 0
 281 279 283 280 286 281 c 128
 289 282 291 282 293 283 c 128
 295 284 296 285 298 286 c 2
 301 288 l 1
 303 288 304 286 304 283 c 0
 304 278 303 275 300 271 c 1
 295 266 287 260 276 254 c 128
 265 248 256 244 249 244 c 0
 240 244 231 249 223 258 c 128
 215 267 210 277 208 288 c 1
 202 282 189 273 169 261 c 128
 149 249 135 243 125 243 c 0
 103 243 84 251 69 266 c 128
 54 281 46 299 46 321 c 0
 46 334 50 345 57 355 c 128
 64 365 72 372 80 375 c 0
 155 402 194 416 198 418 c 0
 202 420 204 421 205 423 c 128
 206 425 206 429 206 435 c 2
 206 453 l 2
 206 469 200 484 190 496 c 128
 180 508 166 514 148 514 c 0
 137 514 129 511 123 505 c 128
 117 499 113 489 110 476 c 1
 106 455 96 443 79 443 c 0
 72 443 66 446 62 452 c 128
 58 458 56 465 56 472 c 0
 56 480 58 485 61 488 c 0
 74 501 92 513 115 525 c 128
 138 537 162 543 184 543 c 0
EndSplineSet
EndChar
StartChar: guillemotleft
Encoding: 171 171 105
Width: 964
Flags: HW
LayerCount: 2
Fore
SplineSet
414 492 m 0
 414 501.33 417.33 513.33 424 528 c 1
 592 629.33 731.33 735.33 842 846 c 1
 865.33 838.67 880 830.67 886 822 c 1
 880.67 802 842.67 753.5 772 676.5 c 128
 701.33 599.5 640.67 538.67 590 494 c 1
 640.67 449.33 701.33 388.5 772 311.5 c 128
 842.67 234.5 880.67 186 886 166 c 1
 880 157.33 865.33 149.33 842 142 c 1
 731.33 252.67 592 358.67 424 460 c 1
 417.33 470 414 480.67 414 492 c 0
54 492 m 0
 54 501.33 57.33 513.33 64 528 c 1
 232 629.33 371.33 735.33 482 846 c 1
 505.33 838.67 520 830.67 526 822 c 1
 520.67 802 482.67 753.5 412 676.5 c 128
 341.33 599.5 280.67 538.67 230 494 c 1
 280.67 449.33 341.33 388.5 412 311.5 c 128
 482.67 234.5 520.67 186 526 166 c 1
 520 157.33 505.33 149.33 482 142 c 1
 371.33 252.67 232 358.67 64 460 c 1
 57.33 470 54 480.67 54 492 c 0
EndSplineSet
EndChar
StartChar: logicalnot
Encoding: 172 172 106
Width: 573
Flags: HW
LayerCount: 2
Fore
SplineSet
504 410 m 17
 504 165 l 1
 503 164 501 163 496 161 c 128
 491 159 485 156 478 154 c 128
 471 152 464 150 458 150 c 1
 451 151 447 153 445 157 c 1
 445 355 l 1
 50 355 l 2
 46 355 44 358 44 365 c 1
 47 395 52 410 59 410 c 2
 504 410 l 17
EndSplineSet
EndChar
StartChar: registered
Encoding: 174 174 107
Width: 643
Flags: W
HStem: 130 31<242 402> 266 14<199 229 279 309 439 467> 393 18<277 307> 523 16<200 229 279 333> 633 31<242 402>
VStem: 55 32<314 481> 231 46<287 393 411 519> 357 47<421 514> 559 30<317 478>
LayerCount: 2
Fore
SplineSet
315 540 m 0
 353 540 404 515 404 468 c 0
 404 438 378 410 350 400 c 1
 372 364 393 336 420 303 c 0
 433 288 444 282 467 280 c 1
 469 278 466 267 466 266 c 1
 438 266 408 268 400 271 c 0
 394 273 383 276 373 289 c 0
 367 297 330 348 304 388 c 0
 302 392 298 393 292 393 c 0
 292 393 281 393 277 393 c 1
 277 317 l 1
 277 305 277 294 279 287 c 0
 280 282 303 280 308 280 c 1
 310 278 310 268 308 266 c 1
 291 267 271 268 255 268 c 0
 239 268 218 267 201 266 c 1
 199 268 199 278 201 280 c 1
 206 280 228 282 229 287 c 0
 231 294 231 304 231 317 c 2
 231 490 l 2
 231 502 231 513 229 520 c 0
 228 525 206 527 201 527 c 1
 199 529 199 539 201 541 c 1
 218 540 241 539 257 539 c 0
 273 539 291 540 315 540 c 0
357 458 m 0
 357 495 346 523 300 523 c 0
 295 523 281 523 279 519 c 0
 277 514 277 501 277 488 c 2
 277 411 l 1
 277 411 288 411 295 411 c 16
 330 411 357 426 357 458 c 0
87 397 m 0
 87 267 192 161 322 161 c 0
 452 161 559 267 559 397 c 0
 559 527 452 633 322 633 c 0
 192 633 87 527 87 397 c 0
55 397 m 0
 55 544 174 664 321 664 c 0
 468 664 589 544 589 397 c 0
 589 250 468 130 321 130 c 0
 174 130 55 250 55 397 c 0
EndSplineSet
EndChar
StartChar: degree
Encoding: 176 176 109
Width: 548
Flags: HW
LayerCount: 2
Fore
SplineSet
150 1072 m 128
 150 1038 162.166666667 1008.83333333 186.5 984.5 c 128
 210.833333333 960.166666667 240 948 274 948 c 128
 308 948 336.833333333 960.166666667 360.5 984.5 c 128
 384.166666667 1008.83333333 396 1038 396 1072 c 128
 396 1106 384.166666667 1134.83333333 360.5 1158.5 c 128
 336.833333333 1182.16666667 308 1194 274 1194 c 128
 240 1194 210.833333333 1182.16666667 186.5 1158.5 c 128
 162.166666667 1134.83333333 150 1106 150 1072 c 128
76 1072 m 128
 76 1126 95.5 1172.16666667 134.5 1210.5 c 128
 173.5 1248.83333333 220 1268 274 1268 c 128
 328 1268 374.166666667 1248.83333333 412.5 1210.5 c 128
 450.833333333 1172.16666667 470 1126 470 1072 c 128
 470 1018 450.833333333 971.5 412.5 932.5 c 128
 374.166666667 893.5 328 874 274 874 c 128
 220 874 173.5 893.5 134.5 932.5 c 128
 95.5 971.5 76 1018 76 1072 c 128
EndSplineSet
EndChar
StartChar: plusminus
Encoding: 177 177 110
Width: 1096
Flags: W
LayerCount: 2
Fore
SplineSet
98 124 m 1,0,1
 1010 124 l 2,2,3
 1017 124 1017 124 1022.5 117.5 c 128,-1,4
 1028 111 1028 111 1028 100 c 0,5,6
 1028 76 1028 76 1018.5 50.5 c 128,-1,7
 1009 25 1009 25 996 12 c 1,8,-1
 80 12 l 2,9,10
 68 12 68 12 68 32 c 0,11,12
 68 45 68 45 76.5 79.5 c 128,-1,13
 85 114 85 114 98 124 c 1,0,1
98 722 m 1,14,-1
 490 722 l 1,15,-1
 490 1122 l 1,16,17
 549 1144 549 1144 576 1144 c 0,18,19
 585 1144 585 1144 591.5 1141 c 128,-1,20
 598 1138 598 1138 600 1135 c 2,21,-1
 602 1132 l 1,22,-1
 602 722 l 1,23,-1
 1010 722 l 2,24,25
 1017 722 1017 722 1022.5 715.5 c 128,-1,26
 1028 709 1028 709 1028 698 c 0,27,28
 1028 674 1028 674 1018.5 648.5 c 128,-1,29
 1009 623 1009 623 996 610 c 1,30,-1
 602 610 l 1,31,-1
 602 206 l 1,32,33
 573 184 573 184 516 184 c 0,34,35
 506 184 506 184 498 190 c 128,-1,36
 490 196 490 196 490 202 c 2,37,-1
 490 610 l 1,38,-1
 80 610 l 2,39,40
 68 610 68 610 68 630 c 0,41,42
 68 643 68 643 76.5 677.5 c 128,-1,43
 85 712 85 712 98 722 c 1,14,-1
EndSplineSet
EndChar
StartChar: uni00B2
Encoding: 178 178 111
Width: 716
Flags: W
LayerCount: 2
Fore
SplineSet
641 720 m 1,0,1
 633 699 633 699 608 622 c 128,-1,2
 583 545 583 545 567 508 c 1,3,-1
 103 508 l 2,4,5
 94 508 94 508 85 517 c 128,-1,6
 76 526 76 526 79 532 c 1,7,8
 105 560 105 560 164.5 620 c 128,-1,9
 224 680 224 680 273.5 733.5 c 128,-1,10
 323 787 323 787 359 836 c 0,11,12
 455 965 455 965 455 1060 c 0,13,14
 455 1124 455 1124 420 1164 c 128,-1,15
 385 1204 385 1204 323 1204 c 0,16,17
 281 1204 281 1204 245 1187 c 128,-1,18
 209 1170 209 1170 191 1152.5 c 128,-1,19
 173 1135 173 1135 149 1106 c 0,20,21
 143 1100 143 1100 128 1116 c 128,-1,22
 113 1132 113 1132 115 1140 c 1,23,24
 151 1203 151 1203 216 1248.5 c 128,-1,25
 281 1294 281 1294 347 1294 c 0,26,27
 452 1294 452 1294 518.5 1234 c 128,-1,28
 585 1174 585 1174 585 1080 c 0,29,30
 585 988 585 988 493 878 c 0,31,32
 464 843 464 843 243 618 c 1,33,-1
 483 618 l 2,34,35
 506 618 506 618 525.5 627 c 128,-1,36
 545 636 545 636 558 651 c 128,-1,37
 571 666 571 666 579 679 c 128,-1,38
 587 692 587 692 594.5 708 c 128,-1,39
 602 724 602 724 603 726 c 0,40,41
 605 729 605 729 613 732 c 1,42,43
 632 732 632 732 641 720 c 1,0,1
EndSplineSet
EndChar
StartChar: uni00B3
Encoding: 179 179 112
Width: 310
Flags: W
HStem: 243 27<105 183> 593 38<100 176>
VStem: 188 55<502 583> 212 62<305 419>
LayerCount: 2
Fore
SplineSet
158 631 m 0xe0
 199 631 243 606 243 556 c 0xe0
 243 513 208 485 187 475 c 1
 212 475 274 441 274 377 c 0
 274 291 200 243 115 243 c 0
 94 243 60 249 50 258 c 1
 50 258 38 268 38 281 c 0
 38 301 52 313 68 313 c 0
 85 313 92 297 104 285 c 0
 114 275 127 271 142 271 c 0
 183 271 212 299 212 359 c 0xd0
 212 407 178 443 142 443 c 0
 124 443 108 437 103 436 c 1
 101 438 99 442 98 446 c 0
 97 450 97 454 98 456 c 1
 146 466 188 495 188 543 c 0
 188 568 164 593 139 593 c 0
 103 593 76 563 70 557 c 1
 65 559 61 571 62 572 c 1
 76 593 106 631 158 631 c 0xe0
EndSplineSet
EndChar
StartChar: mu
Encoding: 181 181 114
Width: 1082
Flags: HW
LayerCount: 2
Fore
SplineSet
288 446 m 1
 288 358.67 296.67 283.83 314 221.5 c 128
 331.33 159.17 356.67 128 390 128 c 0
 422 128 453.17 138 483.5 158 c 128
 513.83 178 540.83 204.67 564.5 238 c 128
 588.17 271.33 609 305.83 627 341.5 c 128
 645 377.17 660.67 414.67 674 454 c 1
 674 596 l 1
 674 834 l 1
 690.67 860.67 706.67 874 722 874 c 0
 734 874 754.67 864.67 784 846 c 128
 813.33 827.33 828 812 828 800 c 0
 828 793.33 827.33 784.17 826 772.5 c 128
 824.67 760.83 822.5 745.33 819.5 726 c 128
 815 697 815 697 810.5 668 c 128
 807.5 648.67 803.17 622 797.5 588 c 128
 791.83 554 786.67 522 782 492 c 1
 762 390 l 1
 762 315.33 774.33 253.67 799 205 c 128
 823.67 156.33 858 132 902 132 c 0
 938.67 132 972.67 152 1004 192 c 1
 1008.67 192 1014.67 186 1022 174 c 1
 1026 166 1028 158.67 1028 152 c 1
 1014.67 107.33 990.17 69.5 954.5 38.5 c 128
 918.83 7.5 881.33 -8 842 -8 c 1
 820 -7.33 800.17 5.17 782.5 29.5 c 128
 764.83 53.83 751.33 84 742 120 c 128
 732.67 156 725.67 187.33 721 214 c 128
 716.33 240.67 713.33 264 712 284 c 1
 696 246 677.83 210.33 657.5 177 c 128
 637.17 143.67 614 111.83 588 81.5 c 128
 562 51.17 532.83 27 500.5 9 c 128
 468.17 -9 435.33 -18 402 -18 c 0
 342.67 -18 300.67 55.33 276 202 c 1
 276.67 197.33 276.83 157.33 276.5 82 c 128
 276.17 6.67 278.33 -77.33 283 -170 c 128
 287.67 -262.67 296.67 -344 310 -414 c 1
 293.33 -440.67 277.33 -454 262 -454 c 0
 250 -454 229.33 -444.67 200 -426 c 128
 170.67 -407.33 156 -392 156 -380 c 0
 156 -338 160.5 -218.33 169.5 -21 c 128
 178.5 176.33 188 319.33 198 408 c 1
 198 424 196.67 455.5 194 502.5 c 128
 191.33 549.5 190 580.67 190 596 c 2
 190 834 l 1
 206.67 860.67 222.67 874 238 874 c 0
 250 874 270.67 864.67 300 846 c 128
 329.33 827.33 344 812 344 800 c 0
 344 738 328.67 635.33 298 492 c 2
 288 446 l 1
EndSplineSet
EndChar
StartChar: paragraph
Encoding: 182 182 115
Width: 472
Flags: HW
LayerCount: 2
Fore
SplineSet
314 325 m 1
 314 592 l 1
 311 595 302 597 286 597 c 0
 272 597 263 595 259 591 c 1
 259 320 l 1
 265 320 275 321 290 322 c 128
 305 323 312 324 314 325 c 1
313 285 m 17
 310 285 306 284 298 284 c 128
 290 284 283 282 276 282 c 128
 266 281 266 281 259 281 c 1
 259 113 l 2
 259 75 260 51 262 41 c 0
 263 37 270 35 286 35 c 0
 302 35 311 37 312 41 c 0
 314 51 314 75 314 113 c 2
 313 285 l 17
353 292 m 1
 353 113 l 2
 353 75 354 51 357 41 c 0
 358 36 368 32 384 28 c 128
 400 24 413 22 421 22 c 0
 422 22 422 18 422 10 c 128
 422 2 422 -3 421 -4 c 1
 405 -3 384 -2 360 -0 c 128
 336 2 313 2 290 2 c 0
 278 2 232 0 154 -4 c 1
 153 -1 153 3 153 10 c 128
 153 17 154 20 156 22 c 1
 163 22 174 24 190 28 c 128
 206 32 215 36 216 41 c 0
 219 51 221 75 221 113 c 2
 221 280 l 1
 191 280 164 286 139 298 c 128
 114 310 95 326 80 344 c 128
 65 362 53 381 45 401 c 128
 37 421 33 440 33 458 c 0
 33 492 41 523 58 551 c 128
 75 579 97 600 122 615 c 128
 147 630 173 637 200 637 c 0
 219 637 236 636 248 635 c 128
 260 634 276 633 295 633 c 0
 315 633 334 633 354 634 c 128
 374 635 388 635 398 636 c 2
 413 638 l 1
 415 635 416 630 416 623 c 128
 416 616 415 611 412 609 c 1
 403 609 392 608 379 604 c 128
 366 600 358 595 356 590 c 1
 354 583 354 562 354 527 c 2
 354 331 l 1
 355 331 359 332 367 334 c 128
 375 336 383 338 390 340 c 2
 401 344 l 1
 408 344 411 342 411 338 c 0
 411 333 407 327 400 318 c 128
 393 309 387 304 383 302 c 0
 371 296 361 293 353 292 c 1
EndSplineSet
EndChar
StartChar: periodcentered
Encoding: 183 183 116
Width: 218
Flags: HW
LayerCount: 2
Fore
SplineSet
53 258 m 128
 53 274 58 287 69 298 c 128
 80 309 93 314 109 314 c 128
 125 314 138 309 149 298 c 128
 160 287 166 274 166 258 c 128
 166 242 160 228 149 217 c 128
 138 206 125 200 109 200 c 128
 93 200 80 206 69 217 c 128
 58 228 53 242 53 258 c 128
EndSplineSet
EndChar
StartChar: uni00B9
Encoding: 185 185 118
Width: 584
Flags: W
LayerCount: 2
Fore
SplineSet
246 1036 m 2,0,1
 246 1099 246 1099 236.5 1118.5 c 128,-1,2
 227 1138 227 1138 208 1138 c 0,3,4
 187 1138 187 1138 96 1106 c 1,5,6
 78 1115 78 1115 78 1140 c 0,7,8
 78 1153 78 1153 84 1156 c 0,9,10
 177 1195 177 1195 251 1232 c 128,-1,11
 325 1269 325 1269 354 1286.5 c 128,-1,12
 383 1304 383 1304 384 1304 c 2,13,-1
 388 1304 l 2,14,15
 397 1304 397 1304 412 1258 c 1,16,17
 394 1174 394 1174 394 1096 c 2,18,-1
 394 680 l 2,19,20
 394 623 394 623 410 586 c 0,21,22
 414 577 414 577 455.5 567.5 c 128,-1,23
 497 558 497 558 514 558 c 0,24,25
 518 558 518 558 518 535 c 128,-1,26
 518 512 518 512 514 506 c 1,27,28
 489 507 489 507 428 509.5 c 128,-1,29
 367 512 367 512 322 512 c 128,-1,30
 277 512 277 512 211 509.5 c 128,-1,31
 145 507 145 507 122 506 c 1,32,33
 114 510 114 510 114 533 c 128,-1,34
 114 556 114 556 122 556 c 0,35,36
 144 556 144 556 187 565.5 c 128,-1,37
 230 575 230 575 234 584 c 0,38,39
 246 615 246 615 246 676 c 2,40,-1
 246 1036 l 2,0,1
EndSplineSet
EndChar
StartChar: ordmasculine
Encoding: 186 186 119
Width: 776
Flags: HW
LayerCount: 2
Fore
SplineSet
374 1060 m 0
 320.666666667 1060 280.666666667 1036.33333333 254 989 c 128
 227.333333333 941.666666667 214 886 214 822 c 0
 214 748.666666667 231 683.666666667 265 627 c 128
 299 570.333333333 346.666666667 542 408 542 c 0
 458.666666667 542 497 566.333333333 523 615 c 128
 549 663.666666667 562 719.333333333 562 782 c 0
 562 828 555.666666667 871.333333333 543 912 c 128
 530.333333333 952.666666667 509.333333333 987.5 480 1016.5 c 128
 450.666666667 1045.5 415.333333333 1060 374 1060 c 0
392 1108 m 0
 478.666666667 1108 551.666666667 1078.5 611 1019.5 c 128
 670.333333333 960.5 700 889.333333333 700 806 c 0
 700 722 670.166666667 649 610.5 587 c 128
 550.833333333 525 478 494 392 494 c 0
 305.333333333 494 231 523.833333333 169 583.5 c 128
 107 643.166666667 76 714.666666667 76 798 c 0
 76 883.333333333 106.5 956.333333333 167.5 1017 c 128
 228.5 1077.66666667 303.333333333 1108 392 1108 c 0
EndSplineSet
EndChar
StartChar: guillemotright
Encoding: 187 187 120
Width: 964
Flags: HW
LayerCount: 2
Fore
SplineSet
554 492 m 0
 554 480.67 550.67 470 544 460 c 1
 376 358.67 236.67 252.67 126 142 c 1
 102.67 149.33 88 157.33 82 166 c 1
 87.33 186 125.33 234.5 196 311.5 c 128
 266.67 388.5 327.33 449.33 378 494 c 1
 327.33 538.67 266.67 599.5 196 676.5 c 128
 125.33 753.5 87.33 802 82 822 c 1
 88 830.67 102.67 838.67 126 846 c 1
 236.67 735.33 376 629.33 544 528 c 1
 550.67 513.33 554 501.33 554 492 c 0
914 492 m 0
 914 480.67 910.67 470 904 460 c 1
 736 358.67 596.67 252.67 486 142 c 1
 462.67 149.33 448 157.33 442 166 c 1
 447.33 186 485.33 234.5 556 311.5 c 128
 626.67 388.5 687.33 449.33 738 494 c 1
 687.33 538.67 626.67 599.5 556 676.5 c 128
 485.33 753.5 447.33 802 442 822 c 1
 448 830.67 462.67 838.67 486 846 c 1
 596.67 735.33 736 629.33 904 528 c 1
 910.67 513.33 914 501.33 914 492 c 0
EndSplineSet
EndChar
StartChar: onequarter
Encoding: 188 188 121
Width: 1398
Flags: HW
LayerCount: 2
Fore
SplineSet
1212 814 m 0
 1217.33 814 1221.67 811.5 1225 806.5 c 128
 1228.33 801.5 1230 796 1230 790 c 2
 1230 292 l 1
 1300 292 l 1
 1309.33 283.33 1315.5 271.5 1318.5 256.5 c 128
 1321.5 241.5 1319.33 226.67 1312 212 c 1
 1236 212 l 1
 1236 0 l 1
 1232 -4 1212 -6 1176 -6 c 0
 1141.33 -6 1120 -2.67 1112 4 c 1
 1112 212 l 1
 782 212 l 1
 770.67 214 764 224.67 762 244 c 1
 1172 790 l 2
 1184.67 806 1198 814 1212 814 c 0
1112 302 m 9
 1112 610 l 1
 1084 574.67 1046.33 524 999 458 c 128
 951.67 392 913.33 340 884 302 c 1
 1112 302 l 9
348 1068 m 2
 348 672 l 2
 348 634.67 352.67 602 362 574 c 0
 364 568 378.33 561.83 405 555.5 c 128
 431.67 549.17 450.67 546 462 546 c 1
 466 539.33 467.83 531.17 467.5 521.5 c 128
 467.17 511.83 466 505.33 464 502 c 1
 444 502.67 417.67 503.83 385 505.5 c 128
 352.33 507.17 321.33 508 292 508 c 128
 262.67 508 229.17 507.17 191.5 505.5 c 128
 153.83 503.83 126 502.67 108 502 c 1
 103.33 505.33 101.17 512.5 101.5 523.5 c 128
 101.83 534.5 104 542 108 546 c 1
 122 546 141.5 549.33 166.5 556 c 128
 191.5 562.67 205.33 569.33 208 576 c 0
 218.67 604 224 634.67 224 668 c 2
 224 1040 l 2
 224 1059.33 220.83 1075.83 214.5 1089.5 c 128
 208.17 1103.17 200 1110 190 1110 c 0
 183.33 1110 175.67 1108.83 167 1106.5 c 128
 158.33 1104.17 145.5 1099.67 128.5 1093 c 128
 111.5 1086.33 100 1082 94 1080 c 1
 82.67 1085.33 74 1097.33 68 1116 c 1
 86 1127.33 176 1180.67 338 1276 c 1
 345.33 1274 351.5 1269.83 356.5 1263.5 c 128
 361.5 1257.17 364 1250.67 364 1244 c 1
 353.33 1178.67 348 1120 348 1068 c 2
372 -25 m 0
 366 -23.67 361 -21.67 357 -19 c 128
 353 -16.33 350.67 -13.83 350 -11.5 c 2
 349 -8 l 1
 1049 1273 l 2
 1049.67 1275 1052.83 1277.5 1058.5 1280.5 c 128
 1064.17 1283.5 1071.5 1286 1080.5 1288 c 128
 1089.5 1290 1099.67 1290 1111 1288 c 0
 1121 1286 1126 1279.33 1126 1268 c 1
 436 4 l 1
 430.67 -4 422.33 -11.67 411 -19 c 128
 399.67 -26.33 386.67 -28.33 372 -25 c 0
EndSplineSet
EndChar
StartChar: onehalf
Encoding: 189 189 122
Width: 732
Flags: W
HStem: -1 54<505 663> 245 21<53 99 183 231> 339 44<493 592>
VStem: 112 61<282 542> 608 63<212 323>
LayerCount: 2
Fore
SplineSet
556 383 m 0
 624 383 672 340 672 278 c 0
 672 246 656 215 627 180 c 0
 601 149 552 101 505 53 c 1
 622 53 l 2
 662 53 675 95 681 105 c 0
 682 107 683 107 686 108 c 0
 689 108 696 107 699 103 c 1
 688 75 677 31 663 -1 c 1
 437 -1 l 1
 431 -1 423 7 425 11 c 1
 462 51 515 98 554 148 c 0
 586 188 608 230 608 269 c 0
 608 310 585 339 544 339 c 0
 500 339 477 312 459 291 c 1
 455 287 441 303 442 308 c 1
 464 347 511 383 556 383 c 0
173 521 m 2
 173 328 l 2
 173 308 175 295 180 280 c 0
 182 273 221 267 229 267 c 1
 234 262 230 247 229 245 c 1
 191 246 184 248 146 248 c 0
 108 248 94 246 56 245 c 1
 51 248 52 263 56 267 c 1
 68 267 101 274 104 281 c 0
 109 294 112 316 112 326 c 2
 112 508 l 2
 112 527 106 542 96 542 c 0
 85 542 69 534 49 527 c 1
 43 530 38 539 36 545 c 1
 55 557 85 574 168 623 c 1
 175 621 181 614 181 607 c 1
 181 607 173 559 173 521 c 2
551 619 m 1
 214 2 l 2
 211 -4 199 -15 183 -12 c 0
 173 -10 172 -4 172 -4 c 1
 513 621 l 1
 514 623 526 632 543 629 c 0
 549 628 551 622 551 619 c 1
EndSplineSet
EndChar
StartChar: threequarters
Encoding: 190 190 123
Width: 683
Flags: HW
LayerCount: 2
Fore
SplineSet
593 397 m 0
 596 397 597 396 599 394 c 128
 601 392 602 389 602 386 c 2
 602 143 l 1
 636 143 l 1
 641 139 644 132 645 125 c 128
 646 118 646 111 642 104 c 1
 604 104 l 1
 604 0 l 1
 602 -2 593 -3 575 -3 c 0
 558 -3 548 -1 544 2 c 1
 544 104 l 1
 383 104 l 1
 377 105 374 110 373 119 c 1
 573 386 l 2
 579 394 586 397 593 397 c 0
544 147 m 9
 544 298 l 1
 530 281 512 256 489 224 c 128
 466 192 447 166 433 147 c 1
 544 147 l 9
154 631 m 0
 176 631 197 624 214 611 c 128
 231 598 239 579 239 556 c 0
 239 537 233 519 221 505 c 128
 209 491 197 481 183 475 c 1
 200 475 218 465 239 447 c 128
 260 429 271 406 271 377 c 0
 271 336 255 303 224 279 c 128
 193 255 156 243 111 243 c 0
 99 243 87 244 73 247 c 128
 59 250 51 254 46 258 c 0
 38 265 34 273 34 281 c 0
 34 290 37 298 43 304 c 128
 49 310 56 313 64 313 c 0
 69 313 73 313 77 310 c 128
 81 307 85 303 90 297 c 128
 95 291 98 287 100 285 c 0
 110 275 122 271 138 271 c 0
 159 271 176 278 189 293 c 128
 202 308 208 330 208 359 c 0
 208 382 201 403 187 419 c 128
 173 435 157 443 138 443 c 0
 133 443 128 443 122 442 c 128
 116 441 111 439 106 438 c 128
 101 437 99 436 99 436 c 0
 97 438 95 441 94 447 c 1
 93 452 93 455 94 456 c 1
 120 461 142 472 159 487 c 128
 176 502 185 521 185 543 c 0
 185 556 179 567 169 577 c 128
 159 587 148 593 135 593 c 0
 131 593 127 593 123 592 c 128
 119 591 115 590 112 589 c 128
 109 588 105 586 102 585 c 128
 99 584 96 582 93 580 c 128
 90 578 88 576 86 574 c 128
 84 572 81 571 79 569 c 128
 77 567 74 565 73 564 c 128
 71 562 72 562 69 559 c 2
 66 557 l 1
 64 558 63 559 62 561 c 128
 61 563 59 566 58 568 c 128
 57 570 58 572 58 572 c 0
 84 611 116 631 154 631 c 0
556 619 m 1
 219 2 l 1
 216 -2 213 -5 207 -9 c 128
 201 -13 195 -14 188 -12 c 0
 185 -11 182 -10 180 -9 c 128
 178 -8 177 -7 177 -6 c 2
 176 -4 l 1
 518 622 l 2
 518 623 520 624 523 625 c 128
 526 626 529 628 533 629 c 128
 537 630 542 630 548 629 c 0
 553 628 556 625 556 619 c 1
EndSplineSet
EndChar
StartChar: questiondown
Encoding: 191 191 124
Width: 690
Flags: HW
LayerCount: 2
Fore
SplineSet
576 748 m 128
 576 718 564.833333333 692.5 542.5 671.5 c 128
 520.166666667 650.5 494 640 464 640 c 128
 434 640 408.5 650.5 387.5 671.5 c 128
 366.5 692.5 356 718 356 748 c 128
 356 778 366.5 804.166666667 387.5 826.5 c 128
 408.5 848.833333333 434 860 464 860 c 128
 494 860 520.166666667 848.833333333 542.5 826.5 c 128
 564.833333333 804.166666667 576 778 576 748 c 128
510 498 m 1
 520.666666667 453.333333333 526 392.666666667 526 316 c 0
 526 289.333333333 522.5 264.5 515.5 241.5 c 128
 508.5 218.5 500.833333333 199.666666667 492.5 185 c 128
 484.166666667 170.333333333 471.666666667 155.333333333 455 140 c 128
 438.333333333 124.666666667 424.833333333 113.333333333 414.5 106 c 128
 404.166666667 98.6666666667 389.193449743 88.9113216693 369.580349229 76.733965008 c 0
 363.193449743 72.9113216693 358.666666667 70 356 68 c 0
 328.666666667 50.6666666667 309.5 38.3333333333 298.5 31 c 128
 287.5 23.6666666667 272.5 12.5 253.5 -2.5 c 128
 234.5 -17.5 221.166666667 -30.5 213.5 -41.5 c 128
 205.833333333 -52.5 198.666666667 -66.3333333333 192 -83 c 128
 185.333333333 -99.6666666667 182 -117.333333333 182 -136 c 0
 182 -186 196.666666667 -225.833333333 226 -255.5 c 128
 255.333333333 -285.166666667 290 -300 330 -300 c 128
 370 -300 405.5 -293 436.5 -279 c 128
 467.5 -265 489.333333333 -258 502 -258 c 0
 520 -258 539.166666667 -267.333333333 559.5 -286 c 128
 579.833333333 -304.666666667 590 -328.666666667 590 -358 c 0
 590 -390.666666667 584 -415.333333333 572 -432 c 1
 553.333333333 -441.333333333 521.333333333 -446 476 -446 c 0
 448.666666667 -446 418 -440.833333333 384 -430.5 c 128
 350 -420.166666667 315.333333333 -404.333333333 280 -383 c 128
 244.666666667 -361.666666667 212.166666667 -336.666666667 182.5 -308 c 128
 152.833333333 -279.333333333 128.666666667 -244.666666667 110 -204 c 128
 91.3333333333 -163.333333333 82 -120.666666667 82 -76 c 0
 82 -7.33333333333 97.1666666667 50.1666666667 127.5 96.5 c 128
 157.833333333 142.833333333 210 187.333333333 284 230 c 0
 312 246.666666667 343.5 268.833333333 378.5 296.5 c 128
 413.5 324.166666667 434 343.333333333 440 354 c 0
 444 361.333333333 447 371.5 449 384.5 c 128
 451 397.5 452.166666667 408.5 452.5 417.5 c 128
 452.833333333 426.5 452.833333333 440.333333333 452.5 459 c 128
 452.166666667 477.666666667 452 489.333333333 452 494 c 1
 460 510 470.666666667 518.666666667 484 520 c 1
 496.666666667 514.666666667 505.333333333 507.333333333 510 498 c 1
EndSplineSet
Substitution2: "'smcp' Lowercase to Small Capitals lookup 2-1" questiondown.sc
EndChar
StartChar: AE
Encoding: 198 198 131
Width: 875
Flags: HW
LayerCount: 2
Fore
SplineSet
462 0 m 0
 442 0 423 -1 404 -1 c 128
 385 -1 371 -2 362 -2 c 2
 349 -3 l 1
 348 -1 346 1 346 6 c 128
 346 11 347 15 347 19 c 128
 347 23 348 25 349 25 c 0
 357 25 369 28 385 33 c 128
 401 38 411 43 413 48 c 1
 418 66 420 94 420 132 c 2
 420 249 l 1
 397 250 368 251 333 251 c 0
 316 251 283 249 233 246 c 1
 229 243 l 1
 202 197 177 158 157 126 c 1
 131 86 118 61 118 51 c 0
 118 45 120 41 126 37 c 128
 132 33 139 30 147 29 c 128
 155 28 162 26 167 26 c 128
 172 26 177 25 181 25 c 1
 182 24 183 19 183 12 c 128
 183 5 184 0 183 -3 c 1
 174 -3 163 -2 152 -1 c 128
 141 0 130 1 121 1 c 128
 112 1 101 2 88 2 c 0
 75 2 63 1 53 1 c 128
 43 1 33 0 21 -1 c 128
 9 -2 -3 -3 -14 -3 c 1
 -15 -2 -16 3 -16 10 c 128
 -16 17 -15 22 -14 25 c 1
 -8 25 1 27 13 31 c 128
 25 35 35 40 42 44 c 0
 63 57 87 87 115 134 c 1
 386 570 l 2
 391 577 393 584 393 590 c 0
 393 598 387 604 377 608 c 128
 367 612 357 614 349 614 c 1
 347 617 346 623 346 630 c 128
 346 637 348 642 349 643 c 1
 381 642 418 642 462 642 c 0
 491 642 542 643 613 645 c 128
 684 647 738 648 775 648 c 1
 778 629 783 605 790 574 c 128
 797 543 802 524 804 516 c 1
 801 513 794 511 786 511 c 0
 778 511 773 513 772 518 c 0
 762 554 748 578 730 591 c 128
 712 604 688 609 659 609 c 2
 575 609 l 2
 532 609 510 606 508 599 c 0
 504 587 502 563 503 529 c 1
 503 347 l 1
 503 345 506 343 514 342 c 128
 522 341 532 341 545 341 c 2
 597 341 l 2
 613 341 626 341 635 341 c 128
 644 341 652 342 660 344 c 128
 668 346 674 348 678 351 c 128
 682 354 685 357 688 362 c 128
 691 367 694 371 696 378 c 128
 698 385 700 393 702 403 c 0
 703 407 703 409 704 411 c 0
 705 416 710 418 719 418 c 0
 727 418 732 416 735 413 c 1
 735 229 l 1
 732 226 728 225 720 225 c 0
 712 225 706 227 704 232 c 1
 697 258 692 274 689 281 c 128
 686 288 682 294 677 297 c 0
 669 302 634 305 573 305 c 0
 563 305 563 305 558 305 c 128
 554 305 550 304 543 304 c 128
 536 304 531 304 527 304 c 128
 523 304 519 303 515 302 c 128
 511 301 508 301 506 300 c 128
 504 299 503 297 503 296 c 2
 503 110 l 1
 503 99 503 86 504 70 c 128
 505 54 506 45 509 43 c 0
 515 38 522 36 531 35 c 128
 540 34 555 33 578 33 c 2
 625 33 l 2
 648 33 671 35 694 40 c 128
 717 45 735 52 748 60 c 0
 762 68 774 80 782 95 c 128
 790 110 800 131 810 158 c 1
 811 162 815 164 823 164 c 0
 835 164 844 162 848 158 c 1
 845 150 840 137 833 118 c 128
 826 99 821 85 817 73 c 128
 813 61 808 48 804 33 c 128
 800 18 797 6 795 -4 c 1
 761 -4 709 -3 637 -2 c 128
 565 -1 507 0 462 0 c 0
420 290 m 9
 420 553 l 1
 260 293 l 1
 259 290 260 289 261 289 c 0
 278 288 303 288 338 288 c 0
 368 288 395 289 420 290 c 9
EndSplineSet
EndChar
StartChar: Eth
Encoding: 208 208 141
Width: 693
Flags: W
HStem: -3 31<42 112 209 382> 304 36<46 358> 611 31<44 113 206 368>
VStem: 117 86<42 608> 547 97<193 438>
LayerCount: 2
Fore
SplineSet
356 304 m 1
 328 304 62 304 48 304 c 1
 44 304 43 331 49 340 c 1
 77 340 342 340 356 340 c 1
 360 340 360 313 356 304 c 1
EndSplineSet
Refer: 35 68 N 1 0 0 1 0 0 3
EndChar
StartChar: multiply
Encoding: 215 215 148
Width: 928
Flags: HW
LayerCount: 2
Fore
SplineSet
398 494 m 1
 110 782 l 1
 110 796 115.833333333 812.166666667 127.5 830.5 c 128
 139.166666667 848.833333333 149.333333333 858 158 858 c 0
 164.666666667 858 169.333333333 856.666666667 172 854 c 0
 368 664.666666667 467.333333333 568.666666667 470 566 c 1
 760 854 l 2
 762.666666667 856.666666667 766.666666667 858 772 858 c 0
 780 858 789.333333333 847.5 800 826.5 c 128
 810.666666667 805.5 816 789.333333333 816 778 c 1
 633.333333333 596.666666667 540 504 536 500 c 1
 816 210 l 1
 816 194 811.333333333 176.666666667 802 158 c 128
 792.666666667 139.333333333 782.666666667 130 772 130 c 0
 765.333333333 130 760.666666667 131.333333333 758 134 c 2
 464 428 l 1
 166 132 l 2
 163.333333333 129.333333333 159.333333333 128 154 128 c 0
 146 128 136.666666667 138.833333333 126 160.5 c 128
 115.333333333 182.166666667 110 198.666666667 110 210 c 1
 296.666666667 394 392.666666667 488.666666667 398 494 c 1
EndSplineSet
Substitution2: "'smcp' Lowercase to Small Capitals lookup 2-1" multiply.sc
EndChar
StartChar: Oslash
Encoding: 216 216 149
Width: 1496
Flags: HW
LayerCount: 2
Fore
SplineSet
1130 1334 m 17
 1140.67 1331.33 1153.83 1324.67 1169.5 1314 c 0
 1185.17 1303.33 1191.33 1295.33 1188 1290 c 2
 352 -26 l 1
 340.67 -22 327.33 -14.67 312 -4 c 0
 296.67 6.67 290.67 14.67 294 20 c 2
 1130 1334 l 17
EndSplineSet
Refer: 46 79 N 1 0 0 1 0 0 3
EndChar
StartChar: Thorn
Encoding: 222 222 155
Width: 1096
Flags: HW
LayerCount: 2
Fore
SplineSet
327 1314 m 0
 346.333333333 1314 424.333333333 1317.33333333 561 1324 c 1
 565.666666667 1318.66666667 567.833333333 1309 567.5 1295 c 128
 567.166666667 1281 565 1271.33333333 561 1266 c 1
 541 1266 513.666666667 1263 479 1257 c 128
 444.333333333 1251 425.666666667 1243.33333333 423 1234 c 0
 415 1208.66666667 411.666666667 1159.33333333 413 1086 c 1
 413 960 l 1
 435 976 464 988.666666667 500 998 c 128
 536 1007.33333333 565.5 1013 588.5 1015 c 128
 611.5 1017 632 1018 650 1018 c 0
 691.333333333 1018 734.166666667 1009.83333333 778.5 993.5 c 128
 822.833333333 977.166666667 864.5 954.5 903.5 925.5 c 128
 942.5 896.5 974.333333333 858.5 999 811.5 c 128
 1023.66666667 764.5 1036 713.333333333 1036 658 c 0
 1036 536.666666667 995.5 439.333333333 914.5 366 c 128
 833.5 292.666666667 727.333333333 256 596 256 c 0
 560 256 531.333333333 261.333333333 510 272 c 1
 491.333333333 284.666666667 482 299.333333333 482 316 c 0
 482 317.333333333 482.333333333 318.833333333 483 320.5 c 128
 483.666666667 322.166666667 484.666666667 323.666666667 486 325 c 128
 487.333333333 326.333333333 489.333333333 326.666666667 492 326 c 0
 526 316.666666667 551.333333333 312 568 312 c 0
 650.666666667 312 718.666666667 339.666666667 772 395 c 128
 825.333333333 450.333333333 852 526.666666667 852 624 c 0
 852 722 826.833333333 799.166666667 776.5 855.5 c 128
 726.166666667 911.833333333 659.333333333 940 576 940 c 0
 555.333333333 940 528.666666667 935.166666667 496 925.5 c 128
 463.333333333 915.833333333 440.666666667 900.666666667 428 880 c 0
 418 864 413 810.666666667 413 720 c 2
 413 232 l 1
 411.666666667 158.666666667 415 109.333333333 423 84 c 0
 425.666666667 74.6666666667 444.333333333 67 479 61 c 128
 513.666666667 55 541 52 561 52 c 1
 565 46.6666666667 567.166666667 37 567.5 23 c 128
 567.833333333 9 565.666666667 -0.666666666667 561 -6 c 1
 424.333333333 0.666666666667 346.333333333 4 327 4 c 0
 306.333333333 4 227.666666667 0.666666666667 91 -6 c 1
 86.3333333333 -0.666666666667 84.1666666667 9 84.5 23 c 128
 84.8333333333 37 87 46.6666666667 91 52 c 1
 111 52 138.333333333 55 173 61 c 128
 207.666666667 67 226.333333333 74.6666666667 229 84 c 0
 235.666666667 105.333333333 239 154.666666667 239 232 c 2
 239 1086 l 2
 239 1163.33333333 235.666666667 1212.66666667 229 1234 c 0
 226.333333333 1243.33333333 207.666666667 1251 173 1257 c 128
 138.333333333 1263 111 1266 91 1266 c 1
 87 1271.33333333 84.8333333333 1281 84.5 1295 c 128
 84.1666666667 1309 86.3333333333 1318.66666667 91 1324 c 1
 227.666666667 1317.33333333 306.333333333 1314 327 1314 c 0
EndSplineSet
EndChar
StartChar: germandbls
Encoding: 223 223 156
Width: 1074
Flags: HW
LayerCount: 2
Fore
SplineSet
535 1386 m 0
 583.666666667 1386 628.666666667 1381 670 1371 c 128
 711.333333333 1361 748.5 1345.66666667 781.5 1325 c 128
 814.5 1304.33333333 840.333333333 1276.66666667 859 1242 c 128
 877.666666667 1207.33333333 887 1167.33333333 887 1122 c 0
 887 1042 847.666666667 966 769 894 c 0
 757 882.666666667 738.833333333 867 714.5 847 c 128
 690.166666667 827 672.166666667 811.666666667 660.5 801 c 128
 648.833333333 790.333333333 637.666666667 777.333333333 627 762 c 128
 616.333333333 746.666666667 611 732 611 718 c 0
 611 698.666666667 616.166666667 680.166666667 626.5 662.5 c 128
 636.833333333 644.833333333 653.166666667 627.666666667 675.5 611 c 128
 697.833333333 594.333333333 717.666666667 580.666666667 735 570 c 128
 752.333333333 559.333333333 776.333333333 546 807 530 c 0
 831.666666667 516.666666667 851.5 505.666666667 866.5 497 c 128
 881.5 488.333333333 900.166666667 475.5 922.5 458.5 c 128
 944.833333333 441.5 962.333333333 425 975 409 c 128
 987.666666667 393 998.833333333 373.166666667 1008.5 349.5 c 128
 1018.16666667 325.833333333 1023 300.666666667 1023 274 c 0
 1023 194 997.666666667 125 947 67 c 128
 896.333333333 9 833.666666667 -20 759 -20 c 0
 703 -20 652.5 -10.6666666667 607.5 8 c 128
 562.5 26.6666666667 534.333333333 46 523 66 c 1
 523 78 523.333333333 86.6666666667 524 92 c 0
 528.666666667 152 551 182 591 182 c 0
 598.333333333 182 605 180.5 611 177.5 c 128
 617 174.5 622.833333333 169.833333333 628.5 163.5 c 128
 634.166666667 157.166666667 638.833333333 151.333333333 642.5 146 c 128
 646.166666667 140.666666667 651.166666667 132.833333333 657.5 122.5 c 128
 663.833333333 112.166666667 668.666666667 104.333333333 672 99 c 0
 697.333333333 61 727.666666667 42 763 42 c 0
 799.666666667 42 829.5 56.6666666667 852.5 86 c 128
 875.5 115.333333333 887 154.666666667 887 204 c 0
 887 226 882.833333333 245.833333333 874.5 263.5 c 128
 866.166666667 281.166666667 852.5 297.666666667 833.5 313 c 128
 814.5 328.333333333 797.666666667 340.5 783 349.5 c 128
 768.333333333 358.5 746.666666667 370.666666667 718 386 c 0
 698.666666667 396 686.5 402.5 681.5 405.5 c 128
 676.5 408.5 665.166666667 415 647.5 425 c 128
 629.833333333 435 618 442.333333333 612 447 c 128
 606 451.666666667 596 459.5 582 470.5 c 128
 568 481.5 558.166666667 490.833333333 552.5 498.5 c 128
 546.833333333 506.166666667 539.333333333 516.166666667 530 528.5 c 128
 520.666666667 540.833333333 514.166666667 552.666666667 510.5 564 c 128
 506.833333333 575.333333333 503.333333333 588.5 500 603.5 c 128
 496.666666667 618.5 495 634 495 650 c 0
 495 670 500 689.833333333 510 709.5 c 128
 520 729.166666667 530.666666667 745.166666667 542 757.5 c 128
 553.333333333 769.833333333 570 786.833333333 592 808.5 c 128
 614 830.166666667 630.666666667 847.333333333 642 860 c 0
 705.333333333 930.666666667 737 1010 737 1098 c 0
 737 1164.66666667 720 1218.33333333 686 1259 c 128
 652 1299.66666667 603.666666667 1320 541 1320 c 0
 512.333333333 1320 487 1314.83333333 465 1304.5 c 128
 443 1294.16666667 425.166666667 1279.16666667 411.5 1259.5 c 128
 397.833333333 1239.83333333 386.5 1219 377.5 1197 c 128
 368.5 1175 361.833333333 1148.66666667 357.5 1118 c 128
 353.166666667 1087.33333333 350.333333333 1059.66666667 349 1035 c 128
 347.666666667 1010.33333333 347 982 347 950 c 2
 347 232 l 2
 347 154.666666667 350.333333333 105.333333333 357 84 c 0
 359.666666667 74.6666666667 377.666666667 67 411 61 c 128
 444.333333333 55 471 52 491 52 c 1
 495 46.6666666667 497.166666667 37 497.5 23 c 128
 497.833333333 9 495.666666667 -0.666666666667 491 -6 c 1
 354.333333333 0.666666666667 280.333333333 4 269 4 c 0
 245.666666667 4 223.166666667 3.5 201.5 2.5 c 128
 179.833333333 1.5 155 0 127 -2 c 128
 99 -4 75.6666666667 -5.33333333333 57 -6 c 1
 52.3333333333 -0.666666666667 50.1666666667 9 50.5 23 c 128
 50.8333333333 37 53 46.6666666667 57 52 c 1
 76.3333333333 52 101.5 55 132.5 61 c 128
 163.5 67 180.333333333 74.6666666667 183 84 c 0
 189.666666667 105.333333333 193 154.666666667 193 232 c 2
 193 782 l 1
 77 782 l 2
 70.3333333333 782 67 788 67 800 c 0
 67 803.333333333 74.3333333333 813.5 89 830.5 c 128
 103.666666667 847.5 113.666666667 858.666666667 119 864 c 1
 193 864 l 1
 193 876 l 2
 193 955.333333333 210.166666667 1034.83333333 244.5 1114.5 c 128
 278.833333333 1194.16666667 322.833333333 1259.33333333 376.5 1310 c 128
 430.166666667 1360.66666667 483 1386 535 1386 c 0
EndSplineSet
Substitution2: "'smcp' Lowercase to Small Capitals lookup 2-1" germandbls.sc
EndChar
StartChar: ae
Encoding: 230 230 163
Width: 637
Flags: HW
LayerCount: 2
Fore
SplineSet
177 189 m 0
 159 182 144 173 133 160 c 128
 122 147 117 131 117 113 c 0
 117 95 123 79 136 65 c 128
 149 51 165 45 183 45 c 0
 202 45 221 51 242 63 c 128
 263 75 272 88 272 102 c 1
 264 119 259 147 255 188 c 0
 254 202 253 212 253 215 c 1
 244 212 230 207 212 201 c 128
 194 195 182 191 177 189 c 0
433 393 m 0
 418 393 404 389 391 381 c 128
 378 373 368 363 361 352 c 128
 354 341 348 330 343 319 c 128
 338 308 335 298 333 290 c 128
 331 282 330 278 331 278 c 2
 490 278 l 2
 504 278 512 286 513 301 c 0
 513 308 512 315 509 325 c 128
 506 335 502 345 496 355 c 128
 490 365 481 375 470 382 c 128
 459 389 447 393 433 393 c 0
449 428 m 0
 471 428 491 424 509 417 c 128
 527 410 542 402 552 392 c 128
 562 382 571 371 578 358 c 128
 585 345 589 334 592 324 c 128
 595 314 596 304 596 295 c 0
 596 280 594 269 591 261 c 128
 588 253 581 249 572 249 c 0
 559 248 517 247 446 245 c 128
 375 243 334 242 326 242 c 1
 325 182 339 137 370 104 c 128
 401 71 439 55 485 55 c 0
 508 55 530 61 549 72 c 128
 568 83 583 94 593 106 c 0
 593 106 594 106 595 105 c 128
 596 104 598 102 599 100 c 128
 600 98 601 95 601 93 c 0
 601 88 599 82 595 75 c 0
 590 67 583 58 575 50 c 128
 567 42 558 32 546 23 c 128
 534 14 520 7 504 1 c 128
 488 -5 470 -8 452 -8 c 0
 420 -8 390 0 360 14 c 128
 330 28 307 48 291 75 c 1
 277 60 254 43 222 23 c 128
 190 3 166 -8 150 -8 c 0
 118 -8 91 3 69 25 c 128
 47 47 36 72 36 104 c 0
 36 123 40 139 49 152 c 128
 58 165 68 175 81 182 c 0
 100 191 131 204 174 221 c 128
 217 238 240 248 243 250 c 0
 248 252 251 253 253 255 c 128
 255 257 256 260 257 264 c 0
 258 270 259 280 259 295 c 0
 259 319 252 341 238 360 c 128
 224 379 206 389 184 389 c 0
 168 389 155 383 147 373 c 128
 139 363 134 348 130 327 c 0
 127 311 121 299 114 292 c 128
 107 285 97 281 84 281 c 0
 74 281 66 286 60 294 c 128
 54 302 51 312 51 322 c 0
 51 331 53 340 58 346 c 1
 75 363 101 380 135 398 c 128
 169 416 202 426 233 426 c 0
 253 426 271 420 287 408 c 128
 303 396 315 382 324 365 c 1
 339 381 358 396 380 409 c 128
 402 422 424 428 449 428 c 0
EndSplineSet
Substitution2: "'smcp' Lowercase to Small Capitals lookup 2-1" ae.sc
EndChar
StartChar: eth
Encoding: 240 240 173
Width: 504
UnlinkRmOvrlpSave: 1
Flags: W
HStem: -7 32<203 306> 396 32<178 293> 648 23<84 104>
VStem: 39 84<114 309> 366 85<125 324>
LayerCount: 2
Fore
SplineSet
338 683 m 17
 346 678 362 658 355 652 c 9
 125 497 l 17
 118 502 101 522 108 528 c 9
 338 683 l 17
229 396 m 0
 151 396 123 312 123 222 c 0
 123 126 174 25 253 25 c 0
 330 25 366 101 366 197 c 0
 366 251 358 300 347 321 c 0
 320 373 282 396 229 396 c 0
241 429 m 0
 269 429 304 425 324 413 c 1
 302 471 261 574 79 648 c 1
 79 655 85 672 93 672 c 1
 178 653 270 594 339 514 c 0
 405 437 451 341 451 241 c 3
 451 83 353 -7 250 -7 c 0
 117 -7 39 89 39 206 c 0
 39 311 105 429 241 429 c 0
EndSplineSet
Substitution2: "'smcp' Lowercase to Small Capitals lookup 2-1" eth.sc
EndChar
StartChar: divide
Encoding: 247 247 180
Width: 1198
Flags: HW
LayerCount: 2
Fore
SplineSet
132 438 m 18
 124 438 120 444.666666667 120 458 c 0
 120 466.666666667 123.333333333 482.5 130 505.5 c 0
 136.666666667 528.5 144.666666667 543.333333333 154 550 c 1
 1062 550 l 2
 1066.66666667 550 1070.83333333 547.833333333 1074.5 543.5 c 0
 1078.16666667 539.166666667 1080 533.333333333 1080 526 c 0
 1080 510.666666667 1076.66666667 494.166666667 1070 476.5 c 0
 1063.33333333 458.833333333 1056 446 1048 438 c 1
 132 438 l 18
EndSplineSet
Refer: 339 775 N 1 0 0 1 1114 -986 2
Refer: 339 775 N 1 0 0 1 1114 -220 2
Substitution2: "'smcp' Lowercase to Small Capitals lookup 2-1" divide.sc
EndChar
StartChar: oslash
Encoding: 248 248 181
Width: 497
Flags: HW
LayerCount: 2
Fore
SplineSet
126 -8 m 17
 121 -6 121 -6 118 -4 c 0
 116 -3 113 -1 109 1 c 0
 105 3 103 6 101 8 c 0
 99 10 99 12 100 13 c 2
 363 427 l 1
 369 424 376 421 382 417 c 0
 388 413 391 410 390 407 c 2
 126 -8 l 17
EndSplineSet
Refer: 78 111 N 1 0 0 1 1 0 3
Substitution2: "'smcp' Lowercase to Small Capitals lookup 2-1" oslash.sc
EndChar
StartChar: thorn
Encoding: 254 254 187
Width: 990
Flags: HW
LayerCount: 2
Fore
SplineSet
551 876 m 0
 609.666666667 876 663 862.833333333 711 836.5 c 128
 759 810.166666667 797.166666667 776 825.5 734 c 128
 853.833333333 692 875.5 647.666666667 890.5 601 c 128
 905.5 554.333333333 913 508.666666667 913 464 c 0
 913 401.333333333 899.166666667 340.166666667 871.5 280.5 c 128
 843.833333333 220.833333333 808 169.5 764 126.5 c 128
 720 83.5 669.833333333 49 613.5 23 c 128
 557.166666667 -3 501 -16 445 -16 c 0
 398.333333333 -16 351.666666667 -8.66666666667 305 6 c 1
 299.666666667 -0.666666666667 297 -9.33333333333 297 -20 c 2
 297 -214 l 2
 297 -291.333333333 300.333333333 -340.666666667 307 -362 c 0
 309.666666667 -371.333333333 326.5 -379 357.5 -385 c 128
 388.5 -391 413.666666667 -394 433 -394 c 1
 437 -399.333333333 439.166666667 -409 439.5 -423 c 128
 439.833333333 -437 437.666666667 -446.666666667 433 -452 c 1
 296.333333333 -445.333333333 225 -442 219 -442 c 0
 195.666666667 -442 173.166666667 -442.5 151.5 -443.5 c 128
 129.833333333 -444.5 105 -446 77 -448 c 128
 49 -450 25.6666666667 -451.333333333 7 -452 c 1
 2.33333333333 -446.666666667 0.166666666667 -437 0.5 -423 c 128
 0.833333333333 -409 3 -399.333333333 7 -394 c 1
 26.3333333333 -394 51.5 -391 82.5 -385 c 128
 113.5 -379 130.333333333 -371.333333333 133 -362 c 0
 139.666666667 -340.666666667 143 -291.333333333 143 -214 c 2
 143 1116 l 2
 143 1169.33333333 139.666666667 1204 133 1220 c 0
 123 1244 82.3333333333 1256 11 1256 c 0
 10.3333333333 1256 9.66666666667 1260.16666667 9 1268.5 c 128
 8.33333333333 1276.83333333 8.16666666667 1285.33333333 8.5 1294 c 128
 8.83333333333 1302.66666667 10.3333333333 1307.33333333 13 1308 c 0
 105 1317.33333333 199.666666667 1344 297 1388 c 1
 301.666666667 1388 306.5 1384.5 311.5 1377.5 c 128
 316.5 1370.5 319 1363.33333333 319 1356 c 1
 304.333333333 1313.33333333 297 1255.33333333 297 1182 c 2
 297 768 l 2
 297 761.333333333 298.333333333 758 301 758 c 0
 302.333333333 758 304.333333333 759.333333333 307 762 c 0
 338.333333333 788.666666667 377.833333333 814.333333333 425.5 839 c 128
 473.166666667 863.666666667 515 876 551 876 c 0
465 758 m 0
 426.333333333 758 388.666666667 748.833333333 352 730.5 c 128
 315.333333333 712.166666667 297 695.333333333 297 680 c 2
 297 200 l 2
 297 153.333333333 317.166666667 117.333333333 357.5 92 c 128
 397.833333333 66.6666666667 439.666666667 54 483 54 c 0
 535.666666667 54 582.5 71 623.5 105 c 128
 664.5 139 695 181.166666667 715 231.5 c 128
 735 281.833333333 745 334.666666667 745 390 c 0
 745 504.666666667 718.166666667 594.666666667 664.5 660 c 128
 610.833333333 725.333333333 544.333333333 758 465 758 c 0
EndSplineSet
Substitution2: "'smcp' Lowercase to Small Capitals lookup 2-1" thorn.sc
EndChar
StartChar: Aogonek
Encoding: 260 260 193
Width: 612
Flags: HW
LayerCount: 2
Fore
SplineSet
616 -3 m 1
 610 -3 600 -2 584 -1 c 128
 568 0 555 1 546 1 c 1
 521 -14 498 -33 477 -55 c 128
 456 -77 445 -98 445 -118 c 0
 445 -128 448 -138 454 -147 c 128
 460 -156 470 -160 485 -160 c 0
 496 -160 508 -158 518 -154 c 128
 528 -150 536 -147 542 -142 c 128
 548 -137 552 -133 556 -129 c 128
 560 -125 563 -123 564 -123 c 0
 564 -123 565 -124 566 -125 c 128
 567 -126 567 -127 568 -129 c 128
 569 -131 569 -134 569 -136 c 0
 569 -143 567 -149 564 -153 c 0
 531 -196 498 -218 462 -218 c 0
 445 -218 431 -213 420 -204 c 128
 409 -195 402 -185 398 -174 c 128
 394 -163 393 -153 393 -143 c 0
 393 -118 403 -91 425 -65 c 128
 447 -39 472 -17 502 2 c 1
 500 2 l 2
 498 2 464 0 396 -3 c 1
 394 0 392 4 392 11 c 128
 392 18 393 22 396 25 c 1
 403 25 414 27 427 29 c 128
 440 31 447 34 451 38 c 0
 454 41 455 45 455 52 c 0
 455 61 449 81 438 113 c 128
 427 145 416 174 405 201 c 2
 389 242 l 1
 387 245 385 246 383 246 c 0
 375 247 342 247 286 247 c 0
 245 247 210 246 181 244 c 1
 176 241 l 1
 158 193 143 153 132 122 c 0
 123 95 118 73 118 53 c 1
 118 47 122 43 128 39 c 128
 134 35 141 32 150 30 c 128
 159 28 166 27 172 26 c 128
 178 25 183 25 186 25 c 1
 187 24 188 19 188 12 c 128
 188 5 189 0 188 -3 c 1
 179 -3 167 -2 156 -1 c 128
 145 0 134 1 125 1 c 128
 116 1 105 2 93 2 c 0
 80 2 67 1 57 1 c 128
 47 1 35 0 23 -1 c 128
 11 -2 -1 -3 -12 -3 c 1
 -13 -2 -14 3 -14 10 c 128
 -14 17 -13 22 -12 25 c 1
 -4 25 8 28 21 31 c 128
 34 34 43 38 47 44 c 0
 61 62 76 93 93 136 c 0
 179 357 241 518 281 619 c 1
 284 624 290 630 299 637 c 128
 308 644 314 647 318 647 c 0
 319 647 321 647 322 646 c 128
 323 645 323 645 324 645 c 1
 523 123 l 2
 539 81 548 60 548 59 c 0
 552 49 562 40 578 34 c 128
 594 28 606 25 614 25 c 1
 616 22 617 18 617 11 c 128
 617 4 617 0 616 -3 c 1
284 529 m 1
 194 291 l 1
 194 288 195 287 196 287 c 0
 230 286 260 285 285 285 c 0
 309 285 337 286 367 288 c 0
 368 288 369 288 369 289 c 128
 369 290 370 291 370 292 c 2
 370 293 l 1
 284 529 l 1
EndSplineSet
EndChar
